<svg xmlns="http://www.w3.org/2000/svg" viewBox="0 0 60.9 50.4"><defs><style>.cls-1{fill:#f5eed8;}.cls-2{fill:#e4c39e;fill-rule:evenodd;}.cls-3{fill:#2f3029;}</style></defs><g id="Ebene_2" data-name="Ebene 2"><g id="OBJECTS"><rect class="cls-1" width="60.9" height="50.4" rx="6.72"/><path class="cls-2" d="M54.18,50.4h-.31l7-7v.3a6.75,6.75,0,0,1-6.72,6.72Zm-6.62,0L60.9,37.06V32L42.51,50.4Zm-11.37,0L60.9,25.69V20.64L31.14,50.4Zm-11.37,0L60.9,14.33V9.28L19.77,50.4Zm-11.36,0L60.17,3.69A6.83,6.83,0,0,0,57.76,1L8.41,50.4Zm-10.32-1A6.74,6.74,0,0,1,.73,46.71L47.44,0h5.05L3.14,49.35ZM0,41.12v-5L36.07,0h5L0,41.12ZM0,29.75V24.7L24.7,0h5.05L0,29.75ZM0,18.39V13.34L13.34,0h5.05L0,18.39ZM0,7,7,0h-.3A6.74,6.74,0,0,0,0,6.72Z"/><path class="cls-3" d="M22.79,40.78a2.15,2.15,0,0,1-1.56-.66,2.21,2.21,0,0,1-.66-1.6V11.43l-3.24,1.38a3.73,3.73,0,0,1-1.43.31,2.26,2.26,0,0,1-1.62-.62,2.13,2.13,0,0,1-.64-1.6A2.41,2.41,0,0,1,14,9.61a2,2,0,0,1,1.11-.84L22,6.28a2.54,2.54,0,0,1,.45-.13,1.94,1.94,0,0,1,.4,0,2.1,2.1,0,0,1,1.62.64,2.33,2.33,0,0,1,.6,1.66V38.52a2.27,2.27,0,0,1-2.31,2.26Z"/><path class="cls-3" d="M46.49,40.74a10,10,0,0,1-5.26-1.4,9.82,9.82,0,0,1-3.66-3.82,11,11,0,0,1-1.34-5.44,10.39,10.39,0,0,1,1.34-5.26,9.6,9.6,0,0,1,3.66-3.66,11,11,0,0,1,10.5,0,9.91,9.91,0,0,1,5,8.92,11,11,0,0,1-1.35,5.44,10.18,10.18,0,0,1-3.66,3.82A9.88,9.88,0,0,1,46.49,40.74Zm0-17.67A9.05,9.05,0,0,1,42,22a8.5,8.5,0,0,1-3.13-3,8.06,8.06,0,0,1-1.15-4.29A8.64,8.64,0,0,1,42,7a8.6,8.6,0,0,1,4.51-1.18A8.47,8.47,0,0,1,51,7a8.51,8.51,0,0,1,4.24,7.72A8.06,8.06,0,0,1,54.08,19,8.43,8.43,0,0,1,51,22,8.92,8.92,0,0,1,46.49,23.07Zm0,13.58a5.12,5.12,0,0,0,2.95-.88,6.3,6.3,0,0,0,2.07-2.38,7.23,7.23,0,0,0,.75-3.31,6.15,6.15,0,0,0-.71-3.17,5.87,5.87,0,0,0-2.06-2.22,5.84,5.84,0,0,0-6,0,5.79,5.79,0,0,0-2.09,2.22,6.6,6.6,0,0,0-.76,3.17,7.35,7.35,0,0,0,.74,3.31,6,6,0,0,0,2.06,2.38A5.35,5.35,0,0,0,46.49,36.65Zm0-17.27a3.87,3.87,0,0,0,2.22-.66A4.92,4.92,0,0,0,50.27,17a5.11,5.11,0,0,0,.57-2.42,4.41,4.41,0,0,0-.53-2.35,4.46,4.46,0,0,0-1.55-1.62,4.28,4.28,0,0,0-2.27-.6,4.15,4.15,0,0,0-3.11,1.29,4.67,4.67,0,0,0-1.29,3.28A4.78,4.78,0,0,0,43.32,18,4.05,4.05,0,0,0,46.49,19.38Z"/></g></g></svg>