<svg xmlns="http://www.w3.org/2000/svg" viewBox="0 0 77.28 87.36"><defs><style>.cls-1{fill:#b53b3d;}.cls-2{fill:#f5eed8;fill-rule:evenodd;}.cls-3{fill:#2f3029;}</style></defs><g id="Ebene_2" data-name="Ebene 2"><g id="OBJECTS"><rect class="cls-1" width="77.28" height="87.36" rx="6.72"/><path class="cls-2" d="M66.45,19.86h0a17.71,17.71,0,0,1,0,25L38.64,72.65,10.83,44.84a17.71,17.71,0,0,1,0-25h0a17.71,17.71,0,0,1,25,0l2.83,2.83,2.83-2.83A17.71,17.71,0,0,1,66.45,19.86Z"/><path class="cls-3" d="M37.1,54.79a1.65,1.65,0,0,1-1.21-.52A1.71,1.71,0,0,1,35.37,53a1.65,1.65,0,0,1,.09-.54,5.67,5.67,0,0,1,.23-.57l9.93-20.63H35.1a1.77,1.77,0,1,1,0-3.53H48.28a1.78,1.78,0,0,1,1.77,1.77A1.84,1.84,0,0,1,50,30c0,.15-.11.3-.17.46L38.73,53.82A1.76,1.76,0,0,1,37.1,54.79Z"/><path class="cls-2" d="M17.33,62.92l.36,1.14,1.17-.26a.83.83,0,0,1,1,.63.82.82,0,0,1-.2.74h0l-.81.88.81.89a.82.82,0,0,1,0,1.17.85.85,0,0,1-.79.19l-1.12-.25-.36,1.14a.83.83,0,0,1-1,.55.85.85,0,0,1-.54-.55l-.36-1.14-1.17.26a.83.83,0,0,1-1-.63.82.82,0,0,1,.2-.74h0l.81-.89-.81-.88A.82.82,0,0,1,13.48,64a.8.8,0,0,1,.79-.19l1.12.25.36-1.14a.82.82,0,0,1,1.58,0Z"/><path class="cls-2" d="M66.59,8.11,67,9.25,68.12,9a.83.83,0,0,1,1,.63.85.85,0,0,1-.2.74h0l-.81.88.81.88a.84.84,0,0,1,0,1.18.87.87,0,0,1-.8.19L67,13.24l-.36,1.14a.84.84,0,0,1-1.59,0l-.36-1.14-1.17.26a.83.83,0,0,1-1-.63.84.84,0,0,1,.2-.74h0l.81-.88-.81-.88a.82.82,0,0,1,0-1.17A.8.8,0,0,1,63.52,9l1.12.25L65,8.11a.84.84,0,0,1,1-.55A.86.86,0,0,1,66.59,8.11Z"/><path class="cls-2" d="M37.13,14.18a1.1,1.1,0,1,0-1.1-1.1A1.1,1.1,0,0,0,37.13,14.18Z"/><path class="cls-2" d="M61.49,70.88a1.11,1.11,0,1,0-1.11-1.1A1.11,1.11,0,0,0,61.49,70.88Z"/><path class="cls-2" d="M10.25,56.18a1.11,1.11,0,1,0-1.1-1.1A1.1,1.1,0,0,0,10.25,56.18Z"/><path class="cls-2" d="M67.37,55.49a.6.6,0,1,1,1.2,0v1.29a.6.6,0,1,1-1.2,0V55.49Zm3.41,2.21a.6.6,0,1,1,0,1.2H69.49a.6.6,0,0,1,0-1.2Zm-4.34,0a.6.6,0,1,1,0,1.2H65.15a.6.6,0,1,1,0-1.2Zm.93,2.12a.6.6,0,0,1,1.2,0v1.29a.6.6,0,1,1-1.2,0Z"/><path class="cls-2" d="M11.51,7.61a.6.6,0,0,1,1.2,0V8.9a.6.6,0,0,1-1.2,0V7.61Zm3.42,2.21a.6.6,0,1,1,0,1.2H13.64a.6.6,0,1,1,0-1.2Zm-4.34,0a.6.6,0,1,1,0,1.2H9.3a.6.6,0,1,1,0-1.2ZM11.51,12a.6.6,0,1,1,1.2,0v1.29a.6.6,0,0,1-1.2,0Z"/></g></g></svg>