<svg xmlns="http://www.w3.org/2000/svg" viewBox="0 0 60.9 122.63"><defs><style>.cls-1{fill:#b53b3d;}.cls-2,.cls-3{fill:#f5eed8;}.cls-2{fill-rule:evenodd;}</style></defs><g id="Ebene_2" data-name="Ebene 2"><g id="OBJECTS"><rect class="cls-1" width="60.9" height="122.63" rx="6.72"/><path class="cls-2" d="M16,71.76c-4.93,8.78-9.65,16.95-11.26,19-3.84,4.78,5.92,5.75,8.8,1.84,0,0,3.06,10.07,11.63,4.74v13.23A2.48,2.48,0,0,0,27.66,113h6.41a2.48,2.48,0,0,0,2.48-2.47V98c2.13-.1,4.4-1.2,6.41-4.28,0,0,3.85,4,6.47-.6,0,0,4.6,2.69,6.93.68s-1.11-8.19-8.62-22.25c1.25.5,3.18,1,4.37,0,1.88-1.62-1.26-7.29-8.17-20.24a1.91,1.91,0,0,0,1.44-.38c1.23-1.06-.82-4.74-5.32-13.18L40,37.57a1.63,1.63,0,0,0,1.51-.16c.84-.72-.56-3.24-3.64-9s-3.8-7.1-4.21-7.83-1.19-.95-1.63-.12c0,0-7.64,14.15-9,15.86-1.07,1.34.82,1.84,2.2,1.33-2.9,5.21-5.91,10.46-6.86,11.65-1.38,1.72.61,2.5,2.48,2.15C16.4,59.34,11.88,67.23,10.44,69,7.86,72.25,12.92,73.33,16,71.76Z"/><path class="cls-3" d="M9,22.33A1.13,1.13,0,0,1,8.15,22a1.16,1.16,0,0,1-.36-.85V6.64l-1.73.73a2,2,0,0,1-.76.17,1.21,1.21,0,0,1-.87-.33,1.14,1.14,0,0,1-.34-.86,1.28,1.28,0,0,1,.19-.69,1.14,1.14,0,0,1,.59-.45L8.58,3.88l.23-.07.22,0a1.11,1.11,0,0,1,.86.34,1.23,1.23,0,0,1,.32.89v16.1a1.15,1.15,0,0,1-.35.85A1.19,1.19,0,0,1,9,22.33Z"/><path class="cls-3" d="M22.15,22.33A6.5,6.5,0,0,1,19,21.58a5.59,5.59,0,0,1-2.16-2,5.51,5.51,0,0,1-.78-2.91,1.28,1.28,0,0,1,.32-.89,1,1,0,0,1,.77-.34,1,1,0,0,1,.78.34,1.27,1.27,0,0,1,.31.89,3.38,3.38,0,0,0,.5,1.79,3.69,3.69,0,0,0,1.35,1.31,3.87,3.87,0,0,0,1.93.49,3.65,3.65,0,0,0,2.53-.87,3.11,3.11,0,0,0,1-2.43,3.8,3.8,0,0,0-.43-1.8,3.46,3.46,0,0,0-1.16-1.27,3.07,3.07,0,0,0-1.67-.47,1.15,1.15,0,0,1-.86-.36,1.21,1.21,0,0,1-.35-.88,1.2,1.2,0,0,1,1.21-1.21,2.62,2.62,0,0,0,1.29-.34,3,3,0,0,0,1-.93A2.21,2.21,0,0,0,25,8.35a2.29,2.29,0,0,0-.76-1.76,2.75,2.75,0,0,0-2-.71,3.9,3.9,0,0,0-1.65.35,3.2,3.2,0,0,0-1.18.95A2.15,2.15,0,0,0,19,8.51a1.37,1.37,0,0,1-.31.92,1,1,0,0,1-1.55,0,1.2,1.2,0,0,1-.32-.87,4.35,4.35,0,0,1,.71-2.46A4.84,4.84,0,0,1,19.44,4.4a6,6,0,0,1,2.76-.63,5.27,5.27,0,0,1,2.52.6A4.55,4.55,0,0,1,26.5,6a4.26,4.26,0,0,1,.66,2.34A3.14,3.14,0,0,1,26.74,10a4.29,4.29,0,0,1-1,1.23,6.66,6.66,0,0,1-1.36.84,5.56,5.56,0,0,1,2,1.15,4.43,4.43,0,0,1,1.16,1.67,5.85,5.85,0,0,1,.36,2.07,5,5,0,0,1-.78,2.76A5.55,5.55,0,0,1,25,21.63,6.06,6.06,0,0,1,22.15,22.33Z"/></g></g></svg>