<svg xmlns="http://www.w3.org/2000/svg" viewBox="0 0 60.9 53.62"><defs><style>.cls-1{fill:#f5eed8;}.cls-2{fill:#e4c39e;fill-rule:evenodd;}.cls-3{font-size:44.4px;fill:#2f3029;font-family:Comfortaa-Bold, Comfortaa;font-weight:700;}.cls-4{letter-spacing:0.09em;}</style></defs><g id="Ebene_2" data-name="Ebene 2"><g id="OBJECTS"><rect class="cls-1" width="60.9" height="50.4" rx="6.72"/><path class="cls-2" d="M54.18,50.4h-.31l7-7v.3a6.75,6.75,0,0,1-6.72,6.72Zm-6.62,0L60.9,37.06V32L42.51,50.4Zm-11.37,0L60.9,25.69V20.64L31.14,50.4Zm-11.37,0L60.9,14.33V9.28L19.77,50.4Zm-11.36,0L60.17,3.69A6.83,6.83,0,0,0,57.76,1L8.41,50.4Zm-10.32-1A6.74,6.74,0,0,1,.73,46.71L47.44,0h5.05L3.14,49.35ZM0,41.12v-5L36.07,0h5L0,41.12ZM0,29.75V24.7L24.7,0h5.05L0,29.75ZM0,18.39V13.34L13.34,0h5.05L0,18.39ZM0,7,7,0h-.3A6.74,6.74,0,0,0,0,6.72Z"/><text class="cls-3" transform="translate(12.09 40.78)"><tspan class="cls-4">1</tspan><tspan x="21.48" y="0">8</tspan></text></g></g></svg>