<svg xmlns="http://www.w3.org/2000/svg" viewBox="0 0 141.11 87.35"><defs><style>.cls-1{fill:#f5eed8;}.cls-2{fill:#b7c7b1;}.cls-3,.cls-4{fill:#b53b3d;}.cls-4{fill-rule:evenodd;}</style></defs><g id="Ebene_2" data-name="Ebene 2"><g id="OBJECTS"><rect class="cls-1" width="141.11" height="87.35" rx="6.72"/><path class="cls-2" d="M9.35,27.54a1.49,1.49,0,0,1-1.12-.46A1.53,1.53,0,0,1,7.79,26a1.46,1.46,0,0,1,.43-1.1l8.69-10.16a11.44,11.44,0,0,0,1.42-2,3.84,3.84,0,0,0,.51-1.81,5.48,5.48,0,0,0-.46-2.32,3.51,3.51,0,0,0-1.32-1.52,3.75,3.75,0,0,0-2-.53,3.77,3.77,0,0,0-2.09.59A4.16,4.16,0,0,0,11.45,8.7a4.55,4.55,0,0,0-.54,2.19,1.54,1.54,0,0,1-1.56,1.53A1.47,1.47,0,0,1,8.25,12a1.44,1.44,0,0,1-.46-1.07,7.33,7.33,0,0,1,1-3.72,6.94,6.94,0,0,1,2.58-2.58A7.29,7.29,0,0,1,15,3.64a7,7,0,0,1,3.61.89A6.13,6.13,0,0,1,21,7a8.25,8.25,0,0,1,.84,3.85,5.12,5.12,0,0,1-.42,2,10,10,0,0,1-1,1.93,17.81,17.81,0,0,1-1.27,1.65l-7,8h8.57A1.59,1.59,0,0,1,22.27,26a1.51,1.51,0,0,1-.46,1.1,1.55,1.55,0,0,1-1.14.46Z"/><path class="cls-2" d="M35.42,27.54a5.82,5.82,0,0,1-4-1.42A8.9,8.9,0,0,1,29,22a21.39,21.39,0,0,1-.85-6.44A21.41,21.41,0,0,1,29,9.13,8.9,8.9,0,0,1,31.46,5a5.82,5.82,0,0,1,4-1.42,5.74,5.74,0,0,1,4,1.45,9,9,0,0,1,2.5,4.13,21.16,21.16,0,0,1,.86,6.39A21.14,21.14,0,0,1,41.88,22a9,9,0,0,1-2.5,4.13A5.74,5.74,0,0,1,35.42,27.54Zm0-3.18a2.85,2.85,0,0,0,2.33-1.15,7.82,7.82,0,0,0,1.38-3.14,20.36,20.36,0,0,0,.45-4.49,20.39,20.39,0,0,0-.45-4.5,8,8,0,0,0-1.38-3.16,2.92,2.92,0,0,0-4.65,0A7.56,7.56,0,0,0,31.72,11a20.08,20.08,0,0,0-.46,4.54,19.9,19.9,0,0,0,.46,4.52,7.51,7.51,0,0,0,1.39,3.13A2.89,2.89,0,0,0,35.42,24.36Z"/><path class="cls-3" d="M69,15a2,2,0,0,1,2.17,2c0,1.73-2.64,3.12-5.25,3.82-.88,2.2-1.72,4.92-2.42,7.3-1.21,3.85-2,6.31-2.72,8a20.9,20.9,0,0,1-1.72,3.41c1,.92,2,1.91,3,2.9,3,3,6.31,6.5,9.65,6.5,1.84,0,3.52-.74,4.11-2a.74.74,0,0,1,.7-.48.83.83,0,0,1,.77.81,1.48,1.48,0,0,1-.07.29c-.92,2.06-3.34,3-5.55,3-3.89,0-7.52-3.78-10.71-7-1-.92-1.87-1.87-2.79-2.68a3.68,3.68,0,0,1-.33.41,7,7,0,0,1-5.18,2.45c-2.53-.18-3.81-1.35-3.81-3.52a4,4,0,0,1,4-4c1.57,0,3.3,1,5,2.38a22.71,22.71,0,0,0,1.46-3c.7-1.8,1.25-3.41,2.65-7.93.62-2.05,1.35-4.4,2.12-6.49-.73.15-1.5.26-2.23.37C57,22.25,51.58,23.09,51,27.05a2.22,2.22,0,0,0,0,.44,3.35,3.35,0,0,0,.62,2.17,2.72,2.72,0,0,0,1.91,1.1l.37,0a.72.72,0,0,1,.73.8.78.78,0,0,1-.81.74,2.07,2.07,0,0,1-.51,0,4.25,4.25,0,0,1-2.94-1.72,4.86,4.86,0,0,1-.91-3.16,4,4,0,0,1,0-.59c.7-5.1,6.64-6,12.15-6.86l3.12-.48C65.57,17.37,67.14,15,69,15Zm-12,24.85c-1.54-1.25-2.93-2.13-4.18-2.13a2.46,2.46,0,0,0-2.46,2.49c0,1.43,1,2,2.27,2a5.56,5.56,0,0,0,4-1.9A3.75,3.75,0,0,1,57.05,39.83ZM69.53,17a.5.5,0,0,0-.52-.51c-.8,0-1.76,1.25-2.34,2.49C68.21,18.61,69.53,17.55,69.53,17Z"/><path class="cls-3" d="M76.39,35.49a1.09,1.09,0,0,1-.07.34c-1.76,4-3.67,7.7-6.75,7.7a2.66,2.66,0,0,1-2.64-3.08c.11-2.86,2.71-9.58,4.33-13.76a.74.74,0,0,1,.69-.52.72.72,0,0,1,.74,1c-3.56,10-4.22,11.71-4.22,13.29,0,1.06.33,1.54,1.1,1.54,2.27,0,4-3.78,5.32-6.79a.86.86,0,0,1,.73-.48.84.84,0,0,1,.3.08A.75.75,0,0,1,76.39,35.49ZM72.21,23.05a1.27,1.27,0,0,1,1.29-1.24,1.25,1.25,0,0,1,0,2.49A1.27,1.27,0,0,1,72.21,23.05Z"/><path class="cls-3" d="M88,35.53a1.18,1.18,0,0,1-.07.3c-2.39,5.28-5.18,7.7-8.89,7.7-3,0-4.88-2-4.8-5,.22-4.69,4-12.33,8.36-12.33,1.84,0,3.12,1,3.12,2.72,0,3.89-5.46,6.24-9.54,7.23a10.67,10.67,0,0,0-.4,2.42A3.07,3.07,0,0,0,79.11,42c3,.07,5.36-2.06,7.41-6.79a.83.83,0,0,1,1-.4A.84.84,0,0,1,88,35.53Zm-3.82-6.64c0-1-.77-1.18-1.58-1.18-2.53,0-4.66,3.82-5.83,6.65C79.84,33.4,84.21,31.6,84.21,28.89Z"/><path class="cls-3" d="M102.05,35.49a6.75,6.75,0,0,1-.7,1.66c-1.21,2.38-2.71,4-5.06,4a3.64,3.64,0,0,1-2.61-1c-1.5,2.05-3.26,3.37-5.54,3.37-2,0-2.9-1.1-2.9-3.23a14.8,14.8,0,0,1,1.14-4.7c.22-.66,4.26-12.22,4.37-12.58.22-.7.51-1.65.8-2.46a.76.76,0,0,1,.74-.52.77.77,0,0,1,.73,1l-.81,2.39c-.62,1.83-.91,2.75-1.54,4.44a4.92,4.92,0,0,1,3.56-1.73c2.31,0,3.08,1.8,3.08,4.11a19.35,19.35,0,0,1-2.64,8.3.79.79,0,0,1-.14.25,2.4,2.4,0,0,0,1.76.81c1.83,0,2.79-1.5,3.7-3.19.59-1.1.59-1.73,1.25-1.73a1,1,0,0,1,.33.08A.75.75,0,0,1,102.05,35.49Zm-7.82.22c-.07.22-.11.45-.15.63a15.12,15.12,0,0,0,1.66-6.13c0-1.47-.19-2.5-1.44-2.5-3,0-5.24,5.55-6.71,9.25a10.69,10.69,0,0,0-.81,3.27c0,1.17.41,1.76,1.4,1.76,1.72,0,3.3-1.28,4.58-3.23a4.74,4.74,0,0,1-.29-1.69,5.25,5.25,0,0,1,.26-1.76.77.77,0,0,1,.73-.59A.8.8,0,0,1,94.23,35.71Z"/><path class="cls-3" d="M113.68,35.53a.87.87,0,0,1-.07.3c-2.39,5.28-5.17,7.7-8.88,7.7-3,0-4.88-2-4.81-5,.22-4.69,4-12.33,8.37-12.33,1.83,0,3.12,1,3.12,2.72,0,3.89-5.47,6.24-9.54,7.23a10.74,10.74,0,0,0-.41,2.42A3.07,3.07,0,0,0,104.77,42c3,.07,5.35-2.06,7.41-6.79a.82.82,0,0,1,1-.4A.83.83,0,0,1,113.68,35.53Zm-3.81-6.64c0-1-.77-1.18-1.58-1.18-2.53,0-4.66,3.82-5.84,6.65C105.5,33.4,109.87,31.6,109.87,28.89Z"/><path class="cls-3" d="M60.15,63.52a1,1,0,0,1-.08.33C57.8,69.21,54.75,72.62,49.4,74.2c-1.77,5-4,7.63-6.68,7.67a3.36,3.36,0,0,1-3.64-3.56c0-2.32,1.8-4,6.21-4.81.91-.15,1.9-.33,2.89-.59l2-5.54c-2.24,3-4.84,4.95-7.89,4.95-3.67-.11-5.4-2.31-5.4-5.83A27.71,27.71,0,0,1,38.39,59c-3.75-.89-6.17-3.42-6.17-7.16a11.31,11.31,0,0,1,.88-4.22,11.47,11.47,0,0,1,1.76-2.94.75.75,0,0,1,.59-.25.85.85,0,0,1,.51.18.72.72,0,0,1,.26.59.7.7,0,0,1-.18.51,8.52,8.52,0,0,0-1.51,2.5,9.37,9.37,0,0,0-.77,3.56c0,3.26,2.13,5.1,5.18,5.76,2.75-7.89,6.68-13.14,10.86-13.14A4.91,4.91,0,0,1,55,49.61c-.25,6.16-6.9,9.72-13.43,9.72a11.57,11.57,0,0,1-1.61-.11,26.15,26.15,0,0,0-1.54,7.27c0,3,1.39,4.18,3.85,4.29,2.72,0,5.1-2.09,7.16-5.1a46.67,46.67,0,0,0,5-9.94l.36-1a.7.7,0,0,1,.74-.55.74.74,0,0,1,.73,1L53.5,62.45c-.58,1.69-1.24,3.45-1.94,5.47L50,72.36c4.22-1.43,6.79-4.81,8.62-9.14a.8.8,0,0,1,.7-.47,1,1,0,0,1,.33.07A.8.8,0,0,1,60.15,63.52ZM53.43,49.61A3.47,3.47,0,0,0,49.8,45.9c-3.49,0-6.79,4.74-9.32,11.85C46.13,58.45,53.43,54.78,53.43,49.61ZM45.58,75c-3.38.59-4.81,1.54-5,3.23a1.92,1.92,0,0,0,2.1,2c2,0,3.67-2,4.88-5.68C46.9,74.78,46.24,74.93,45.58,75Z"/><path class="cls-3" d="M73.66,63.48a1,1,0,0,1-.08.33c-2.38,5.47-4.22,7.71-6.71,7.71h0c-1.72,0-2.6-1.29-2.6-3.09a8.45,8.45,0,0,1,.36-2.38c.3-1.18,1.91-6.06,2.24-6.86a27.11,27.11,0,0,1-4-1.47c-.15.44-.4,1-3.34,7.37a.74.74,0,0,1-.66.45,1,1,0,0,1-.37-.08.84.84,0,0,1-.44-.7,1,1,0,0,1,.08-.33L61,58.05l.44-1.1a3.72,3.72,0,0,1-1.87-3.08,2.24,2.24,0,0,1,2.24-2.39A2.13,2.13,0,0,1,64,53.9a8.14,8.14,0,0,1-.59,2.35,30.25,30.25,0,0,0,3.34,1.29c.51.14,1,.29,1.4.44A.83.83,0,0,1,68.56,59c-.48,1.21-2.24,6.46-2.46,7.38a8.47,8.47,0,0,0-.33,2c0,.92.29,1.55,1.1,1.55,1.8,0,3.19-2.06,5.28-6.79a.8.8,0,0,1,.7-.48,1.3,1.3,0,0,1,.33.07A.81.81,0,0,1,73.66,63.48ZM61.84,53a.64.64,0,0,0-.7.7A2.27,2.27,0,0,0,62,55.41a5.92,5.92,0,0,0,.41-1.54C62.43,53.24,62.13,53,61.84,53Z"/><path class="cls-3" d="M88.37,63.48a1,1,0,0,1-.07.33c-2.38,5.47-4.22,7.71-6.68,7.71-1.61,0-2.42-1-2.64-2.61a5.75,5.75,0,0,1-4.4,2.61h0C72.23,71.52,71,70.2,71,67.7c0-1.83.88-4,4.4-13.14a.76.76,0,0,1,.7-.48.74.74,0,0,1,.73,1C73,65.46,72.56,66.23,72.56,67.7s.69,2.28,2,2.28c1.5,0,3-1.25,4.22-3.75s2.64-6.46,4.55-11.67a.75.75,0,0,1,.69-.48.78.78,0,0,1,.77,1c-.8,2.13-1.5,4.11-2,5.58-1.39,3.78-2.24,6.75-2.24,7.74S80.85,70,81.62,70c1.76,0,3.19-2.1,5.29-6.79a.74.74,0,0,1,.69-.48,1.3,1.3,0,0,1,.33.07A.83.83,0,0,1,88.37,63.48ZM80.3,50.71A1.27,1.27,0,0,1,79,52a1.24,1.24,0,0,1-1.25-1.25A1.27,1.27,0,0,1,79,49.42,1.3,1.3,0,0,1,80.3,50.71Zm4,0A1.27,1.27,0,0,1,83.05,52a1.24,1.24,0,0,1-1.24-1.25,1.27,1.27,0,0,1,1.24-1.29A1.31,1.31,0,0,1,84.34,50.71Z"/><path class="cls-3" d="M101.55,63.22a13,13,0,0,1-5,4.15,13,13,0,0,1-1,3.56c-.58,1.28-1.94,3.6-3.81,3.6a2,2,0,0,1-2.06-2.06c0-2.09,2.13-4.4,5.47-5.87a21,21,0,0,0,.15-2.72c0-2.49-2.83-5.5,1-8.88a5.79,5.79,0,0,0,2.31-3.89c0-1-.66-1.54-2-1.54-1.87,0-3.49,1.58-4.77,4.77-1.06,2.72-4.37,11.86-6,16.52a.79.79,0,1,1-1.47-.52c1.65-4.69,4.92-13.83,6-16.59C91.9,50,94,48,96.56,48c2.17,0,3.56,1.17,3.56,3.08a7.32,7.32,0,0,1-2.83,5.07c-3.15,2.75-.47,3.45-.47,7.7,0,.66,0,1.29-.08,1.91a12,12,0,0,0,3.56-3.48.84.84,0,0,1,1.18-.3A.83.83,0,0,1,101.55,63.22Zm-7.34,7a8.36,8.36,0,0,0,.59-1.83c-1.87.88-3.6,2.93-3.6,4.07a.5.5,0,0,0,.52.51C92.52,73,93.48,71.74,94.21,70.23Z"/><path class="cls-3" d="M113.11,63.52a.77.77,0,0,1-.07.29c-2.39,5.28-5.18,7.71-8.88,7.71-3,0-4.88-2-4.81-5,.22-4.7,4-12.33,8.37-12.33,1.83,0,3.12,1,3.12,2.71,0,3.89-5.47,6.24-9.54,7.23a10.82,10.82,0,0,0-.41,2.43,3.08,3.08,0,0,0,3.3,3.45c3,.07,5.36-2.06,7.42-6.79a.83.83,0,0,1,1-.41A.84.84,0,0,1,113.11,63.52Zm-3.81-6.65c0-1-.77-1.17-1.58-1.17-2.53,0-4.66,3.82-5.84,6.64C104.93,61.39,109.3,59.59,109.3,56.87Z"/><path class="cls-4" d="M18.32,70.06a.6.6,0,1,1,1.2,0v1.29a.6.6,0,1,1-1.2,0V70.06Zm3.41,2.21a.61.61,0,0,1,0,1.21H20.44a.61.61,0,0,1,0-1.21Zm-4.34,0a.61.61,0,1,1,0,1.21H16.1a.61.61,0,0,1,0-1.21Zm.93,2.13a.6.6,0,1,1,1.2,0v1.29a.6.6,0,1,1-1.2,0Z"/><path class="cls-4" d="M94.77,13.73a.61.61,0,1,1,1.21,0V15a.61.61,0,0,1-1.21,0V13.73Zm3.42,2.21a.6.6,0,0,1,0,1.2H96.9a.6.6,0,1,1,0-1.2Zm-4.34,0a.6.6,0,0,1,0,1.2H92.56a.6.6,0,1,1,0-1.2Zm.92,2.12a.61.61,0,0,1,1.21,0v1.29a.61.61,0,1,1-1.21,0Z"/><path class="cls-4" d="M123.12,38.08a.6.6,0,1,1,1.2,0v1.3a.6.6,0,0,1-1.2,0v-1.3Zm3.42,2.22a.6.6,0,0,1,0,1.2h-1.3a.6.6,0,1,1,0-1.2Zm-4.34,0a.6.6,0,0,1,0,1.2h-1.29a.6.6,0,1,1,0-1.2Zm.92,2.12a.6.6,0,1,1,1.2,0v1.29a.6.6,0,1,1-1.2,0Z"/><path class="cls-4" d="M17.29,59.48a1.1,1.1,0,1,0-1.11-1.1A1.1,1.1,0,0,0,17.29,59.48Z"/><path class="cls-4" d="M81.49,22.53a1.11,1.11,0,1,0-1.1-1.11A1.11,1.11,0,0,0,81.49,22.53Z"/><path class="cls-4" d="M127.27,61.37a1.1,1.1,0,1,0-1.11-1.1A1.1,1.1,0,0,0,127.27,61.37Z"/><path class="cls-4" d="M32.56,35.55a1.11,1.11,0,1,0-1.1-1.11A1.11,1.11,0,0,0,32.56,35.55Z"/></g></g></svg>