<svg xmlns="http://www.w3.org/2000/svg" viewBox="0 0 141.11 87.36"><defs><style>.cls-1{fill:#b7c7b1;}.cls-2{font-size:30.61px;}.cls-2,.cls-4,.cls-7{fill:#2f3029;}.cls-2,.cls-4{font-family:Comfortaa-Bold, Comfortaa;font-weight:700;}.cls-3{letter-spacing:0.09em;}.cls-4{font-size:18.38px;letter-spacing:0.18em;}.cls-5{letter-spacing:0.14em;}.cls-6{letter-spacing:0em;}.cls-7{font-size:30px;font-family:Nickainley-Normal, Nickainley;}.cls-8{fill:#f5eed8;fill-rule:evenodd;}</style></defs><g id="Ebene_2" data-name="Ebene 2"><g id="OBJECTS"><rect class="cls-1" width="141.11" height="87.36" rx="6.72"/><text class="cls-2" transform="translate(7.38 28.16)"><tspan class="cls-3">2</tspan><tspan x="20.78" y="0">4</tspan></text><text class="cls-4" transform="translate(49.64 37.84)">F<tspan class="cls-5" x="14.88" y="0">r</tspan><tspan x="26.47" y="0">oh</tspan><tspan class="cls-6" x="58.22" y="0">e</tspan></text><text class="cls-7" transform="translate(7.1 62.78)">Weihnachten</text><path class="cls-8" d="M102.32,12.23a.61.61,0,0,1,1.21,0v1.29a.61.61,0,1,1-1.21,0V12.23Zm3.42,2.22a.6.6,0,0,1,0,1.2h-1.29a.6.6,0,1,1,0-1.2Zm-4.34,0a.6.6,0,1,1,0,1.2h-1.29a.6.6,0,0,1,0-1.2Zm.92,2.12a.61.61,0,0,1,1.21,0v1.29a.61.61,0,0,1-1.21,0Z"/><path class="cls-8" d="M89,21a1.1,1.1,0,1,0-1.1-1.1A1.1,1.1,0,0,0,89,21Z"/><path class="cls-8" d="M42.27,29.25a.61.61,0,0,1,1.21,0v1.29a.61.61,0,0,1-1.21,0V29.25Zm3.42,2.21a.61.61,0,0,1,0,1.21H44.4a.61.61,0,0,1,0-1.21Zm-4.34,0a.61.61,0,0,1,0,1.21H40.06a.61.61,0,0,1,0-1.21Zm.92,2.13a.61.61,0,1,1,1.21,0v1.29a.61.61,0,0,1-1.21,0Z"/><path class="cls-8" d="M13.5,52.13A1.1,1.1,0,1,0,12.4,51,1.11,1.11,0,0,0,13.5,52.13Z"/><path class="cls-8" d="M29,75.44a1.1,1.1,0,1,0-1.1-1.1A1.11,1.11,0,0,0,29,75.44Z"/><path class="cls-8" d="M82.38,76.28a1.1,1.1,0,1,0-1.1-1.1A1.1,1.1,0,0,0,82.38,76.28Z"/><path class="cls-8" d="M130.47,45.83a1.1,1.1,0,1,0-1.1-1.1A1.1,1.1,0,0,0,130.47,45.83Z"/><path class="cls-8" d="M114,69.61a.61.61,0,1,1,1.21,0V70.9a.61.61,0,0,1-1.21,0V69.61Zm3.42,2.21a.6.6,0,1,1,0,1.2h-1.29a.6.6,0,1,1,0-1.2Zm-4.34,0a.6.6,0,1,1,0,1.2h-1.29a.6.6,0,1,1,0-1.2ZM114,74a.61.61,0,1,1,1.21,0v1.29a.61.61,0,0,1-1.21,0Z"/><path class="cls-8" d="M49.36,70.24a.6.6,0,1,1,1.2,0v1.29a.6.6,0,0,1-1.2,0V70.24Zm3.41,2.21a.6.6,0,1,1,0,1.2H51.48a.6.6,0,0,1,0-1.2Zm-4.34,0a.6.6,0,1,1,0,1.2H47.14a.6.6,0,0,1,0-1.2Zm.93,2.13a.6.6,0,1,1,1.2,0v1.29a.6.6,0,0,1-1.2,0Z"/><path class="cls-8" d="M58.44,15.39a1.11,1.11,0,1,0-1.1-1.11A1.11,1.11,0,0,0,58.44,15.39Z"/></g></g></svg>