<svg xmlns="http://www.w3.org/2000/svg" viewBox="0 0 60.9 124.27"><defs><style>.cls-1,.cls-6{fill:#2f3029;}.cls-2{font-size:24.04px;font-family:Comfortaa-Bold, Comfortaa;font-weight:700;letter-spacing:0.09em;}.cls-2,.cls-5{fill:#f5eed8;}.cls-3{letter-spacing:0em;}.cls-4{fill:#b53b3d;}.cls-4,.cls-5,.cls-6,.cls-7,.cls-8{fill-rule:evenodd;}.cls-7{fill:#94a892;}.cls-8{fill:#e4c39e;}.cls-9{fill:#735e47;}</style></defs><g id="Ebene_2" data-name="Ebene 2"><g id="OBJECTS"><rect class="cls-1" width="60.9" height="122.63" rx="6.72"/><text class="cls-2" transform="translate(6.26 117.32)">2<tspan class="cls-3" x="16.32" y="0">3</tspan></text><path class="cls-4" d="M21.4,36.17s1.38,21.53,1.39,24.07S12.29,76.48,11.37,79.63s-.52,9.87,7.28,11.31,11.56-2,16.31-6.59S45.71,71.54,46.15,64.82,46.21,33,46.21,33,41.55,39.45,21.4,36.17Z"/><path class="cls-5" d="M22.4,52.52c0,.63.07,1.23.11,1.81a4.7,4.7,0,0,0,.95-.19l.6-.19c1.7-.53,2.05-.64,4,.79,2.22,1.67,3.27.87,4.65-.16a7,7,0,0,1,1.61-1A2.06,2.06,0,0,1,36.5,54a8.82,8.82,0,0,0,2.32,1.21c1.59.52,2.57-.45,3.71-1.57,1-1,2.08-2,3.84-1.7V50.13c-2.44-.38-3.87,1-5.12,2.27-.71.7-1.32,1.31-1.86,1.13a7.62,7.62,0,0,1-1.88-1c-1.15-.77-2-1.35-3.9-.61a7.89,7.89,0,0,0-2,1.21c-.77.57-1.35,1-2.48.16-2.64-2-3.15-1.83-5.58-1.07l-.58.19A3.45,3.45,0,0,1,22.4,52.52Z"/><path class="cls-5" d="M41.69,76.16c2.39-3.69,4.22-7.74,4.46-11.34.07-1,.12-2.49.15-4.22C44.35,62.63,39.19,68.89,41.69,76.16Z"/><path class="cls-5" d="M12.28,77.73a9.86,9.86,0,0,0-.91,1.9c-.92,3.14-.52,9.87,7.28,11.31,4.82.89,8.09-.09,11-2C25,78.07,17.67,76.82,12.28,77.73Z"/><path class="cls-5" d="M19.79,30.31a3.47,3.47,0,0,0-.86,3.15s-2.52,2-2,4.21,1.41,2.5,1.41,2.5.08,2.92,2.43,2.58a4.09,4.09,0,0,0,5.56,1s3.89,4.23,7.34.77a2.16,2.16,0,0,0,2.82-.21s3.61,2.38,5.66-1a1.48,1.48,0,0,0,2.22-.72s4.83,1,4.78-4.31a4.51,4.51,0,0,0,.61-3.06C49,24.92,25.2,24.51,19.79,30.31Z"/><path class="cls-5" d="M22.09,47.32a3.27,3.27,0,0,0,1.57-.09l.58-.18c2.43-.76,2.93-.92,5.57,1.07,1.13.85,1.72.41,2.48-.16a8.14,8.14,0,0,1,2-1.21c1.89-.74,2.74-.17,3.9.61a7.45,7.45,0,0,0,1.88,1c.53.17,1.15-.44,1.86-1.13,1.11-1.1,2.38-2.35,4.37-2.34v1.85a4.78,4.78,0,0,0-3.11,1.77c-1.13,1.12-2.11,2.09-3.7,1.56a9.14,9.14,0,0,1-2.32-1.2A2.07,2.07,0,0,0,35,48.43a6.64,6.64,0,0,0-1.6,1c-1.38,1-2.44,1.82-4.65.15-1.9-1.42-2.25-1.31-3.95-.78l-.6.19a5.09,5.09,0,0,1-2,.19Z"/><path class="cls-5" d="M41.71,27.64a1.19,1.19,0,1,1-2.24.81s-3.68-10-.26-13.82a4.05,4.05,0,0,1,3-1.43,3.94,3.94,0,0,1,2.61,1.05,6.32,6.32,0,0,1,1.71,2.81c.91,2.84.77,7.52-1.8,14.22a1.19,1.19,0,0,1-2.22-.84c2.36-6.13,2.53-10.25,1.76-12.66a3.9,3.9,0,0,0-1-1.76,1.56,1.56,0,0,0-1-.45,1.76,1.76,0,0,0-1.27.65C38.51,18.94,41.7,27.62,41.71,27.64Z"/><path class="cls-6" d="M22.14,30.39a27.31,27.31,0,0,1,15.39-2.16c9,1.24,11,4,.76,5.86S17.66,33.41,22.14,30.39Z"/><path class="cls-5" d="M9.9,28.54a2.3,2.3,0,0,0,4.59-.34S14,22,16.12,20.05a2.15,2.15,0,0,1,1.2-.58,2,2,0,0,1,1,.14,3.65,3.65,0,0,1,1.29,1c1.3,1.42,2.43,4.06,3,8.4.19,1.55.36,3.1.52,4.62a19.14,19.14,0,0,0,4.72,1c-.2-2-.43-4.07-.68-6.15-.66-5.4-2.25-8.9-4.13-10.95a8.17,8.17,0,0,0-3-2.11,6.62,6.62,0,0,0-3.28-.44A6.77,6.77,0,0,0,13,16.66C9.23,20.12,9.9,28.52,9.9,28.54Z"/><path class="cls-7" d="M9.9,28.54a2.36,2.36,0,0,0,.1.53,4.84,4.84,0,0,1,4.4,0,2.28,2.28,0,0,0,.09-.83,23.63,23.63,0,0,1,0-2.4,7.91,7.91,0,0,0-4.58,0,24.51,24.51,0,0,0,0,2.72Zm4.78-5.11a6,6,0,0,1,1.44-3.38,2.15,2.15,0,0,1,1.2-.58,2,2,0,0,1,1,.14,3.65,3.65,0,0,1,1.29,1,7.12,7.12,0,0,1,1,1.35,5,5,0,0,1,2.27-4.63,8.24,8.24,0,0,0-2.61-1.86,7.78,7.78,0,0,0-2.36,3.75,4.48,4.48,0,0,1-1.06-4.25v0h-.07a6.7,6.7,0,0,0-3.14,1.25,7.67,7.67,0,0,0,1,3.7,7.64,7.64,0,0,0-3.38-.65,14.36,14.36,0,0,0-1,3.21,4.92,4.92,0,0,1,4.42,1ZM21,22.84a7.79,7.79,0,0,1,3.9-2.47,18.47,18.47,0,0,1,1.13,2.87,5.49,5.49,0,0,0-3.79,3.21l-.09.15A18.13,18.13,0,0,0,21,22.84ZM22.57,29h0c.14,1.17.27,2.33.4,3.49l.06-.05a5.61,5.61,0,0,1,4.38-1.61c-.09-.8-.18-1.59-.28-2.39L27,27.72A8.09,8.09,0,0,0,22.57,29Z"/><path class="cls-8" d="M31.66,26.87h0A3.18,3.18,0,0,1,34.84,30v4.51a38.81,38.81,0,0,1-6.35.07V30A3.18,3.18,0,0,1,31.66,26.87Z"/><path class="cls-8" d="M31.31,26.77a20.11,20.11,0,0,1-1.75-3.66c-.21-1.05,2.89-1.34,4-.92S32,26.82,32,26.82Z"/><rect class="cls-9" x="30.61" y="26.21" width="2.11" height="1.42" rx="0.71"/><path class="cls-5" d="M9.23,46.56a.6.6,0,0,1,1.2,0v1.29a.6.6,0,1,1-1.2,0V46.56Zm3.41,2.21a.61.61,0,1,1,0,1.21H11.35a.61.61,0,0,1,0-1.21Zm-4.33,0a.61.61,0,0,1,0,1.21H7a.61.61,0,1,1,0-1.21Zm.92,2.13a.6.6,0,1,1,1.2,0v1.29a.6.6,0,0,1-1.2,0Z"/><path class="cls-5" d="M16.39,59.27a1.1,1.1,0,1,0-1.1-1.1A1.11,1.11,0,0,0,16.39,59.27Z"/><path class="cls-5" d="M30.49,10.39a.6.6,0,0,1,1.2,0v1.29a.6.6,0,1,1-1.2,0V10.39Zm3.42,2.21a.61.61,0,0,1,0,1.21h-1.3a.61.61,0,0,1,0-1.21Zm-4.34,0a.61.61,0,0,1,0,1.21H28.28a.61.61,0,1,1,0-1.21Zm.92,2.13a.6.6,0,1,1,1.2,0V16a.6.6,0,0,1-1.2,0Z"/><path class="cls-5" d="M52.12,60.63a.6.6,0,1,1,1.2,0v1.29a.6.6,0,0,1-1.2,0V60.63Zm3.41,2.21a.61.61,0,1,1,0,1.21H54.24a.61.61,0,0,1,0-1.21Zm-4.33,0a.61.61,0,0,1,0,1.21H49.91a.61.61,0,1,1,0-1.21ZM52.12,65a.6.6,0,1,1,1.2,0v1.29a.6.6,0,0,1-1.2,0Z"/><path class="cls-5" d="M54.66,51.5a1.1,1.1,0,1,0-1.1-1.1A1.11,1.11,0,0,0,54.66,51.5Z"/><path class="cls-5" d="M19.6,9.92a1.1,1.1,0,1,0-1.11-1.1A1.1,1.1,0,0,0,19.6,9.92Z"/><path class="cls-5" d="M48.15,83.84a1.11,1.11,0,1,0-1.1-1.1A1.11,1.11,0,0,0,48.15,83.84Z"/></g></g></svg>