<svg xmlns="http://www.w3.org/2000/svg" viewBox="0 0 78.34 87.36"><defs><style>.cls-1{fill:#f5eed8;}.cls-2{font-size:28px;fill:#b53b3d;font-family:Nickainley-Normal, Nickainley;}.cls-3{font-size:19.41px;font-family:Comfortaa-Bold, Comfortaa;font-weight:700;}.cls-3,.cls-5{fill:#2f3029;}.cls-4{letter-spacing:0.09em;}.cls-5{fill-rule:evenodd;}</style></defs><g id="Ebene_2" data-name="Ebene 2"><g id="OBJECTS"><rect class="cls-1" width="77.28" height="87.36" rx="6.72"/><text class="cls-2" transform="translate(13.26 42.31)">Noch</text><text class="cls-2" transform="translate(4.4 70.55)">2 Tage</text><text class="cls-3" transform="translate(53.75 18.25)"><tspan class="cls-4">2</tspan><tspan x="13.18" y="0">2</tspan></text><path class="cls-5" d="M41.22,21.47a1.1,1.1,0,1,0-1.1-1.1A1.11,1.11,0,0,0,41.22,21.47Z"/><path class="cls-5" d="M8.31,42.39a.61.61,0,0,1,1.21,0v1.29a.61.61,0,0,1-1.21,0V42.39Zm3.42,2.21a.6.6,0,0,1,.6.6.6.6,0,0,1-.6.6H10.44a.59.59,0,0,1-.6-.6.6.6,0,0,1,.6-.6Zm-4.34,0a.6.6,0,0,1,.6.6.6.6,0,0,1-.6.6H6.1a.6.6,0,0,1-.6-.6.6.6,0,0,1,.6-.6Zm.92,2.13a.61.61,0,1,1,1.21,0V48a.61.61,0,0,1-1.21,0Z"/><path class="cls-5" d="M56.32,47.61a.6.6,0,0,1,1.2,0V48.9a.6.6,0,1,1-1.2,0V47.61Zm3.41,2.21a.61.61,0,1,1,0,1.21H58.44a.61.61,0,0,1,0-1.21Zm-4.33,0a.61.61,0,0,1,0,1.21H54.11a.61.61,0,1,1,0-1.21ZM56.32,52a.6.6,0,0,1,1.2,0v1.29a.6.6,0,1,1-1.2,0Z"/><path class="cls-5" d="M39.94,73.65a.6.6,0,0,1,1.2,0v1.29a.6.6,0,1,1-1.2,0V73.65Zm3.41,2.21a.61.61,0,1,1,0,1.21H42.06a.61.61,0,0,1,0-1.21Zm-4.33,0a.61.61,0,0,1,0,1.21H37.73a.61.61,0,1,1,0-1.21ZM39.94,78a.6.6,0,0,1,1.2,0v1.29a.6.6,0,0,1-1.2,0Z"/><path class="cls-5" d="M26.05,9a.6.6,0,1,1,1.2,0v1.3a.6.6,0,0,1-1.2,0V9Zm3.41,2.22a.6.6,0,1,1,0,1.2H28.17a.6.6,0,1,1,0-1.2Zm-4.33,0a.6.6,0,1,1,0,1.2H23.84a.6.6,0,1,1,0-1.2Zm.92,2.12a.6.6,0,0,1,1.2,0V14.6a.6.6,0,1,1-1.2,0Z"/><path class="cls-5" d="M14.5,18.32a1.1,1.1,0,1,0-1.1-1.1A1.11,1.11,0,0,0,14.5,18.32Z"/><path class="cls-5" d="M43.9,48.35a1.1,1.1,0,1,0-1.1-1.1A1.1,1.1,0,0,0,43.9,48.35Z"/><path class="cls-5" d="M60.07,78a1.11,1.11,0,1,0-1.1-1.1A1.1,1.1,0,0,0,60.07,78Z"/><path class="cls-5" d="M17,79.22a1.11,1.11,0,1,0-1.1-1.1A1.11,1.11,0,0,0,17,79.22Z"/></g></g></svg>