<svg xmlns="http://www.w3.org/2000/svg" viewBox="0 0 77.27 87.35"><defs><style>.cls-1,.cls-3{fill:#f5eed8;}.cls-2{fill:#b53b3d;}.cls-3{font-size:30.61px;font-family:Comfortaa-Bold, Comfortaa;font-weight:700;letter-spacing:0.09em;}.cls-4{letter-spacing:0em;}.cls-5,.cls-6{fill:#2f3029;}.cls-6{fill-rule:evenodd;}</style></defs><g id="Ebene_2" data-name="Ebene 2"><g id="OBJECTS"><rect class="cls-1" width="77.27" height="87.35" rx="6.72"/><circle class="cls-2" cx="38.64" cy="43.68" r="29.92" transform="translate(-16.65 62.23) rotate(-67.05)"/><text class="cls-3" transform="translate(29.58 54.41)">1<tspan class="cls-4" x="14.81" y="0">1</tspan></text><rect class="cls-5" x="27.93" y="12.28" width="21.42" height="5.25" rx="1.89"/><rect class="cls-5" x="32.13" y="10.28" width="13.01" height="5.25" rx="1.89"/><path class="cls-6" d="M37.76,4.69h1.76a3.15,3.15,0,0,1,2.22.93h0a3.16,3.16,0,0,1,.92,2.23V12.5a3.14,3.14,0,0,1-.92,2.23h0a3.15,3.15,0,0,1-2.22.93H37.76a3.15,3.15,0,0,1-2.23-.93h0a3.11,3.11,0,0,1-.93-2.23V7.85a3.13,3.13,0,0,1,.93-2.23h0a3.15,3.15,0,0,1,2.23-.93Zm1.76,1.79H37.76a1.37,1.37,0,0,0-1.37,1.37V12.5a1.37,1.37,0,0,0,1.37,1.37h1.76a1.38,1.38,0,0,0,1-.4,1.4,1.4,0,0,0,.4-1V7.85a1.4,1.4,0,0,0-.4-1A1.38,1.38,0,0,0,39.52,6.48Z"/><path class="cls-6" d="M64.61,9.58a.6.6,0,0,1,1.2,0v1.29a.6.6,0,1,1-1.2,0V9.58ZM68,11.79A.61.61,0,1,1,68,13H66.73a.61.61,0,0,1,0-1.21Zm-4.33,0a.61.61,0,0,1,0,1.21H62.4a.61.61,0,1,1,0-1.21Zm.92,2.13a.6.6,0,0,1,1.2,0v1.29a.6.6,0,1,1-1.2,0Z"/><path class="cls-6" d="M11.15,68.5a.6.6,0,1,1,1.2,0v1.29a.6.6,0,1,1-1.2,0V68.5Zm3.41,2.22a.6.6,0,0,1,0,1.2H13.27a.6.6,0,0,1,0-1.2Zm-4.34,0a.6.6,0,1,1,0,1.2H8.93a.6.6,0,0,1,0-1.2Zm.93,2.12a.6.6,0,1,1,1.2,0v1.29a.6.6,0,1,1-1.2,0Z"/><path class="cls-6" d="M64.58,71a1.11,1.11,0,1,0-1.1-1.11A1.11,1.11,0,0,0,64.58,71Z"/><path class="cls-6" d="M70.88,24.84a1.11,1.11,0,1,0-1.1-1.1A1.11,1.11,0,0,0,70.88,24.84Z"/><path class="cls-6" d="M7.89,63.48a1.11,1.11,0,1,0-1.1-1.11A1.11,1.11,0,0,0,7.89,63.48Z"/><path class="cls-6" d="M10,16.44a1.11,1.11,0,1,0-1.1-1.1A1.1,1.1,0,0,0,10,16.44Z"/></g></g></svg>