<svg xmlns="http://www.w3.org/2000/svg" viewBox="0 0 141.11 87.35"><defs><style>.cls-1{fill:#f5eed8;}.cls-2{font-size:30.61px;fill:#b7c7b1;font-family:Comfortaa-Bold, Comfortaa;font-weight:700;letter-spacing:0.09em;}.cls-3{letter-spacing:0em;}.cls-4{font-size:36.7px;font-family:Nickainley-Normal, Nickainley;}.cls-4,.cls-5{fill:#b53b3d;}.cls-5{fill-rule:evenodd;}</style></defs><g id="Ebene_2" data-name="Ebene 2"><g id="OBJECTS"><rect class="cls-1" width="141.11" height="87.35" rx="6.72"/><text class="cls-2" transform="translate(5.8 27.54)">2<tspan class="cls-3" x="20.78" y="0">0</tspan></text><text class="cls-4" transform="translate(48.87 43.53)">Liebe</text><text class="cls-4" transform="translate(32.22 69.52)">Grüße</text><path class="cls-5" d="M18.32,70.06a.6.6,0,1,1,1.2,0v1.29a.6.6,0,1,1-1.2,0V70.06Zm3.41,2.21a.61.61,0,0,1,0,1.21H20.44a.61.61,0,0,1,0-1.21Zm-4.34,0a.61.61,0,1,1,0,1.21H16.1a.61.61,0,0,1,0-1.21Zm.93,2.13a.6.6,0,1,1,1.2,0v1.29a.6.6,0,1,1-1.2,0Z"/><path class="cls-5" d="M94.77,13.73a.61.61,0,1,1,1.21,0V15a.61.61,0,0,1-1.21,0V13.73Zm3.42,2.21a.6.6,0,0,1,0,1.2H96.9a.6.6,0,1,1,0-1.2Zm-4.34,0a.6.6,0,0,1,0,1.2H92.56a.6.6,0,1,1,0-1.2Zm.92,2.12a.61.61,0,0,1,1.21,0v1.29a.61.61,0,1,1-1.21,0Z"/><path class="cls-5" d="M123.12,38.08a.6.6,0,1,1,1.2,0v1.3a.6.6,0,0,1-1.2,0v-1.3Zm3.42,2.22a.6.6,0,0,1,0,1.2h-1.3a.6.6,0,1,1,0-1.2Zm-4.34,0a.6.6,0,0,1,0,1.2h-1.29a.6.6,0,1,1,0-1.2Zm.92,2.12a.6.6,0,1,1,1.2,0v1.29a.6.6,0,1,1-1.2,0Z"/><path class="cls-5" d="M17.29,59.48a1.1,1.1,0,1,0-1.11-1.1A1.1,1.1,0,0,0,17.29,59.48Z"/><path class="cls-5" d="M81.49,22.53a1.11,1.11,0,1,0-1.1-1.11A1.11,1.11,0,0,0,81.49,22.53Z"/><path class="cls-5" d="M127.27,61.37a1.1,1.1,0,1,0-1.11-1.1A1.1,1.1,0,0,0,127.27,61.37Z"/><path class="cls-5" d="M32.56,35.55a1.11,1.11,0,1,0-1.1-1.11A1.11,1.11,0,0,0,32.56,35.55Z"/></g></g></svg>