<svg xmlns="http://www.w3.org/2000/svg" viewBox="0 0 141.11 87.35"><defs><style>.cls-1{fill:#b7c7b1;}.cls-2{fill:#94a892;}.cls-2,.cls-3,.cls-4,.cls-6,.cls-7{fill-rule:evenodd;}.cls-3,.cls-5{fill:#f5eed8;}.cls-4{fill:#b53b3d;}.cls-6{fill:#2f3029;}.cls-7{fill:#e4c39e;}</style></defs><g id="Ebene_2" data-name="Ebene 2"><g id="OBJECTS"><rect class="cls-1" width="141.11" height="87.35" rx="6.72"/><path class="cls-2" d="M6.72,87.35h71.8c-.87-3.2-3.47-8.48-7.52-16.63,1.06.45,2.69.9,3.69,0,1.59-1.48-1.06-6.62-6.9-18.39A1.51,1.51,0,0,0,69,52c1-1-.69-4.31-4.5-12l-.07-.14a1.29,1.29,0,0,0,1.28-.14c.71-.66-.47-3-3.08-8.19s-3.21-6.45-3.56-7.12-1-.86-1.37-.1c0,0-6.47,12.85-7.63,14.41-.91,1.21.69,1.67,1.86,1.21-2.46,4.73-5,9.5-5.8,10.58-1.17,1.56.51,2.27,2.09,1.95-3.72,7.19-7.54,14.35-8.76,16-2.19,2.93,2.09,3.9,4.71,2.48-3.31,6.34-6.51,12.34-8.37,15.44-1.07-2.09-2.39-4.56-3.92-7.44,1,.4,2.5.79,3.44,0,1.48-1.28-1-5.73-6.43-15.92a1.54,1.54,0,0,0,1.14-.3c1-.83-.65-3.73-4.2-10.37l-.06-.12A1.31,1.31,0,0,0,27,52.06c.66-.57-.44-2.56-2.86-7.1s-3-5.58-3.32-6.16-.93-.74-1.27-.09c0,0-6,11.13-7.1,12.48-.85,1.05.64,1.45,1.72,1.05-2.28,4.09-4.64,8.23-5.39,9.16-1.09,1.36.48,2,1.95,1.69-3.47,6.22-7,12.43-8.16,13.85-2,2.53,2,3.37,4.39,2.14-1.4,2.49-2.77,4.92-4,7.08A6.7,6.7,0,0,0,6.72,87.35Z"/><path class="cls-3" d="M71.72,87.35h59.62a30,30,0,0,0-59.62,0Z"/><path class="cls-4" d="M83.15,57.51s-1.89,7.66-1.57,9.76,3.67,5.46,13.22,6.51,19.64-.32,23.52-2.52,4-6.4.84-13.65S82.62,57,82.62,57Z"/><path class="cls-5" d="M10.89,27.29a1.57,1.57,0,0,1-1.53-1.56V7.06L7.13,8a2.5,2.5,0,0,1-1,.22A1.54,1.54,0,0,1,5,7.79a1.45,1.45,0,0,1-.44-1.1,1.7,1.7,0,0,1,.24-.89,1.41,1.41,0,0,1,.77-.58l4.77-1.71a1.12,1.12,0,0,1,.31-.1l.27,0a1.45,1.45,0,0,1,1.12.45A1.61,1.61,0,0,1,12.48,5V25.73a1.5,1.5,0,0,1-.46,1.1A1.55,1.55,0,0,1,10.89,27.29Z"/><path class="cls-5" d="M32.16,27.29a1.38,1.38,0,0,1-1-.46,1.56,1.56,0,0,1-.43-1.1V21.87H20.5a1.44,1.44,0,0,1-1.11-.43,1.66,1.66,0,0,1-.44-1,1.52,1.52,0,0,1,.29-1L31,4.06a1.89,1.89,0,0,1,.57-.49,1.43,1.43,0,0,1,1.76.27A1.71,1.71,0,0,1,33.69,5V19.05h1.83a2,2,0,0,1,1.1.31,1.21,1.21,0,0,1,.46,1.1,1.29,1.29,0,0,1-.46,1,1.59,1.59,0,0,1-1.1.41H33.69v3.86a1.6,1.6,0,0,1-.43,1.1A1.48,1.48,0,0,1,32.16,27.29Zm-9.83-7.38-.83-.86h9.19V6.44l.95,1.23Z"/><path class="cls-3" d="M101.53,69.16a22,22,0,1,0-22-22A22.1,22.1,0,0,0,101.53,69.16Z"/><path class="cls-6" d="M87.86,43.22a2.52,2.52,0,1,0-2.52-2.52A2.53,2.53,0,0,0,87.86,43.22Z"/><path class="cls-4" d="M86.51,55.66a4.78,4.78,0,1,0-4.77-4.78A4.79,4.79,0,0,0,86.51,55.66Z"/><path class="cls-6" d="M110.57,43.22a2.52,2.52,0,1,0-2.52-2.52A2.53,2.53,0,0,0,110.57,43.22Z"/><path class="cls-4" d="M111.92,55.66a4.78,4.78,0,1,0-4.77-4.78A4.79,4.79,0,0,0,111.92,55.66Z"/><path class="cls-3" d="M117.48,24a3.78,3.78,0,1,0-3.78-3.78A3.78,3.78,0,0,0,117.48,24Z"/><path class="cls-7" d="M94.14,46.66a70.05,70.05,0,0,0-8.64,7c-2,1.94-2.72,2.93,1.62,3.37a61.72,61.72,0,0,0,10.5-.17C105.13,56.14,100.41,42.36,94.14,46.66Z"/><path class="cls-4" d="M88.24,26.58s6-12,14.74-16.85,14.74,3.66,15.51,8.09S114.84,19,114.84,19s4.32,6,2.21,10.31S88.24,26.58,88.24,26.58Z"/><path class="cls-7" d="M84.06,33.66s23-7.14,38.08,5.62a1.79,1.79,0,0,0,.44-1.51c-.16-1-.5-8.42-3.73-10.77-5.44-3.95-30.37-5.63-33.49-1.26-1,1.47-2.16,5.88-2.16,5.88S82.78,33.46,84.06,33.66Z"/><path class="cls-3" d="M73,16.72a.6.6,0,1,1,1.2,0V18A.6.6,0,0,1,73,18V16.72Zm3.41,2.21a.61.61,0,1,1,0,1.21H75.13a.61.61,0,0,1,0-1.21Zm-4.33,0a.61.61,0,0,1,0,1.21h-1.3a.61.61,0,0,1,0-1.21ZM73,21.06a.6.6,0,1,1,1.2,0v1.29a.6.6,0,0,1-1.2,0Z"/><path class="cls-3" d="M130,53.75a.6.6,0,1,1,1.2,0V55a.6.6,0,0,1-1.2,0V53.75ZM133.41,56a.6.6,0,0,1,.61.6.6.6,0,0,1-.61.6h-1.29a.6.6,0,0,1-.6-.6.6.6,0,0,1,.6-.6Zm-4.33,0a.6.6,0,0,1,.6.6.6.6,0,0,1-.6.6h-1.29a.6.6,0,0,1-.61-.6.6.6,0,0,1,.61-.6Zm.92,2.13a.6.6,0,1,1,1.2,0v1.29a.6.6,0,1,1-1.2,0Z"/><path class="cls-3" d="M37.18,42a.61.61,0,0,1,1.21,0v1.29a.61.61,0,0,1-1.21,0V42ZM40.6,44.2a.61.61,0,0,1,0,1.21H39.31a.61.61,0,0,1,0-1.21Zm-4.34,0a.61.61,0,1,1,0,1.21H35a.61.61,0,0,1,0-1.21Zm.92,2.13a.61.61,0,1,1,1.21,0v1.29a.61.61,0,0,1-1.21,0Z"/><path class="cls-3" d="M20.38,66.77a.61.61,0,1,1,1.21,0v1.29a.61.61,0,0,1-1.21,0V66.77ZM23.8,69a.6.6,0,1,1,0,1.2H22.51a.6.6,0,1,1,0-1.2Zm-4.34,0a.6.6,0,1,1,0,1.2H18.17a.6.6,0,1,1,0-1.2Zm.92,2.13a.61.61,0,1,1,1.21,0V72.4a.61.61,0,0,1-1.21,0Z"/><path class="cls-3" d="M77.45,41a1.11,1.11,0,1,0-1.11-1.11A1.11,1.11,0,0,0,77.45,41Z"/><path class="cls-3" d="M46.79,21.22a1.11,1.11,0,1,0-1.11-1.11A1.11,1.11,0,0,0,46.79,21.22Z"/><path class="cls-3" d="M56,69.09A1.1,1.1,0,1,0,54.92,68,1.1,1.1,0,0,0,56,69.09Z"/><path class="cls-3" d="M16.55,56.07a1.1,1.1,0,1,0-1.1-1.1A1.1,1.1,0,0,0,16.55,56.07Z"/><path class="cls-3" d="M132,29.2a1.11,1.11,0,1,0-1.1-1.11A1.11,1.11,0,0,0,132,29.2Z"/></g></g></svg>