<svg xmlns="http://www.w3.org/2000/svg" viewBox="0 0 77.27 87.36"><defs><style>.cls-1{fill:#2f3029;}.cls-2{fill:#57564d;}.cls-2,.cls-4{fill-rule:evenodd;}.cls-3,.cls-4{fill:#f5eed8;}</style></defs><g id="Ebene_2" data-name="Ebene 2"><g id="OBJECTS"><rect class="cls-1" width="77.27" height="87.36" rx="6.72"/><path class="cls-2" d="M9.48,87.36h5L77.27,24.62V19.56L9.48,87.36Zm11.37,0L77.27,30.93v5L25.9,87.36Zm11.37,0L77.27,42.3v5.05l-40,40Zm11.36,0L77.27,53.67v5L48.63,87.36Zm11.37,0L77.27,65v5L60,87.36Zm11.37,0,11-11v4.23a8.14,8.14,0,0,1,0,.87l-5.8,5.8a6.15,6.15,0,0,1-.87.06Zm11-74.11L3.83,86.7a6.92,6.92,0,0,1-2.71-2.35L77.27,8.2v5.05ZM76.15,3,0,79.16v-5L73.45.66A6.82,6.82,0,0,1,76.15,3ZM67.79,0,0,67.79V62.74L62.74,0ZM56.42,0,0,56.42V51.37L51.37,0ZM45.06,0,0,45.06V40L40,0ZM33.69,0,0,33.69v-5L28.64,0ZM22.32,0,0,22.32V17.27L17.27,0ZM11,0H6.72a6.15,6.15,0,0,0-.87.06L.06,5.85A6.25,6.25,0,0,0,0,6.72V11Z"/><path class="cls-3" d="M45,65.61a17.71,17.71,0,0,1-9.12-2.36,17.45,17.45,0,0,1-6.41-6.44,18,18,0,0,1-2.36-9.16,3.55,3.55,0,0,1,1-2.57,3.37,3.37,0,0,1,2.54-1,3.59,3.59,0,0,1,2.6,1,3.45,3.45,0,0,1,1.06,2.57,10.91,10.91,0,0,0,1.41,5.5A10.31,10.31,0,0,0,39.52,57,10.68,10.68,0,0,0,45,58.43,10.81,10.81,0,0,0,50.51,57a10.34,10.34,0,0,0,3.84-3.87,10.91,10.91,0,0,0,1.41-5.5,10.77,10.77,0,0,0-1.41-5.52,10.33,10.33,0,0,0-3.84-3.84A10.81,10.81,0,0,0,45,36.88H33.22a3.35,3.35,0,0,1-2.53-1,3.55,3.55,0,0,1-1-2.57v-19a3.69,3.69,0,0,1,1-2.61,3.3,3.3,0,0,1,2.53-1.05H56.74a3.39,3.39,0,0,1,2.54,1.09,3.59,3.59,0,0,1,1.06,2.57,3.55,3.55,0,0,1-3.6,3.52H36.81v11.9H45a17.94,17.94,0,0,1,9.19,2.36,17.52,17.52,0,0,1,6.41,6.41,17.87,17.87,0,0,1,2.36,9.19,17.91,17.91,0,0,1-2.36,9.16,17.37,17.37,0,0,1-6.41,6.44A17.84,17.84,0,0,1,45,65.61Z"/><path class="cls-4" d="M11.24,69.89a.61.61,0,0,1,1.21,0v1.29a.61.61,0,1,1-1.21,0V69.89Zm3.42,2.21a.61.61,0,0,1,0,1.21H13.37a.61.61,0,0,1,0-1.21Zm-4.34,0a.61.61,0,0,1,0,1.21H9A.61.61,0,0,1,9,72.1Zm.92,2.13a.61.61,0,0,1,1.21,0v1.29a.61.61,0,0,1-1.21,0Z"/><path class="cls-4" d="M61.65,30.85a.61.61,0,0,1,1.21,0v1.29a.61.61,0,0,1-1.21,0V30.85Zm3.42,2.21a.6.6,0,0,1,.6.6.6.6,0,0,1-.6.6H63.78a.6.6,0,0,1-.6-.6.6.6,0,0,1,.6-.6Zm-4.34,0a.6.6,0,0,1,.6.6.6.6,0,0,1-.6.6H59.44a.6.6,0,0,1-.6-.6.6.6,0,0,1,.6-.6Zm.92,2.13a.61.61,0,1,1,1.21,0v1.29a.61.61,0,0,1-1.21,0Z"/><path class="cls-4" d="M13.72,10.59a.6.6,0,1,1,1.2,0v1.29a.6.6,0,0,1-1.2,0V10.59Zm3.41,2.21a.6.6,0,1,1,0,1.2H15.84a.6.6,0,1,1,0-1.2Zm-4.33,0a.6.6,0,1,1,0,1.2H11.5a.6.6,0,1,1,0-1.2Zm.92,2.12a.6.6,0,0,1,1.2,0v1.29a.6.6,0,1,1-1.2,0Z"/><path class="cls-4" d="M9.78,33.45a1.11,1.11,0,1,0-1.11-1.1A1.11,1.11,0,0,0,9.78,33.45Z"/><path class="cls-4" d="M63,11.09A1.1,1.1,0,1,0,61.91,10,1.1,1.1,0,0,0,63,11.09Z"/><path class="cls-4" d="M68.75,55.88a1.11,1.11,0,1,0-1.11-1.1A1.11,1.11,0,0,0,68.75,55.88Z"/><path class="cls-4" d="M24,77.9a1.11,1.11,0,1,0-1.1-1.1A1.1,1.1,0,0,0,24,77.9Z"/></g></g></svg>