<svg xmlns="http://www.w3.org/2000/svg" viewBox="0 0 77.28 87.35"><defs><style>.cls-1{fill:#b7c7b1;}.cls-2{fill:#94a892;}.cls-2,.cls-4,.cls-5,.cls-6,.cls-7{fill-rule:evenodd;}.cls-3,.cls-5{fill:#f5eed8;}.cls-4{fill:#b53b3d;}.cls-6{fill:#e4c39e;}.cls-7{fill:#2f3029;}</style></defs><g id="Ebene_2" data-name="Ebene 2"><g id="OBJECTS"><rect class="cls-1" width="77.28" height="87.35" rx="6.72"/><path class="cls-2" d="M42.49,71.57C60.26,71.57,74.67,74,74.67,77s-14.41,5.4-32.18,5.4S10.31,80,10.31,77,24.72,71.57,42.49,71.57Z"/><path class="cls-3" d="M11.06,28.79a1.57,1.57,0,0,1-1.53-1.56V8.56L7.3,9.5a2.5,2.5,0,0,1-1,.22A1.54,1.54,0,0,1,5.2,9.29a1.43,1.43,0,0,1-.44-1.1A1.7,1.7,0,0,1,5,7.3a1.41,1.41,0,0,1,.77-.58L10.54,5a1.6,1.6,0,0,1,.31-.1l.27,0a1.45,1.45,0,0,1,1.12.45,1.59,1.59,0,0,1,.41,1.15V27.23a1.5,1.5,0,0,1-.46,1.1A1.55,1.55,0,0,1,11.06,28.79Z"/><path class="cls-3" d="M22.87,28.79a1.48,1.48,0,0,1-1.07-.46,1.5,1.5,0,0,1-.46-1.1,1.31,1.31,0,0,1,.08-.48c0-.15.11-.32.19-.5L30.4,8H21.09a1.54,1.54,0,0,1-1.56-1.57,1.54,1.54,0,0,1,1.56-1.56H32.76a1.57,1.57,0,0,1,1.56,1.56,1.16,1.16,0,0,1-.07.42,4.14,4.14,0,0,1-.15.41L24.31,27.93A1.58,1.58,0,0,1,22.87,28.79Z"/><path class="cls-4" d="M54.63,32.06C54,29,59,22.29,58.14,20.27s2.11-.07,4,5a14.21,14.21,0,0,1,1,6C62.61,37.2,55.48,36.22,54.63,32.06Z"/><path class="cls-5" d="M49.05,42.45V74.91h0c.11,1.66,3.91,3.26,11.85,3,5.82-.2,8.8-1.7,8.76-3.19h0V42.32Z"/><path class="cls-2" d="M49.05,45.38V50a61.26,61.26,0,0,0,14.53-7.63l-8.22,0a49.73,49.73,0,0,1-6.31,3Zm0,8.53c10.79-3.27,20.19-11.09,20.62-11.45v5.47c-4,3-12,8.14-20.61,10.5V53.91Zm0,9v4.51c8.65-2.35,16.57-7.54,20.61-10.5V51.44c-.43.37-9.83,8.19-20.61,11.46Zm0,9.71c10.78-3.27,20.18-11.09,20.61-11.46v5.47a69.15,69.15,0,0,1-19,10c-1.07-.5-1.62-1.11-1.66-1.72h0v-2.3Zm8.83,5.29c.93,0,1.93,0,3,0,5.82-.2,8.8-1.7,8.76-3.19h0V70.14A72,72,0,0,1,57.89,77.9Z"/><path class="cls-6" d="M59.8,39.15c13,.19,12.89,5.92,1.11,6.33C44.89,46,45.69,38.94,59.8,39.15Z"/><path class="cls-5" d="M59.64,37.52c8.27.17,8.17,5.45.7,5.83C50.19,43.86,50.7,37.32,59.64,37.52Z"/><path class="cls-7" d="M59.16,31.33a.27.27,0,0,1,.38.06.28.28,0,0,1-.06.38s-.46.33-.06,2.4c.22,1.13.36,2,.44,2.75a8.49,8.49,0,0,1,0,2.08.27.27,0,0,1-.54-.07,8.53,8.53,0,0,0,0-2c-.07-.72-.22-1.58-.43-2.69C58.43,31.87,59.15,31.33,59.16,31.33Z"/><path class="cls-4" d="M32.74,20.86C32,17.08,38.18,8.71,37.12,6.19s2.62-.09,5,6.21a17.76,17.76,0,0,1,1.29,7.47C42.68,27.26,33.81,26.05,32.74,20.86Z"/><path class="cls-5" d="M25.81,33.8V74.19h0c.13,2.06,4.87,4.06,14.74,3.71,7.24-.25,10.95-2.11,10.9-4h0V33.63Z"/><path class="cls-4" d="M25.81,37.45v5.73a76.31,76.31,0,0,0,18.08-9.5l-10.24.07a63.87,63.87,0,0,1-7.84,3.7Zm0,10.62C39.23,44,50.93,34.26,51.47,33.81v6.8c-5,3.68-14.89,10.14-25.66,13.07V48.07Zm0,11.18v5.61c10.77-2.93,20.63-9.39,25.65-13.06V45c-.53.45-12.23,10.19-25.65,14.26Zm0,12.08c13.42-4.07,25.12-13.8,25.65-14.25v6.8c-4.7,3.44-13.63,9.32-23.57,12.46-1.34-.63-2-1.39-2.07-2.15h0V71.33Zm11,6.59c1.16,0,2.41,0,3.76,0,7.24-.25,10.95-2.11,10.9-4h0V68.26A89.12,89.12,0,0,1,36.8,77.92Z"/><path class="cls-6" d="M39.18,29.69c16.25.24,16,7.37,1.38,7.88C20.62,38.26,21.62,29.43,39.18,29.69Z"/><path class="cls-5" d="M39,27.66c10.3.22,10.17,6.79.88,7.26C27.22,35.56,27.86,27.42,39,27.66Z"/><path class="cls-7" d="M38.38,20a.34.34,0,0,1,.47.07.34.34,0,0,1-.06.47s-.57.42-.08,3c.27,1.4.45,2.48.55,3.42a11.68,11.68,0,0,1,0,2.58.34.34,0,0,1-.38.29.32.32,0,0,1-.29-.37,10.44,10.44,0,0,0,0-2.44c-.09-.9-.28-2-.54-3.35C37.47,20.63,38.38,20,38.38,20Z"/><path class="cls-5" d="M10.67,46.19a.61.61,0,1,1,1.21,0v1.29a.61.61,0,0,1-1.21,0V46.19Zm3.42,2.21a.6.6,0,0,1,0,1.2H12.8a.6.6,0,1,1,0-1.2Zm-4.34,0a.6.6,0,0,1,0,1.2H8.46a.6.6,0,1,1,0-1.2Zm.92,2.13a.61.61,0,1,1,1.21,0v1.29a.61.61,0,0,1-1.21,0Z"/><path class="cls-5" d="M58.37,8.32a.6.6,0,0,1,1.2,0V9.61a.6.6,0,0,1-1.2,0V8.32Zm3.41,2.21a.61.61,0,0,1,0,1.21H60.49a.61.61,0,0,1,0-1.21Zm-4.34,0a.61.61,0,1,1,0,1.21H56.15a.61.61,0,0,1,0-1.21Zm.93,2.13a.6.6,0,1,1,1.2,0V14a.6.6,0,1,1-1.2,0Z"/><path class="cls-5" d="M18.39,62.21a1.1,1.1,0,1,0-1.1-1.1A1.1,1.1,0,0,0,18.39,62.21Z"/><path class="cls-5" d="M49.73,19.64a1.11,1.11,0,1,0-1.1-1.1A1.1,1.1,0,0,0,49.73,19.64Z"/><path class="cls-5" d="M69.89,29.72a1.11,1.11,0,1,0-1.1-1.1A1.1,1.1,0,0,0,69.89,29.72Z"/><path class="cls-5" d="M19.49,43.16a1.11,1.11,0,1,0-1.1-1.1A1.1,1.1,0,0,0,19.49,43.16Z"/></g></g></svg>