<svg xmlns="http://www.w3.org/2000/svg" viewBox="0 0 60.9 122.63"><defs><style>.cls-1{fill:#b53b3d;}.cls-2,.cls-3{fill:#f5eed8;}.cls-2{fill-rule:evenodd;}.cls-3{font-size:23.74px;font-family:Comfortaa-Bold, Comfortaa;font-weight:700;letter-spacing:0.09em;}.cls-4{letter-spacing:0em;}</style></defs><g id="Ebene_2" data-name="Ebene 2"><g id="OBJECTS"><rect class="cls-1" width="60.9" height="122.63" rx="6.72"/><path class="cls-2" d="M16,71.76c-4.93,8.78-9.65,16.95-11.26,19-3.84,4.78,5.92,5.75,8.8,1.84,0,0,3.06,10.07,11.63,4.74v13.23A2.48,2.48,0,0,0,27.66,113h6.41a2.48,2.48,0,0,0,2.48-2.47V98c2.13-.1,4.4-1.2,6.41-4.28,0,0,3.85,4,6.47-.6,0,0,4.6,2.69,6.93.68s-1.11-8.19-8.62-22.25c1.25.5,3.18,1,4.37,0,1.88-1.62-1.26-7.29-8.17-20.24a1.91,1.91,0,0,0,1.44-.38c1.23-1.06-.82-4.74-5.32-13.18L40,37.57a1.63,1.63,0,0,0,1.51-.16c.84-.72-.56-3.24-3.64-9s-3.8-7.1-4.21-7.83-1.19-.95-1.63-.12c0,0-7.64,14.15-9,15.86-1.07,1.34.82,1.84,2.2,1.33-2.9,5.21-5.91,10.46-6.86,11.65-1.38,1.72.61,2.5,2.48,2.15C16.4,59.34,11.88,67.23,10.44,69,7.86,72.25,12.92,73.33,16,71.76Z"/><text class="cls-3" transform="translate(3.26 22.33)">1<tspan class="cls-4" x="11.48" y="0">3</tspan></text></g></g></svg>