<svg xmlns="http://www.w3.org/2000/svg" viewBox="0 0 141.11 87.36"><defs><style>.cls-1{fill:#b53b3d;}.cls-2{font-size:48.87px;font-family:Comfortaa-Bold, Comfortaa;font-weight:700;}.cls-2,.cls-4{fill:#f5eed8;}.cls-3{letter-spacing:0.09em;}.cls-4,.cls-5{fill-rule:evenodd;}.cls-5{fill:#94a892;}</style></defs><g id="Ebene_2" data-name="Ebene 2"><g id="OBJECTS"><rect class="cls-1" width="141.11" height="87.36" rx="6.72"/><text class="cls-2" transform="translate(50.01 60.83)"><tspan class="cls-3">1</tspan><tspan x="23.64" y="0">0</tspan></text><path class="cls-4" d="M7.41,31.24a3.6,3.6,0,1,0,7.19.2s.25-9.73,3.85-12.4a3.41,3.41,0,0,1,2-.71,3.19,3.19,0,0,1,1.54.38,5.64,5.64,0,0,1,1.85,1.7C25.6,22.83,26.92,27.12,27,34c.32,18.48-.73,36.52-.74,36.57a3.59,3.59,0,0,0,7.17.43s1.08-18.44.75-37.12c-.15-8.52-2-14.21-4.65-17.71a12.61,12.61,0,0,0-4.26-3.75,10.27,10.27,0,0,0-5-1.23,10.58,10.58,0,0,0-6.11,2.12C7.73,18,7.41,31.2,7.41,31.24Z"/><path class="cls-5" d="M7.41,31.24a3.29,3.29,0,0,0,.07.83,7.63,7.63,0,0,1,6.85.66,3.67,3.67,0,0,0,.27-1.29,35,35,0,0,1,.34-3.72A12.19,12.19,0,0,0,7.82,27a36.78,36.78,0,0,0-.41,4.23Zm8.26-7.18c.57-2.07,1.45-4,2.78-5a3.41,3.41,0,0,1,2-.71,3.19,3.19,0,0,1,1.54.38,5.64,5.64,0,0,1,1.85,1.7,11.1,11.1,0,0,1,1.28,2.26c.48-4.5,3-6.23,4.28-6.83a12.66,12.66,0,0,0-3.75-3.31A12,12,0,0,0,21.33,18a7,7,0,0,1-1-6.77l0,0h-.12a10.42,10.42,0,0,0-5.09,1.45,12,12,0,0,0,1,5.91A12,12,0,0,0,11,16.94a23.42,23.42,0,0,0-2,4.84,7.65,7.65,0,0,1,6.71,2.28Zm10,.11A12.34,12.34,0,0,1,32.12,21a28.93,28.93,0,0,1,1.29,4.64c-1.71.15-4.21,1-6.41,4.38l-.17.22a27.72,27.72,0,0,0-1.18-6ZM27,33.94h0c0,1.84.05,3.68.06,5.49l.1-.07c3-2,5.42-2.16,7.07-1.79,0-1.25,0-2.5-.05-3.75,0-.38,0-.74,0-1.1A12.69,12.69,0,0,0,27,33.94Zm0,11.27c0,1.88,0,3.71-.07,5.47,3.11-2,5.62-1.94,7.21-1.48,0-1.58,0-3.21.05-4.87a12.46,12.46,0,0,0-7.19.88Zm-.19,10.65c-.05,1.91-.11,3.69-.17,5.3,3.35-1.82,5.9-1.18,7.21-.58,0-1.54.11-3.21.15-5a12.17,12.17,0,0,0-7.19.26ZM26.5,66.67c-.11,2.43-.2,3.84-.2,3.85a3.83,3.83,0,0,0,.17,1.32,7.57,7.57,0,0,1,6.91-.28,3.1,3.1,0,0,0,.09-.61s.1-1.62.22-4.36A12.2,12.2,0,0,0,26.5,66.67Z"/><path class="cls-4" d="M133.71,31.24a3.6,3.6,0,1,1-7.2.2s-.25-9.73-3.85-12.4a3.39,3.39,0,0,0-2-.71,3.12,3.12,0,0,0-1.53.38,5.66,5.66,0,0,0-1.86,1.7c-1.8,2.42-3.12,6.71-3.24,13.54-.32,18.48.74,36.52.74,36.57a3.59,3.59,0,1,1-7.17.43s-1.08-18.44-.75-37.12c.15-8.52,2-14.21,4.65-17.71a12.7,12.7,0,0,1,4.26-3.75,10.3,10.3,0,0,1,5-1.23A10.61,10.61,0,0,1,127,13.26C133.38,18,133.7,31.2,133.71,31.24Z"/><path class="cls-5" d="M133.71,31.24a3.83,3.83,0,0,1-.08.83,7.61,7.61,0,0,0-6.84.66,3.47,3.47,0,0,1-.28-1.29,36.42,36.42,0,0,0-.33-3.72,12.15,12.15,0,0,1,7.11-.71,38.46,38.46,0,0,1,.42,4.23Zm-8.27-7.18c-.57-2.07-1.44-4-2.78-5a3.39,3.39,0,0,0-2-.71,3.12,3.12,0,0,0-1.53.38,5.66,5.66,0,0,0-1.86,1.7A11.59,11.59,0,0,0,116,22.67c-.48-4.5-3-6.23-4.28-6.83a12.79,12.79,0,0,1,3.75-3.31A12,12,0,0,1,119.78,18a7,7,0,0,0,1-6.77l0,0h.12a10.42,10.42,0,0,1,5.09,1.45,11.85,11.85,0,0,1-1,5.91,12,12,0,0,1,5.16-1.56,22.89,22.89,0,0,1,2,4.84,7.65,7.65,0,0,0-6.71,2.28Zm-10,.11A12.34,12.34,0,0,0,109,21a30,30,0,0,0-1.29,4.64c1.71.15,4.22,1,6.42,4.38a1.77,1.77,0,0,0,.16.22,27.72,27.72,0,0,1,1.18-6Zm-1.39,9.77h0c0,1.84,0,3.68-.06,5.49l-.1-.07c-3-2-5.41-2.16-7.07-1.79,0-1.25,0-2.5,0-3.75,0-.38,0-.74,0-1.1a12.69,12.69,0,0,1,7.15,1.21Zm0,11.27c0,1.88,0,3.71.07,5.47-3.1-2-5.61-1.94-7.21-1.48,0-1.58,0-3.21,0-4.87a12.46,12.46,0,0,1,7.19.88Zm.19,10.65c0,1.91.11,3.69.17,5.3-3.35-1.82-5.9-1.18-7.21-.58-.05-1.54-.1-3.21-.15-5a12.17,12.17,0,0,1,7.19.26Zm.39,10.81c.12,2.43.2,3.84.2,3.85a3.41,3.41,0,0,1-.17,1.32,7.57,7.57,0,0,0-6.91-.28,3.1,3.1,0,0,1-.09-.61s-.09-1.62-.22-4.36A12.2,12.2,0,0,1,114.61,66.67Z"/><path class="cls-4" d="M14.39,57.46a.6.6,0,1,1,1.2,0v1.3a.6.6,0,1,1-1.2,0v-1.3Zm3.41,2.22a.6.6,0,1,1,0,1.2H16.51a.6.6,0,1,1,0-1.2Zm-4.33,0a.6.6,0,0,1,0,1.2h-1.3a.6.6,0,1,1,0-1.2Zm.92,2.12a.6.6,0,1,1,1.2,0v1.29a.6.6,0,1,1-1.2,0Z"/><path class="cls-4" d="M84.94,10a.61.61,0,0,1,1.21,0V11.3a.61.61,0,0,1-1.21,0V10Zm3.42,2.21a.6.6,0,0,1,.6.6.6.6,0,0,1-.6.6H87.07a.6.6,0,0,1-.6-.6.6.6,0,0,1,.6-.6Zm-4.34,0a.6.6,0,0,1,.6.6.6.6,0,0,1-.6.6H82.73a.6.6,0,0,1-.6-.6.6.6,0,0,1,.6-.6Zm.92,2.13a.61.61,0,1,1,1.21,0v1.29a.61.61,0,0,1-1.21,0Z"/><path class="cls-4" d="M127.78,52.43a.6.6,0,0,1,.6-.61.61.61,0,0,1,.61.61v1.29a.61.61,0,0,1-.61.6.6.6,0,0,1-.6-.6V52.43Zm3.42,2.21a.6.6,0,0,1,0,1.2h-1.29a.6.6,0,1,1,0-1.2Zm-4.34,0a.6.6,0,0,1,0,1.2h-1.29a.6.6,0,1,1,0-1.2Zm.92,2.12a.6.6,0,0,1,.6-.6.61.61,0,0,1,.61.6v1.29a.61.61,0,0,1-.61.61.6.6,0,0,1-.6-.61Z"/><path class="cls-4" d="M41.7,16l.36,1.14,1.17-.26a.83.83,0,0,1,1,.63.82.82,0,0,1-.2.74h0l-.81.89L44,20A.82.82,0,0,1,44,21.17a.8.8,0,0,1-.79.19l-1.12-.25-.36,1.14a.83.83,0,0,1-1,.55.86.86,0,0,1-.55-.55l-.35-1.14-1.17.26a.83.83,0,0,1-1-.63.82.82,0,0,1,.2-.74h0l.81-.88-.81-.89a.82.82,0,0,1,0-1.17.88.88,0,0,1,.8-.19l1.12.25L40.11,16a.83.83,0,0,1,1.59,0Z"/><path class="cls-4" d="M45.53,43.32a1.11,1.11,0,1,0-1.1-1.11A1.11,1.11,0,0,0,45.53,43.32Z"/><path class="cls-4" d="M62.75,15.6a1.11,1.11,0,1,0-1.11-1.1A1.11,1.11,0,0,0,62.75,15.6Z"/><path class="cls-4" d="M100.54,55.92a1.11,1.11,0,1,0-1.1-1.11A1.11,1.11,0,0,0,100.54,55.92Z"/><path class="cls-4" d="M14,41.64a1.11,1.11,0,1,0-1.1-1.1A1.1,1.1,0,0,0,14,41.64Z"/><path class="cls-4" d="M123.64,41.64a1.11,1.11,0,1,0-1.1-1.1A1.11,1.11,0,0,0,123.64,41.64Z"/><path class="cls-4" d="M59.39,76.91a1.1,1.1,0,1,0-1.1-1.1A1.1,1.1,0,0,0,59.39,76.91Z"/><path class="cls-4" d="M90.42,65.54l.36,1.14L92,66.42a.83.83,0,0,1,1,.63.85.85,0,0,1-.2.74h0l-.81.88.81.88a.84.84,0,0,1,0,1.18.82.82,0,0,1-.79.18l-1.12-.24-.36,1.14a.84.84,0,0,1-1.59,0l-.36-1.14-1.17.26a.84.84,0,0,1-1-.63.87.87,0,0,1,.2-.75h0l.81-.88-.81-.88a.82.82,0,0,1,0-1.17.81.81,0,0,1,.79-.19l1.12.25.36-1.14a.83.83,0,0,1,1-.55A.86.86,0,0,1,90.42,65.54Z"/></g></g></svg>