<svg xmlns="http://www.w3.org/2000/svg" viewBox="0 0 60.9 56.35"><defs><style>.cls-1{fill:#b7c7b1;}.cls-2{fill:#94a892;fill-rule:evenodd;}.cls-3{font-size:47.77px;fill:#f5eed8;font-family:Comfortaa-Bold, Comfortaa;font-weight:700;}</style></defs><g id="Ebene_2" data-name="Ebene 2"><g id="OBJECTS"><rect class="cls-1" y="0.57" width="60.9" height="50.4" rx="6.72"/><path class="cls-2" d="M54.18,51h-.31l7-7v.3A6.74,6.74,0,0,1,54.18,51Zm-6.62,0L60.9,37.63V32.58L42.51,51ZM36.19,51,60.9,26.27V21.22L31.14,51ZM24.82,51,60.9,14.9V9.85L19.77,51ZM13.46,51,60.17,4.26a6.74,6.74,0,0,0-2.41-2.64L8.41,51Zm-10.32-1A6.83,6.83,0,0,1,.73,47.28L47.44.57h5.05L3.14,49.93ZM0,41.7V36.65L36.07.57h5L0,41.7ZM0,30.33v-5L24.7.57h5.05L0,30.33ZM0,19V13.91L13.34.57h5.05L0,19ZM0,7.6l7-7h-.3A6.74,6.74,0,0,0,0,7.29Z"/><text class="cls-3" transform="translate(19.63 42.54)">8</text></g></g></svg>