<svg xmlns="http://www.w3.org/2000/svg" viewBox="0 0 77.7 87.36"><defs><style>.cls-1{fill:#b53b3d;}.cls-2{fill:#bf5f5c;}.cls-2,.cls-7{fill-rule:evenodd;}.cls-3{font-size:30px;font-family:Comfortaa-Bold, Comfortaa;font-weight:700;}.cls-3,.cls-5,.cls-7{fill:#f5eed8;}.cls-4{letter-spacing:0.09em;}.cls-5{font-size:26px;font-family:Nickainley-Normal, Nickainley;}.cls-6{letter-spacing:0.09em;}</style></defs><g id="Ebene_2" data-name="Ebene 2"><g id="OBJECTS"><rect class="cls-1" width="77.7" height="87.36" rx="6.72"/><path class="cls-2" d="M44.51,74.74a1,1,0,1,1-1.38,1.38l-3-3V76a1.3,1.3,0,1,1-2.6,0v-2.9l-3,3a1,1,0,1,1-1.38-1.38l4.37-4.37V66.19L32.74,71a1,1,0,1,1-1.38-1.38l6.19-6.19V60l-3.37,3.37A1,1,0,1,1,32.8,62l4.75-4.74V46.82l-7.4,7.4v6.71a1,1,0,1,1-2,0V56.17l-2.4,2.4v8.74a1,1,0,0,1-1.94,0v-6.8l-3,3v6.18a1,1,0,0,1-1.95,0V65.42l-2.05,2a1.3,1.3,0,0,1-1.84-1.84l2.05-2H12.88a1,1,0,1,1,0-2h6.17l3-3h-6.8a1,1,0,0,1,0-1.94H24l2.41-2.4H21.59a1,1,0,0,1,0-1.95h6.72l7.4-7.4H25.24l-4.75,4.75a1,1,0,1,1-1.38-1.38L22.48,45H19.09l-6.18,6.18a1,1,0,1,1-1.38-1.38l4.8-4.8H12.15L7.79,49.34A1,1,0,1,1,6.41,48l3-3H6.5a1.3,1.3,0,0,1,0-2.6H9.39l-3-3A1,1,0,0,1,7.79,38l4.36,4.37h4.18l-4.8-4.81a1,1,0,0,1,1.38-1.37l6.18,6.18h3.39L19.11,39a1,1,0,1,1,1.38-1.38l4.75,4.75H35.71L28.31,35H21.59a1,1,0,0,1,0-2h4.77L24,30.62H15.21a1,1,0,1,1,0-1.94H22l-3-3H12.88a1,1,0,1,1,0-1.95H17.1l-2.05-2.05a1.3,1.3,0,0,1,0-1.84,1.32,1.32,0,0,1,1.84,0l2.05,2.05V17.71a1,1,0,1,1,1.95,0v6.17l3,3V20.05a1,1,0,1,1,1.94,0v8.73l2.4,2.4V26.42a1,1,0,0,1,2,0v6.72l7.4,7.4V30.07L32.8,25.32a1,1,0,1,1,1.38-1.38l3.37,3.37V23.92l-6.19-6.18a1,1,0,1,1,1.38-1.38l4.81,4.8V17l-4.37-4.36a1,1,0,0,1,1.38-1.38l3,3V11.33a1.3,1.3,0,1,1,2.6,0v2.89l3-3a1,1,0,0,1,1.38,1.38L40.15,17v4.18l4.8-4.8a1,1,0,1,1,1.38,1.38l-6.18,6.18v3.39l3.37-3.37a1,1,0,0,1,1.38,1.38l-4.75,4.75V40.54l7.4-7.4V26.42a1,1,0,0,1,2,0v4.76l2.4-2.4V20.05a1,1,0,1,1,2,0v6.79l3-3V17.71a1,1,0,1,1,1.95,0v4.22l2-2.05a1.32,1.32,0,0,1,1.84,0,1.3,1.3,0,0,1,0,1.84l-2,2.05h4.22a1,1,0,0,1,0,1.95H58.64l-3,3h6.8a1,1,0,0,1,0,1.94H53.74L51.34,33H56.1a1,1,0,1,1,0,2H49.39L42,42.38H52.46l4.74-4.75A1,1,0,0,1,58.58,39l-3.37,3.37H58.6l6.19-6.18a1,1,0,0,1,1.38,1.37l-4.81,4.81h4.18L69.91,38a1,1,0,0,1,1.38,1.38l-3,3h2.9a1.3,1.3,0,0,1,0,2.6H68.3l3,3a1,1,0,0,1-1.38,1.38L65.54,45H61.36l4.81,4.8a1,1,0,0,1-1.38,1.38L58.6,45H55.21l3.37,3.37a1,1,0,0,1-1.38,1.38L52.46,45H42l7.4,7.4H56.1a1,1,0,1,1,0,1.95H51.34l2.4,2.4h8.74a1,1,0,1,1,0,1.94h-6.8l3,3h6.18a1,1,0,0,1,0,2H60.6l2,2a1.3,1.3,0,0,1-1.84,1.84l-2-2v4.23a1,1,0,0,1-1.95,0V63.47l-3-3v6.8a1,1,0,0,1-2,0V58.57l-2.4-2.4v4.76a1,1,0,1,1-2,0V54.22l-7.4-7.4V57.29L44.9,62a1,1,0,0,1-1.38,1.38L40.15,60v3.39l6.18,6.19A1,1,0,0,1,45,71l-4.8-4.81v4.18Z"/><text class="cls-3" transform="translate(7.36 70.01)"><tspan class="cls-4">Q1</tspan><tspan x="44.87" y="0">2</tspan></text><text class="cls-5" transform="translate(7.24 38.77)"><tspan class="cls-6">Dein</tspan><tspan x="54.73" y="0">e</tspan></text><path class="cls-7" d="M26.11,13.71A1.11,1.11,0,1,0,25,12.6,1.11,1.11,0,0,0,26.11,13.71Z"/><path class="cls-7" d="M11.7,45.53a.61.61,0,0,1,1.21,0v1.29a.61.61,0,0,1-1.21,0V45.53Zm3.42,2.21a.61.61,0,0,1,0,1.21H13.83a.61.61,0,0,1,0-1.21Zm-4.34,0a.61.61,0,1,1,0,1.21H9.49a.61.61,0,0,1,0-1.21Zm.92,2.13a.61.61,0,0,1,1.21,0v1.29a.61.61,0,0,1-1.21,0Z"/><path class="cls-7" d="M63,70.92a.6.6,0,0,1,1.2,0v1.29a.6.6,0,1,1-1.2,0V70.92Zm3.41,2.21a.61.61,0,1,1,0,1.21H65.16a.61.61,0,0,1,0-1.21Zm-4.33,0a.61.61,0,0,1,0,1.21h-1.3a.61.61,0,0,1,0-1.21ZM63,75.26a.6.6,0,0,1,1.2,0v1.29a.6.6,0,0,1-1.2,0Z"/><path class="cls-7" d="M58.63,7.51a.6.6,0,1,1,1.2,0V8.8a.6.6,0,1,1-1.2,0V7.51ZM62,9.72a.6.6,0,1,1,0,1.2H60.75a.6.6,0,0,1,0-1.2Zm-4.33,0a.6.6,0,1,1,0,1.2H56.42a.6.6,0,1,1,0-1.2Zm.92,2.12a.6.6,0,0,1,1.2,0v1.29a.6.6,0,1,1-1.2,0Z"/><path class="cls-7" d="M65.79,20.21a1.1,1.1,0,1,0-1.1-1.1A1.11,1.11,0,0,0,65.79,20.21Z"/><path class="cls-7" d="M51.51,75.65a1.1,1.1,0,1,0-1.1-1.1A1.11,1.11,0,0,0,51.51,75.65Z"/><path class="cls-7" d="M9.73,59.27a1.1,1.1,0,1,0-1.11-1.1A1.1,1.1,0,0,0,9.73,59.27Z"/><text/></g></g></svg>