<svg xmlns="http://www.w3.org/2000/svg" viewBox="0 0 77.7 87.36"><defs><style>.cls-1{fill:#b53b3d;}.cls-2{fill:#bf5f5c;}.cls-2,.cls-4{fill-rule:evenodd;}.cls-3,.cls-4{fill:#f5eed8;}</style></defs><g id="Ebene_2" data-name="Ebene 2"><g id="OBJECTS"><rect class="cls-1" width="77.7" height="87.36" rx="6.72"/><path class="cls-2" d="M44.51,74.74a1,1,0,1,1-1.38,1.38l-3-3V76a1.3,1.3,0,1,1-2.6,0v-2.9l-3,3a1,1,0,1,1-1.38-1.38l4.37-4.37V66.19L32.74,71a1,1,0,1,1-1.38-1.38l6.19-6.19V60l-3.37,3.37A1,1,0,1,1,32.8,62l4.75-4.74V46.82l-7.4,7.4v6.71a1,1,0,1,1-2,0V56.17l-2.4,2.4v8.74a1,1,0,0,1-1.94,0v-6.8l-3,3v6.18a1,1,0,0,1-1.95,0V65.42l-2.05,2a1.3,1.3,0,0,1-1.84-1.84l2.05-2H12.88a1,1,0,1,1,0-2h6.17l3-3h-6.8a1,1,0,0,1,0-1.94H24l2.41-2.4H21.59a1,1,0,0,1,0-1.95h6.72l7.4-7.4H25.24l-4.75,4.75a1,1,0,1,1-1.38-1.38L22.48,45H19.09l-6.18,6.18a1,1,0,1,1-1.38-1.38l4.8-4.8H12.15L7.79,49.34A1,1,0,1,1,6.41,48l3-3H6.5a1.3,1.3,0,0,1,0-2.6H9.39l-3-3A1,1,0,0,1,7.79,38l4.36,4.37h4.18l-4.8-4.81a1,1,0,0,1,1.38-1.37l6.18,6.18h3.39L19.11,39a1,1,0,1,1,1.38-1.38l4.75,4.75H35.71L28.31,35H21.59a1,1,0,0,1,0-2h4.77L24,30.62H15.21a1,1,0,1,1,0-1.94H22l-3-3H12.88a1,1,0,1,1,0-1.95H17.1l-2.05-2.05a1.3,1.3,0,0,1,0-1.84,1.32,1.32,0,0,1,1.84,0l2.05,2.05V17.71a1,1,0,1,1,1.95,0v6.17l3,3V20.05a1,1,0,1,1,1.94,0v8.73l2.4,2.4V26.42a1,1,0,0,1,2,0v6.72l7.4,7.4V30.07L32.8,25.32a1,1,0,1,1,1.38-1.38l3.37,3.37V23.92l-6.19-6.18a1,1,0,1,1,1.38-1.38l4.81,4.8V17l-4.37-4.36a1,1,0,0,1,1.38-1.38l3,3V11.33a1.3,1.3,0,1,1,2.6,0v2.89l3-3a1,1,0,0,1,1.38,1.38L40.15,17v4.18l4.8-4.8a1,1,0,1,1,1.38,1.38l-6.18,6.18v3.39l3.37-3.37a1,1,0,0,1,1.38,1.38l-4.75,4.75V40.54l7.4-7.4V26.42a1,1,0,0,1,2,0v4.76l2.4-2.4V20.05a1,1,0,1,1,2,0v6.79l3-3V17.71a1,1,0,1,1,1.95,0v4.22l2-2.05a1.32,1.32,0,0,1,1.84,0,1.3,1.3,0,0,1,0,1.84l-2,2.05h4.22a1,1,0,0,1,0,1.95H58.64l-3,3h6.8a1,1,0,0,1,0,1.94H53.74L51.34,33H56.1a1,1,0,1,1,0,2H49.39L42,42.38H52.46l4.74-4.75A1,1,0,0,1,58.58,39l-3.37,3.37H58.6l6.19-6.18a1,1,0,0,1,1.38,1.37l-4.81,4.81h4.18L69.91,38a1,1,0,0,1,1.38,1.38l-3,3h2.9a1.3,1.3,0,0,1,0,2.6H68.3l3,3a1,1,0,0,1-1.38,1.38L65.54,45H61.36l4.81,4.8a1,1,0,0,1-1.38,1.38L58.6,45H55.21l3.37,3.37a1,1,0,0,1-1.38,1.38L52.46,45H42l7.4,7.4H56.1a1,1,0,1,1,0,1.95H51.34l2.4,2.4h8.74a1,1,0,1,1,0,1.94h-6.8l3,3h6.18a1,1,0,0,1,0,2H60.6l2,2a1.3,1.3,0,0,1-1.84,1.84l-2-2v4.23a1,1,0,0,1-1.95,0V63.47l-3-3v6.8a1,1,0,0,1-2,0V58.57l-2.4-2.4v4.76a1,1,0,1,1-2,0V54.22l-7.4-7.4V57.29L44.9,62a1,1,0,0,1-1.38,1.38L40.15,60v3.39l6.18,6.19A1,1,0,0,1,45,71l-4.8-4.81v4.18Z"/><path class="cls-3" d="M21.38,68.76a12.63,12.63,0,0,1-4.72-.86A10.8,10.8,0,0,1,13,65.47a11.11,11.11,0,0,1-2.39-3.72A12.68,12.68,0,0,1,9.75,57a12.54,12.54,0,0,1,.85-4.71A11.07,11.07,0,0,1,13,48.6a10.8,10.8,0,0,1,3.67-2.43,12.63,12.63,0,0,1,4.72-.86,12.52,12.52,0,0,1,4.7.86,11.1,11.1,0,0,1,3.67,2.43,10.94,10.94,0,0,1,2.4,3.71A12.54,12.54,0,0,1,33,57a12.68,12.68,0,0,1-.85,4.73,11,11,0,0,1-2.4,3.72,11.1,11.1,0,0,1-3.67,2.43A12.52,12.52,0,0,1,21.38,68.76Zm0-2.75a8.78,8.78,0,0,0,3.5-.69,8.34,8.34,0,0,0,4.56-4.76,10.26,10.26,0,0,0,0-7.08,8.47,8.47,0,0,0-1.8-2.86,8.11,8.11,0,0,0-2.76-1.88,9.35,9.35,0,0,0-7,0,7.88,7.88,0,0,0-2.75,1.88,8.65,8.65,0,0,0-1.81,2.86,10.11,10.11,0,0,0,0,7.08,8.55,8.55,0,0,0,1.81,2.86,8.21,8.21,0,0,0,2.75,1.9A8.71,8.71,0,0,0,21.38,66Zm8,2-6.12-6.12a1.45,1.45,0,0,1-.47-1,1.47,1.47,0,0,1,.47-1,1.39,1.39,0,0,1,2.08,0L31.45,66a1.55,1.55,0,0,1,.45,1,1.36,1.36,0,0,1-.45,1,1.39,1.39,0,0,1-2.08,0Z"/><path class="cls-3" d="M44.56,68.47A1.5,1.5,0,0,1,43.1,67V49.12L41,50a2.43,2.43,0,0,1-.94.21A1.5,1.5,0,0,1,39,49.82a1.43,1.43,0,0,1-.42-1.06,1.6,1.6,0,0,1,.23-.84,1.34,1.34,0,0,1,.74-.56l4.56-1.64a1.71,1.71,0,0,1,.3-.09l.26,0a1.38,1.38,0,0,1,1.07.43,1.56,1.56,0,0,1,.39,1.1V67a1.4,1.4,0,0,1-.44,1A1.47,1.47,0,0,1,44.56,68.47Z"/><path class="cls-3" d="M55.07,68.47A1.49,1.49,0,0,1,53.57,67,1.46,1.46,0,0,1,54,65.92L62.3,56.2a11.14,11.14,0,0,0,1.36-1.93,3.72,3.72,0,0,0,.48-1.73,5.05,5.05,0,0,0-.44-2.22,3.3,3.3,0,0,0-1.25-1.45,3.68,3.68,0,0,0-2-.52,3.55,3.55,0,0,0-2,.58,4,4,0,0,0-1.41,1.52,4.34,4.34,0,0,0-.51,2.09,1.43,1.43,0,0,1-.43,1,1.41,1.41,0,0,1-1.06.44A1.46,1.46,0,0,1,54,53.57a1.44,1.44,0,0,1-.44-1A7,7,0,0,1,54.48,49,6.75,6.75,0,0,1,57,46.51a6.91,6.91,0,0,1,3.52-.91,6.75,6.75,0,0,1,3.46.85,5.91,5.91,0,0,1,2.27,2.4,8,8,0,0,1,.8,3.69,5,5,0,0,1-.39,1.9,10.34,10.34,0,0,1-1,1.85,16.32,16.32,0,0,1-1.21,1.58L57.7,65.48h8.2A1.54,1.54,0,0,1,67.42,67,1.4,1.4,0,0,1,67,68a1.47,1.47,0,0,1-1.08.44Z"/><path class="cls-3" d="M14.83,28.74C13.22,34,11.4,40,6.54,40a4,4,0,0,1-4.27-3.95c0-2.55,2-4.84,4.21-4.84a2.73,2.73,0,0,1,.85.12.62.62,0,0,1,.44.59.63.63,0,0,1-.79.61,2.15,2.15,0,0,0-.47-.06c-1.61,0-3,1.82-3,3.52a2.75,2.75,0,0,0,3,2.78c4.1,0,5.77-5.92,7.15-10.4a38.21,38.21,0,0,1,2.16-6,4.27,4.27,0,0,1,2.67-2.22.57.57,0,0,1,.73.52.67.67,0,0,1-.5.71,2.9,2.9,0,0,0-1.78,1.58A37.79,37.79,0,0,0,14.83,28.74ZM16.64,42c-2.78,0-4.86-1.46-4.86-3.84a3.09,3.09,0,0,1,3-3.22,3.06,3.06,0,0,1,2.84,2.35.63.63,0,0,1-.56.82.6.6,0,0,1-.58-.41c-.32-.82-.94-1.53-1.7-1.53a1.9,1.9,0,0,0-1.79,2c0,1.76,1.79,2.61,3.63,2.61,5.1,0,7.79-7.35,7.79-12.65,0-4.83-1.84-8.29-6.5-8.52-5.33,0-8.37,4.16-8.43,9.78a.6.6,0,0,1-.62.61.61.61,0,0,1-.61-.61c.06-6.44,3.72-11,9.66-11,5.45.26,7.73,4.25,7.73,9.75C25.66,34.27,22.47,42,16.64,42Z"/><path class="cls-3" d="M40.36,33.6a.71.71,0,0,1-.06.23C38.4,38.05,36.17,40,33.22,40a3.62,3.62,0,0,1-3.84-4c.18-3.75,3.22-9.84,6.68-9.84,1.46,0,2.48.76,2.48,2.17,0,3.1-4.36,5-7.61,5.76A9,9,0,0,0,30.61,36a2.45,2.45,0,0,0,2.64,2.75c2.4.06,4.27-1.64,5.91-5.42A.67.67,0,0,1,40,33,.68.68,0,0,1,40.36,33.6Zm-3-5.3c0-.79-.62-.94-1.26-.94-2,0-3.72,3-4.66,5.3C33.83,31.9,37.32,30.46,37.32,28.3Z"/><path class="cls-3" d="M48.47,33.57a.88.88,0,0,1-.06.26C47,37,45.48,40,43,40a2.13,2.13,0,0,1-2.1-2.46c.08-2.28,2.16-7.64,3.45-11a.59.59,0,0,1,.56-.41.57.57,0,0,1,.58.79c-2.84,8-3.36,9.34-3.36,10.6,0,.85.26,1.23.87,1.23,1.82,0,3.17-3,4.25-5.42a.68.68,0,0,1,.59-.38.71.71,0,0,1,.23.06A.61.61,0,0,1,48.47,33.57Zm-3.34-9.93a1,1,0,0,1,1-1,1,1,0,0,1,0,2A1,1,0,0,1,45.13,23.64Z"/><path class="cls-3" d="M62.88,33.57a.88.88,0,0,1-.06.26c-2,4.42-3.37,6.15-5.36,6.15-1.41,0-2.11-1-2.11-2.46,0-2.75,2.28-6.15,2.28-8.7a1.36,1.36,0,0,0-1.52-1.52c-1.78,0-4,3.95-5,6.44l-2,5.8a.63.63,0,0,1-.79.41.62.62,0,0,1-.38-.79c1.52-4.22,3.37-9.52,4.51-12.65A.6.6,0,0,1,53,26.1a.61.61,0,0,1,.58.82l-.23.59a3.94,3.94,0,0,1,2.72-1.44,2.43,2.43,0,0,1,2.75,2.75c0,2.61-2.28,6.45-2.28,8.7,0,.85.26,1.23.88,1.23,1.38,0,2.43-1.55,4.22-5.42a.63.63,0,0,1,.55-.38.88.88,0,0,1,.27.06A.64.64,0,0,1,62.88,33.57Z"/><path class="cls-3" d="M74.88,33.6a.71.71,0,0,1-.06.23C72.92,38.05,70.69,40,67.74,40a3.61,3.61,0,0,1-3.84-4c.18-3.75,3.22-9.84,6.68-9.84,1.46,0,2.48.76,2.48,2.17,0,3.1-4.36,5-7.61,5.76A9,9,0,0,0,65.13,36a2.45,2.45,0,0,0,2.63,2.75c2.41.06,4.28-1.64,5.92-5.42A.67.67,0,0,1,74.5,33,.68.68,0,0,1,74.88,33.6Zm-3-5.3c0-.79-.62-.94-1.26-.94-2,0-3.72,3-4.66,5.3C68.35,31.9,71.84,30.46,71.84,28.3Z"/><path class="cls-4" d="M26.11,13.71A1.11,1.11,0,1,0,25,12.6,1.11,1.11,0,0,0,26.11,13.71Z"/><path class="cls-4" d="M11.7,45.53a.61.61,0,0,1,1.21,0v1.29a.61.61,0,0,1-1.21,0V45.53Zm3.42,2.21a.61.61,0,0,1,0,1.21H13.83a.61.61,0,0,1,0-1.21Zm-4.34,0a.61.61,0,1,1,0,1.21H9.49a.61.61,0,0,1,0-1.21Zm.92,2.13a.61.61,0,0,1,1.21,0v1.29a.61.61,0,0,1-1.21,0Z"/><path class="cls-4" d="M63,70.92a.6.6,0,0,1,1.2,0v1.29a.6.6,0,1,1-1.2,0V70.92Zm3.41,2.21a.61.61,0,1,1,0,1.21H65.16a.61.61,0,0,1,0-1.21Zm-4.33,0a.61.61,0,0,1,0,1.21h-1.3a.61.61,0,0,1,0-1.21ZM63,75.26a.6.6,0,0,1,1.2,0v1.29a.6.6,0,0,1-1.2,0Z"/><path class="cls-4" d="M58.63,7.51a.6.6,0,1,1,1.2,0V8.8a.6.6,0,1,1-1.2,0V7.51ZM62,9.72a.6.6,0,1,1,0,1.2H60.75a.6.6,0,0,1,0-1.2Zm-4.33,0a.6.6,0,1,1,0,1.2H56.42a.6.6,0,1,1,0-1.2Zm.92,2.12a.6.6,0,0,1,1.2,0v1.29a.6.6,0,1,1-1.2,0Z"/><path class="cls-4" d="M65.79,20.21a1.1,1.1,0,1,0-1.1-1.1A1.11,1.11,0,0,0,65.79,20.21Z"/><path class="cls-4" d="M51.51,75.65a1.1,1.1,0,1,0-1.1-1.1A1.11,1.11,0,0,0,51.51,75.65Z"/><path class="cls-4" d="M9.73,59.27a1.1,1.1,0,1,0-1.11-1.1A1.1,1.1,0,0,0,9.73,59.27Z"/></g></g></svg>