<svg xmlns="http://www.w3.org/2000/svg" viewBox="0 0 77.27 87.36"><defs><style>.cls-1{fill:#b53b3d;}.cls-2,.cls-3{fill:#f5eed8;}.cls-3{fill-rule:evenodd;}</style></defs><g id="Ebene_2" data-name="Ebene 2"><g id="OBJECTS"><rect class="cls-1" width="77.27" height="87.36" rx="6.72"/><path class="cls-2" d="M72,27.25a1.48,1.48,0,0,1-1.07-.45,1.55,1.55,0,0,1-.46-1.11V7L68.22,8a2.5,2.5,0,0,1-1,.22,1.58,1.58,0,0,1-1.12-.43,1.48,1.48,0,0,1-.44-1.1,1.67,1.67,0,0,1,.24-.89,1.4,1.4,0,0,1,.77-.58l4.77-1.72a1.81,1.81,0,0,1,.31-.09l.27,0a1.44,1.44,0,0,1,1.12.45,1.57,1.57,0,0,1,.41,1.14V25.69a1.51,1.51,0,0,1-.46,1.11A1.54,1.54,0,0,1,72,27.25Z" transform="translate(0 -0.36)"/><path class="cls-3" d="M43.82,72.46a.89.89,0,1,1-1.26,1.26L39.83,71v2.65a1.19,1.19,0,0,1-2.38,0V71l-2.73,2.73a.9.9,0,0,1-1.27,0,.89.89,0,0,1,0-1.26l4-4V64.64L33.05,69a.89.89,0,0,1-1.26-1.27l5.66-5.65V59l-3.08,3.08a.9.9,0,0,1-1.27,0,.89.89,0,0,1,0-1.26l4.35-4.34V46.91l-6.78,6.77v6.15a.89.89,0,0,1-1.78,0V55.47l-2.2,2.2v8a.89.89,0,0,1-1.78,0V59.44L22.2,62.15V67.8a.89.89,0,0,1-1.78,0V63.94l-1.87,1.87a1.19,1.19,0,1,1-1.69-1.68l1.88-1.88H14.87a.89.89,0,1,1,0-1.78h5.65l2.71-2.71H17A.89.89,0,1,1,17,56h8l2.19-2.2H22.85a.89.89,0,1,1,0-1.78H29l6.77-6.77H26.18l-4.34,4.34a.89.89,0,0,1-1.26-1.26l3.08-3.08h-3.1L14.9,50.88a.89.89,0,1,1-1.26-1.26L18,45.23H14.21l-4,4A.89.89,0,1,1,9,48l2.73-2.73H9a1.19,1.19,0,0,1,0-2.38h2.65L9,40.11a.89.89,0,0,1,1.26-1.26l4,4H18l-4.39-4.4a.89.89,0,1,1,1.26-1.26l5.66,5.66h3.1l-3.08-3.09a.89.89,0,1,1,1.26-1.26l4.34,4.35h9.58L29,36.07H22.85a.89.89,0,1,1,0-1.78H27.2L25,32.09H17a.89.89,0,0,1,0-1.78h6.22L20.52,27.6H14.87a.89.89,0,1,1,0-1.78h3.87l-1.88-1.88a1.2,1.2,0,0,1,0-1.68,1.21,1.21,0,0,1,1.69,0l1.87,1.87V20.27a.89.89,0,1,1,1.78,0v5.65l2.71,2.71V22.41a.89.89,0,0,1,1.78,0v8l2.2,2.19V28.24a.89.89,0,1,1,1.78,0v6.15l6.78,6.77V31.58L33.1,27.24a.89.89,0,0,1,0-1.26.9.9,0,0,1,1.27,0l3.08,3.08V26L31.79,20.3A.89.89,0,0,1,33.05,19l4.4,4.39V19.6l-4-4a.89.89,0,0,1,0-1.26.9.9,0,0,1,1.27,0l2.73,2.73V14.43a1.19,1.19,0,0,1,2.38,0v2.65l2.73-2.73a.89.89,0,0,1,1.26,1.26l-4,4v3.83L44.22,19a.89.89,0,1,1,1.27,1.26L39.83,26v3.1L42.91,26a.89.89,0,0,1,1.26,1.26l-4.34,4.34v9.58l6.77-6.77V28.24a.9.9,0,0,1,1.79,0V32.6l2.19-2.19v-8a.89.89,0,1,1,1.78,0v6.22l2.71-2.71V20.27a.9.9,0,0,1,1.79,0v3.86l1.87-1.87a1.2,1.2,0,0,1,1.68,0,1.18,1.18,0,0,1,0,1.68l-1.87,1.88H62.4a.89.89,0,0,1,0,1.78H56.75l-2.7,2.71h6.21a.89.89,0,0,1,0,1.78h-8l-2.2,2.2h4.36a.89.89,0,0,1,0,1.78H48.28l-6.77,6.78h9.58l4.34-4.35a.89.89,0,0,1,1.27,1.26l-3.09,3.09h3.11l5.66-5.66a.89.89,0,1,1,1.26,1.26l-4.4,4.4h3.83l4-4a.89.89,0,0,1,1.26,1.26l-2.73,2.74h2.65a1.19,1.19,0,0,1,0,2.38H65.59L68.32,48a.89.89,0,1,1-1.26,1.26l-4-4H59.24l4.4,4.39a.89.89,0,1,1-1.26,1.26l-5.66-5.65H53.61l3.09,3.08a.89.89,0,0,1-1.27,1.26l-4.34-4.34H41.51L48.28,52h6.15a.89.89,0,0,1,0,1.78H50.07l2.2,2.2h8a.89.89,0,0,1,0,1.78H54.05l2.7,2.71H62.4a.89.89,0,0,1,0,1.78H58.54l1.87,1.88a1.19,1.19,0,0,1-1.68,1.68l-1.87-1.87V67.8a.9.9,0,0,1-1.79,0V62.15l-2.71-2.71v6.22a.89.89,0,0,1-1.78,0v-8l-2.19-2.2v4.36a.9.9,0,0,1-1.79,0V53.68l-6.77-6.77v9.58l4.34,4.34a.89.89,0,0,1-1.26,1.26L39.83,59v3.11l5.66,5.65A.9.9,0,1,1,44.22,69l-4.39-4.4v3.83Z" transform="translate(0 -0.36)"/><path class="cls-3" d="M53.09,4.61a.6.6,0,1,1,1.2,0V5.9a.6.6,0,0,1-1.2,0V4.61ZM56.5,6.82a.6.6,0,1,1,0,1.2H55.21a.6.6,0,0,1,0-1.2Zm-4.33,0a.6.6,0,1,1,0,1.2H50.88a.6.6,0,1,1,0-1.2Zm.92,2.12a.6.6,0,0,1,1.2,0v1.29a.6.6,0,1,1-1.2,0Z" transform="translate(0 -0.36)"/><path class="cls-3" d="M24.53,72.64a.6.6,0,1,1,1.2,0v1.29a.6.6,0,1,1-1.2,0V72.64ZM28,74.85a.61.61,0,0,1,0,1.21h-1.3a.61.61,0,0,1,0-1.21Zm-4.34,0a.61.61,0,0,1,0,1.21H22.32a.61.61,0,1,1,0-1.21ZM24.53,77a.6.6,0,0,1,1.2,0v1.29a.6.6,0,0,1-1.2,0Z" transform="translate(0 -0.36)"/><path class="cls-3" d="M37.39,82.73a1.1,1.1,0,1,0-1.1-1.1A1.1,1.1,0,0,0,37.39,82.73Z" transform="translate(0 -0.36)"/><path class="cls-3" d="M70.15,71.39a1.1,1.1,0,1,0-1.1-1.1A1.1,1.1,0,0,0,70.15,71.39Z" transform="translate(0 -0.36)"/><path class="cls-3" d="M25.63,10.92a1.11,1.11,0,1,0-1.1-1.11A1.11,1.11,0,0,0,25.63,10.92Z" transform="translate(0 -0.36)"/><path class="cls-3" d="M8.41,58.79a1.1,1.1,0,1,0-1.1-1.1A1.11,1.11,0,0,0,8.41,58.79Z" transform="translate(0 -0.36)"/></g></g></svg>