<svg xmlns="http://www.w3.org/2000/svg" viewBox="0 0 60.9 86.52"><defs><style>.cls-1{fill:#2f3029;}.cls-2{fill:#57564d;}.cls-2,.cls-5{fill-rule:evenodd;}.cls-3{font-size:30.61px;font-family:Comfortaa-Bold, Comfortaa;font-weight:700;}.cls-3,.cls-4,.cls-5{fill:#f5eed8;}</style></defs><g id="Ebene_2" data-name="Ebene 2"><g id="OBJECTS"><rect class="cls-1" width="60.9" height="86.52" rx="6.72"/><path class="cls-2" d="M54.18,86.52H51.76l-1.33-1.34L49.1,86.52H45.73l3.85-3.86a1.19,1.19,0,0,1,1.69,0l3.79,3.8a6.4,6.4,0,0,1-.88.06Zm-12.38,0H38.44l-1.33-1.34-1.33,1.34H32.41l3.86-3.86a1.18,1.18,0,0,1,1.68,0l3.85,3.86Zm-13.31,0H25.12l-1.33-1.34-1.33,1.34H19.09L23,82.66a1.18,1.18,0,0,1,1.68,0l3.86,3.86Zm-13.32,0H11.8l-1.33-1.34L9.14,86.52H6.72a6.54,6.54,0,0,1-.89-.06l3.8-3.8a1.18,1.18,0,0,1,1.68,0l3.86,3.86ZM0,80.12l3,3a1.18,1.18,0,0,0,1.68,0l5.82-5.82,5.82,5.82a1.18,1.18,0,0,0,1.68,0l5.82-5.82,5.82,5.82a1.18,1.18,0,0,0,1.68,0l5.82-5.82,5.82,5.82a1.18,1.18,0,0,0,1.68,0l5.82-5.82,5.81,5.82a1.19,1.19,0,0,0,1.69,0l3-3c0-.11,0-.22,0-.32v-3l-3.81,3.8-5.82-5.81a1.19,1.19,0,0,0-1.69,0l-5.81,5.81L38,74.74a1.18,1.18,0,0,0-1.68,0l-5.82,5.81-5.82-5.81a1.18,1.18,0,0,0-1.68,0l-5.82,5.81-5.82-5.81a1.18,1.18,0,0,0-1.68,0L3.81,80.55,0,76.75v3c0,.1,0,.21,0,.32Zm0-7.93V68.82l3.81,3.81,5.82-5.82a1.2,1.2,0,0,1,1.68,0l5.82,5.82L23,66.81a1.2,1.2,0,0,1,1.68,0l5.82,5.82,5.82-5.82a1.2,1.2,0,0,1,1.68,0l5.82,5.82,5.81-5.82a1.21,1.21,0,0,1,1.69,0l5.82,5.82,3.81-3.81v3.37l-3,3a1.21,1.21,0,0,1-1.69,0l-5.81-5.82-5.82,5.82a1.2,1.2,0,0,1-1.68,0l-5.82-5.82-5.82,5.82a1.2,1.2,0,0,1-1.68,0l-5.82-5.82L18,75.16a1.2,1.2,0,0,1-1.68,0l-5.82-5.82L4.65,75.16a1.2,1.2,0,0,1-1.68,0l-3-3Zm0-7.92,3,3a1.2,1.2,0,0,0,1.68,0l5.82-5.82,5.82,5.82a1.2,1.2,0,0,0,1.68,0l5.82-5.82,5.82,5.82a1.2,1.2,0,0,0,1.68,0l5.82-5.82,5.82,5.82a1.2,1.2,0,0,0,1.68,0l5.82-5.82,5.81,5.82a1.21,1.21,0,0,0,1.69,0l3-3V60.9l-3.81,3.81-5.82-5.82a1.21,1.21,0,0,0-1.69,0l-5.81,5.82L38,58.89a1.2,1.2,0,0,0-1.68,0l-5.82,5.82-5.82-5.82a1.2,1.2,0,0,0-1.68,0l-5.82,5.82-5.82-5.82a1.2,1.2,0,0,0-1.68,0L3.81,64.71,0,60.9v3.37Zm0-7.93V53l3.81,3.81L9.63,51a1.18,1.18,0,0,1,1.68,0l5.82,5.82L23,51a1.18,1.18,0,0,1,1.68,0l5.82,5.82L36.27,51A1.18,1.18,0,0,1,38,51l5.82,5.82L49.58,51a1.19,1.19,0,0,1,1.69,0l5.82,5.82L60.9,53v3.36l-3,3a1.19,1.19,0,0,1-1.69,0L50.43,53.5l-5.82,5.81a1.18,1.18,0,0,1-1.68,0L37.11,53.5l-5.82,5.81a1.18,1.18,0,0,1-1.68,0L23.79,53.5,18,59.31a1.18,1.18,0,0,1-1.68,0L10.47,53.5,4.65,59.31a1.18,1.18,0,0,1-1.68,0l-3-3Zm0-7.92,3,3a1.18,1.18,0,0,0,1.68,0l5.82-5.82,5.82,5.82a1.18,1.18,0,0,0,1.68,0l5.82-5.82,5.82,5.82a1.18,1.18,0,0,0,1.68,0l5.82-5.82,5.82,5.82a1.18,1.18,0,0,0,1.68,0l5.82-5.82,5.81,5.82a1.19,1.19,0,0,0,1.69,0l3-3V45.05l-3.81,3.82-5.82-5.82a1.19,1.19,0,0,0-1.69,0l-5.81,5.82L38,43.05a1.18,1.18,0,0,0-1.68,0l-5.82,5.82-5.82-5.82a1.18,1.18,0,0,0-1.68,0l-5.82,5.82-5.82-5.82a1.18,1.18,0,0,0-1.68,0L3.81,48.87,0,45.05v3.37ZM0,40.5V37.13l3.81,3.81,5.82-5.82a1.2,1.2,0,0,1,1.68,0l5.82,5.82L23,35.12a1.2,1.2,0,0,1,1.68,0l5.82,5.82,5.82-5.82a1.2,1.2,0,0,1,1.68,0l5.82,5.82,5.81-5.82a1.21,1.21,0,0,1,1.69,0l5.82,5.82,3.81-3.81V40.5l-3,3a1.21,1.21,0,0,1-1.69,0l-5.81-5.82-5.82,5.82a1.2,1.2,0,0,1-1.68,0l-5.82-5.82-5.82,5.82a1.2,1.2,0,0,1-1.68,0l-5.82-5.82L18,43.47a1.2,1.2,0,0,1-1.68,0l-5.82-5.82L4.65,43.47a1.2,1.2,0,0,1-1.68,0l-3-3Zm0-7.92,3,3a1.2,1.2,0,0,0,1.68,0l5.82-5.82,5.82,5.82a1.2,1.2,0,0,0,1.68,0l5.82-5.82,5.82,5.82a1.2,1.2,0,0,0,1.68,0l5.82-5.82,5.82,5.82a1.2,1.2,0,0,0,1.68,0l5.82-5.82,5.81,5.82a1.21,1.21,0,0,0,1.69,0l3-3V29.21L57.09,33,51.27,27.2a1.21,1.21,0,0,0-1.69,0L43.77,33,38,27.2a1.2,1.2,0,0,0-1.68,0L30.45,33,24.63,27.2a1.2,1.2,0,0,0-1.68,0L17.13,33,11.31,27.2a1.2,1.2,0,0,0-1.68,0L3.81,33,0,29.21v3.37Zm0-7.92V21.29L3.81,25.1l5.82-5.82a1.2,1.2,0,0,1,1.68,0l5.82,5.82L23,19.28a1.2,1.2,0,0,1,1.68,0l5.82,5.82,5.82-5.82a1.2,1.2,0,0,1,1.68,0l5.82,5.82,5.81-5.82a1.21,1.21,0,0,1,1.69,0l5.82,5.82,3.81-3.81v3.37l-3,3a1.19,1.19,0,0,1-1.69,0l-5.81-5.81-5.82,5.81a1.18,1.18,0,0,1-1.68,0l-5.82-5.81-5.82,5.81a1.18,1.18,0,0,1-1.68,0l-5.82-5.81L18,27.62a1.18,1.18,0,0,1-1.68,0l-5.82-5.81L4.65,27.62a1.18,1.18,0,0,1-1.68,0l-3-3Zm0-7.93,3,3a1.18,1.18,0,0,0,1.68,0l5.82-5.82,5.82,5.82a1.18,1.18,0,0,0,1.68,0l5.82-5.82,5.82,5.82a1.18,1.18,0,0,0,1.68,0l5.82-5.82,5.82,5.82a1.18,1.18,0,0,0,1.68,0l5.82-5.82,5.81,5.82a1.19,1.19,0,0,0,1.69,0l3-3V13.37l-3.81,3.81-5.82-5.82a1.19,1.19,0,0,0-1.69,0l-5.81,5.82L38,11.36a1.18,1.18,0,0,0-1.68,0l-5.82,5.82-5.82-5.82a1.18,1.18,0,0,0-1.68,0l-5.82,5.82-5.82-5.82a1.18,1.18,0,0,0-1.68,0L3.81,17.18,0,13.37v3.36ZM0,8.81V6.72A7.49,7.49,0,0,1,.1,5.55l3.71,3.7L9.63,3.44a1.18,1.18,0,0,1,1.68,0l5.82,5.81L23,3.44a1.18,1.18,0,0,1,1.68,0l5.82,5.81,5.82-5.81a1.18,1.18,0,0,1,1.68,0l5.82,5.81,5.81-5.81a1.19,1.19,0,0,1,1.69,0l5.82,5.81,3.7-3.7a6.45,6.45,0,0,1,.11,1.17V8.81l-3,3a1.21,1.21,0,0,1-1.69,0L50.43,6l-5.82,5.82a1.2,1.2,0,0,1-1.68,0L37.11,6l-5.82,5.82a1.2,1.2,0,0,1-1.68,0L23.79,6,18,11.78a1.2,1.2,0,0,1-1.68,0L10.47,6,4.65,11.78a1.2,1.2,0,0,1-1.68,0l-3-3ZM1.55,2.44,3,3.86a1.2,1.2,0,0,0,1.68,0L8.51,0H6.72A6.6,6.6,0,0,0,4.88.26L3.81,1.33,3.38.9A6.61,6.61,0,0,0,1.55,2.44ZM12.43,0l3.86,3.86a1.2,1.2,0,0,0,1.68,0L21.83,0H18.46L17.13,1.33,15.8,0ZM25.75,0l3.86,3.86a1.2,1.2,0,0,0,1.68,0L35.14,0H31.78L30.45,1.33,29.12,0ZM39.07,0l3.86,3.86a1.2,1.2,0,0,0,1.68,0L48.46,0H45.1L43.77,1.33,42.44,0ZM52.39,0l3.85,3.86a1.21,1.21,0,0,0,1.69,0l1.42-1.42A6.76,6.76,0,0,0,57.52.9l-.43.43L56,.26A6.53,6.53,0,0,0,54.18,0Z"/><text class="cls-3" transform="translate(23.55 53.95)">3</text><circle class="cls-4" cx="44.61" cy="10.68" r="1.1"/><path class="cls-5" d="M46.42,73.35a1.11,1.11,0,1,0-1.1-1.11A1.11,1.11,0,0,0,46.42,73.35Z"/><path class="cls-5" d="M7.56,56.4a1.1,1.1,0,1,0-1.1-1.1A1.1,1.1,0,0,0,7.56,56.4Z"/><path class="cls-5" d="M22.64,29.88a1.11,1.11,0,1,0-1.1-1.1A1.1,1.1,0,0,0,22.64,29.88Z"/><path class="cls-5" d="M9.26,9.55a.61.61,0,1,1,1.21,0v1.29a.61.61,0,0,1-1.21,0V9.55Zm3.42,2.21a.6.6,0,0,1,0,1.2H11.39a.6.6,0,0,1,0-1.2Zm-4.34,0a.6.6,0,1,1,0,1.2H7.05a.6.6,0,0,1,0-1.2Zm.92,2.12a.61.61,0,0,1,1.21,0v1.29a.61.61,0,1,1-1.21,0Z"/><path class="cls-5" d="M53,33.7a.61.61,0,1,1,1.21,0V35A.61.61,0,0,1,53,35V33.7Zm3.42,2.21a.6.6,0,0,1,0,1.2H55.1a.6.6,0,0,1,0-1.2Zm-4.34,0a.6.6,0,0,1,0,1.2H50.76a.6.6,0,0,1,0-1.2ZM53,38a.61.61,0,0,1,1.21,0v1.3a.61.61,0,0,1-1.21,0Z"/><path class="cls-5" d="M21.74,70.4a.61.61,0,0,1,1.21,0v1.29a.61.61,0,0,1-1.21,0V70.4Zm3.42,2.21a.61.61,0,0,1,0,1.21H23.87a.61.61,0,0,1,0-1.21Zm-4.34,0a.61.61,0,0,1,0,1.21H19.53a.61.61,0,0,1,0-1.21Zm.92,2.13a.61.61,0,1,1,1.21,0V76a.61.61,0,0,1-1.21,0Z"/></g></g></svg>