<svg xmlns="http://www.w3.org/2000/svg" viewBox="0 0 82.33 87.35"><defs><style>.cls-1{fill:#b53b3d;}.cls-2{fill:#bf5f5c;fill-rule:evenodd;}.cls-3{fill:#f5eed8;}</style></defs><g id="Ebene_2" data-name="Ebene 2"><g id="OBJECTS"><rect class="cls-1" width="77.27" height="87.35" rx="6.72"/><path class="cls-2" d="M70.18,87.35H66.82l4.27-4.27a1.19,1.19,0,0,1,1.69,0l2.41,2.41a6.89,6.89,0,0,1-2,1.34L71.93,85.6l-1.75,1.75Zm-6.45,0H60.37L58.62,85.6l-1.75,1.75H53.5l4.27-4.27a1.19,1.19,0,0,1,1.69,0l4.27,4.27Zm-13.32,0H47.05L45.3,85.6l-1.75,1.75H40.18l4.28-4.27a1.18,1.18,0,0,1,1.68,0l4.27,4.27Zm-13.31,0H33.73L32,85.6l-1.75,1.75H26.86l4.28-4.27a1.18,1.18,0,0,1,1.68,0l4.28,4.27Zm-13.32,0H20.41L18.66,85.6l-1.75,1.75H13.54l4.28-4.27a1.18,1.18,0,0,1,1.68,0l4.28,4.27Zm-13.32,0H7.09L5.34,85.6,4.12,86.83a6.64,6.64,0,0,1-2-1.34L4.5,83.08a1.18,1.18,0,0,1,1.68,0l4.28,4.27ZM.33,82.7l5-5,5.82,5.82a1.2,1.2,0,0,0,1.68,0l5.82-5.82,5.82,5.82a1.2,1.2,0,0,0,1.68,0L32,77.68,37.8,83.5a1.2,1.2,0,0,0,1.68,0l5.82-5.82,5.81,5.82a1.21,1.21,0,0,0,1.69,0l5.82-5.82,5.81,5.82a1.21,1.21,0,0,0,1.69,0l5.81-5.82,5,5a6.74,6.74,0,0,0,.32-2.07v-1l-4.49-4.5a1.19,1.19,0,0,0-1.69,0L65.28,81l-5.82-5.81a1.19,1.19,0,0,0-1.69,0L52,81l-5.82-5.81a1.18,1.18,0,0,0-1.68,0L38.64,81l-5.82-5.81a1.18,1.18,0,0,0-1.68,0L25.32,81,19.5,75.16a1.18,1.18,0,0,0-1.68,0L12,81,6.18,75.16a1.18,1.18,0,0,0-1.68,0L0,79.66v1A6.46,6.46,0,0,0,.33,82.7ZM0,75.1V71.73l4.5-4.5a1.2,1.2,0,0,1,1.68,0L12,73.05l5.82-5.82a1.2,1.2,0,0,1,1.68,0l5.82,5.82,5.82-5.82a1.2,1.2,0,0,1,1.68,0l5.82,5.82,5.82-5.82a1.2,1.2,0,0,1,1.68,0L52,73.05l5.81-5.82a1.21,1.21,0,0,1,1.69,0l5.82,5.82,5.81-5.82a1.21,1.21,0,0,1,1.69,0l4.49,4.5V75.1l-5.34-5.34-5.81,5.82a1.21,1.21,0,0,1-1.69,0l-5.81-5.82L52.8,75.58a1.21,1.21,0,0,1-1.69,0L45.3,69.76l-5.82,5.82a1.2,1.2,0,0,1-1.68,0L32,69.76l-5.82,5.82a1.2,1.2,0,0,1-1.68,0l-5.82-5.82-5.82,5.82a1.2,1.2,0,0,1-1.68,0L5.34,69.76,0,75.1Zm0-7.92,5.34-5.34,5.82,5.82a1.2,1.2,0,0,0,1.68,0l5.82-5.82,5.82,5.82a1.2,1.2,0,0,0,1.68,0L32,61.84l5.82,5.82a1.2,1.2,0,0,0,1.68,0l5.82-5.82,5.81,5.82a1.21,1.21,0,0,0,1.69,0l5.82-5.82,5.81,5.82a1.21,1.21,0,0,0,1.69,0l5.81-5.82,5.34,5.34V63.81l-4.49-4.5a1.21,1.21,0,0,0-1.69,0l-5.81,5.82-5.82-5.82a1.21,1.21,0,0,0-1.69,0L52,65.13l-5.82-5.82a1.2,1.2,0,0,0-1.68,0l-5.82,5.82-5.82-5.82a1.2,1.2,0,0,0-1.68,0l-5.82,5.82L19.5,59.31a1.2,1.2,0,0,0-1.68,0L12,65.13,6.18,59.31a1.2,1.2,0,0,0-1.68,0L0,63.81v3.37Zm0-7.93V55.89l4.5-4.5a1.2,1.2,0,0,1,1.68,0L12,57.21l5.82-5.82a1.2,1.2,0,0,1,1.68,0l5.82,5.82,5.82-5.82a1.2,1.2,0,0,1,1.68,0l5.82,5.82,5.82-5.82a1.2,1.2,0,0,1,1.68,0L52,57.21l5.81-5.82a1.21,1.21,0,0,1,1.69,0l5.82,5.82,5.81-5.82a1.21,1.21,0,0,1,1.69,0l4.49,4.5v3.36l-5.34-5.34-5.81,5.82a1.19,1.19,0,0,1-1.69,0l-5.81-5.82L52.8,59.73a1.19,1.19,0,0,1-1.69,0L45.3,53.91l-5.82,5.82a1.18,1.18,0,0,1-1.68,0L32,53.91l-5.82,5.82a1.18,1.18,0,0,1-1.68,0l-5.82-5.82-5.82,5.82a1.18,1.18,0,0,1-1.68,0L5.34,53.91,0,59.25Zm0-7.92L5.34,46l5.82,5.82a1.18,1.18,0,0,0,1.68,0L18.66,46l5.82,5.82a1.18,1.18,0,0,0,1.68,0L32,46l5.82,5.82a1.18,1.18,0,0,0,1.68,0L45.3,46l5.81,5.82a1.19,1.19,0,0,0,1.69,0L58.62,46l5.81,5.82a1.19,1.19,0,0,0,1.69,0L71.93,46l5.34,5.34V48l-4.49-4.5a1.19,1.19,0,0,0-1.69,0l-5.81,5.82-5.82-5.82a1.19,1.19,0,0,0-1.69,0L52,49.29l-5.82-5.82a1.18,1.18,0,0,0-1.68,0l-5.82,5.82-5.82-5.82a1.18,1.18,0,0,0-1.68,0l-5.82,5.82L19.5,43.47a1.18,1.18,0,0,0-1.68,0L12,49.29,6.18,43.47a1.18,1.18,0,0,0-1.68,0L0,48v3.36Zm0-7.92V40l4.5-4.49a1.18,1.18,0,0,1,1.68,0L12,41.36l5.82-5.81a1.18,1.18,0,0,1,1.68,0l5.82,5.81,5.82-5.81a1.18,1.18,0,0,1,1.68,0l5.82,5.81,5.82-5.81a1.18,1.18,0,0,1,1.68,0L52,41.36l5.81-5.81a1.19,1.19,0,0,1,1.69,0l5.82,5.81,5.81-5.81a1.19,1.19,0,0,1,1.69,0L77.27,40v3.37l-5.34-5.34-5.81,5.82a1.21,1.21,0,0,1-1.69,0l-5.81-5.82L52.8,43.89a1.21,1.21,0,0,1-1.69,0L45.3,38.07l-5.82,5.82a1.2,1.2,0,0,1-1.68,0L32,38.07l-5.82,5.82a1.2,1.2,0,0,1-1.68,0l-5.82-5.82-5.82,5.82a1.2,1.2,0,0,1-1.68,0L5.34,38.07,0,43.41Zm0-7.92,5.34-5.34L11.16,36a1.2,1.2,0,0,0,1.68,0l5.82-5.82L24.48,36a1.2,1.2,0,0,0,1.68,0L32,30.15,37.8,36a1.2,1.2,0,0,0,1.68,0l5.82-5.82L51.11,36a1.21,1.21,0,0,0,1.69,0l5.82-5.82L64.43,36a1.21,1.21,0,0,0,1.69,0l5.81-5.82,5.34,5.34V32.12l-4.49-4.5a1.21,1.21,0,0,0-1.69,0l-5.81,5.82-5.82-5.82a1.21,1.21,0,0,0-1.69,0L52,33.44l-5.82-5.82a1.2,1.2,0,0,0-1.68,0l-5.82,5.82-5.82-5.82a1.2,1.2,0,0,0-1.68,0l-5.82,5.82L19.5,27.62a1.2,1.2,0,0,0-1.68,0L12,33.44,6.18,27.62a1.2,1.2,0,0,0-1.68,0L0,32.12v3.37Zm0-7.92V24.2l4.5-4.5a1.2,1.2,0,0,1,1.68,0L12,25.52l5.82-5.82a1.2,1.2,0,0,1,1.68,0l5.82,5.82,5.82-5.82a1.2,1.2,0,0,1,1.68,0l5.82,5.82,5.82-5.82a1.2,1.2,0,0,1,1.68,0L52,25.52l5.81-5.82a1.21,1.21,0,0,1,1.69,0l5.82,5.82,5.81-5.82a1.21,1.21,0,0,1,1.69,0l4.49,4.5v3.37l-5.34-5.34L66.12,28a1.19,1.19,0,0,1-1.69,0l-5.81-5.81L52.8,28a1.19,1.19,0,0,1-1.69,0L45.3,22.23,39.48,28a1.18,1.18,0,0,1-1.68,0L32,22.23,26.16,28a1.18,1.18,0,0,1-1.68,0l-5.82-5.81L12.84,28a1.18,1.18,0,0,1-1.68,0L5.34,22.23,0,27.57Zm0-7.93L5.34,14.3l5.82,5.82a1.18,1.18,0,0,0,1.68,0l5.82-5.82,5.82,5.82a1.18,1.18,0,0,0,1.68,0L32,14.3l5.82,5.82a1.18,1.18,0,0,0,1.68,0L45.3,14.3l5.81,5.82a1.19,1.19,0,0,0,1.69,0l5.82-5.82,5.81,5.82a1.19,1.19,0,0,0,1.69,0l5.81-5.82,5.34,5.34V16.28l-4.49-4.5a1.19,1.19,0,0,0-1.69,0L65.28,17.6l-5.82-5.82a1.19,1.19,0,0,0-1.69,0L52,17.6l-5.82-5.82a1.18,1.18,0,0,0-1.68,0L38.64,17.6l-5.82-5.82a1.18,1.18,0,0,0-1.68,0L25.32,17.6,19.5,11.78a1.18,1.18,0,0,0-1.68,0L12,17.6,6.18,11.78a1.18,1.18,0,0,0-1.68,0L0,16.28v3.36Zm0-7.92V8.35L4.5,3.86a1.18,1.18,0,0,1,1.68,0L12,9.67l5.82-5.81a1.18,1.18,0,0,1,1.68,0l5.82,5.81,5.82-5.81a1.18,1.18,0,0,1,1.68,0l5.82,5.81,5.82-5.81a1.18,1.18,0,0,1,1.68,0L52,9.67l5.81-5.81a1.19,1.19,0,0,1,1.69,0l5.82,5.81,5.81-5.81a1.19,1.19,0,0,1,1.69,0l4.49,4.49v3.37L71.93,6.38,66.12,12.2a1.21,1.21,0,0,1-1.69,0L58.62,6.38,52.8,12.2a1.21,1.21,0,0,1-1.69,0L45.3,6.38,39.48,12.2a1.2,1.2,0,0,1-1.68,0L32,6.38,26.16,12.2a1.2,1.2,0,0,1-1.68,0L18.66,6.38,12.84,12.2a1.2,1.2,0,0,1-1.68,0L5.34,6.38,0,11.72ZM6.88,0l4.28,4.28a1.2,1.2,0,0,0,1.68,0L17.12,0H13.75L12,1.75,10.25,0ZM20.2,0l4.28,4.28a1.2,1.2,0,0,0,1.68,0L30.44,0H27.07L25.32,1.75,23.57,0ZM33.52,0,37.8,4.28a1.2,1.2,0,0,0,1.68,0L43.75,0H40.39L38.64,1.75,36.89,0ZM46.84,0l4.27,4.28a1.21,1.21,0,0,0,1.69,0L57.07,0H53.71L52,1.75,50.21,0ZM60.16,0l4.27,4.28a1.21,1.21,0,0,0,1.69,0L70.39,0H67L65.28,1.75,63.52,0Z"/><path class="cls-3" d="M26.3,68.89a3.45,3.45,0,0,1-2.52-1.08,3.53,3.53,0,0,1-1.08-2.59V21.34l-5.25,2.23a6,6,0,0,1-2.3.5,3.64,3.64,0,0,1-2.63-1,3.48,3.48,0,0,1-1-2.59,3.93,3.93,0,0,1,.57-2.09A3.39,3.39,0,0,1,13.85,17l11.22-4a4.89,4.89,0,0,1,.72-.21,3.21,3.21,0,0,1,.65-.07,3.41,3.41,0,0,1,2.63,1,3.84,3.84,0,0,1,1,2.7V65.22A3.53,3.53,0,0,1,29,67.81,3.62,3.62,0,0,1,26.3,68.89Z"/><path class="cls-3" d="M65.42,68.89a17.48,17.48,0,0,1-8.81-2.19,15.64,15.64,0,0,1-6-6,17.73,17.73,0,0,1-2.16-8.82A17.83,17.83,0,0,1,50.6,43a15.67,15.67,0,0,1,6-6.05,17.48,17.48,0,0,1,8.81-2.19,17.31,17.31,0,0,1,8.78,2.19,15.77,15.77,0,0,1,6,6.05,17.83,17.83,0,0,1,2.16,8.88,17.73,17.73,0,0,1-2.16,8.82,15.75,15.75,0,0,1-6,6A17.31,17.31,0,0,1,65.42,68.89ZM50.82,42.63,67.51,14.79a3.82,3.82,0,0,1,3.31-2,3.75,3.75,0,0,1,2.51.86,3.69,3.69,0,0,1,1.26,2.16,3.53,3.53,0,0,1-.54,2.59l-10.21,17ZM65.35,62.42a10.17,10.17,0,0,0,5.21-1.33,9.46,9.46,0,0,0,3.57-3.74,12.48,12.48,0,0,0,0-11.05,9.73,9.73,0,0,0-3.57-3.74,10.68,10.68,0,0,0-10.43,0,9.46,9.46,0,0,0-3.52,3.74,12.74,12.74,0,0,0,0,11.05,9.2,9.2,0,0,0,3.52,3.74A10.18,10.18,0,0,0,65.35,62.42Z"/></g></g></svg>