<svg xmlns="http://www.w3.org/2000/svg" viewBox="0 0 60.9 50.4"><defs><style>.cls-1{fill:#b7c7b1;}.cls-2{fill:#94a892;fill-rule:evenodd;}.cls-3{fill:#f5eed8;}</style></defs><g id="Ebene_2" data-name="Ebene 2"><g id="OBJECTS"><rect class="cls-1" width="60.9" height="50.4" rx="6.72"/><path class="cls-2" d="M54.18,51h-.31l7-7v.3A6.74,6.74,0,0,1,54.18,51Zm-6.62,0L60.9,37.63V32.58L42.51,51ZM36.19,51,60.9,26.27V21.22L31.14,51ZM24.82,51,60.9,14.9V9.85L19.77,51ZM13.46,51,60.17,4.26a6.74,6.74,0,0,0-2.41-2.64L8.41,51Zm-10.32-1A6.83,6.83,0,0,1,.73,47.28L47.44.57h5.05L3.14,49.93ZM0,41.7V36.65L36.07.57h5L0,41.7ZM0,30.33v-5L24.7.57h5.05L0,30.33ZM0,19V13.91L13.34.57h5.05L0,19ZM0,7.6l7-7h-.3A6.74,6.74,0,0,0,0,7.29Z" transform="translate(0 -0.57)"/><path class="cls-3" d="M33.53,42.49a10.68,10.68,0,0,1-9.6-5.61A11.91,11.91,0,0,1,22.49,31a11.13,11.13,0,0,1,1.44-5.66,10.38,10.38,0,0,1,3.94-3.95A11.25,11.25,0,0,1,33.53,20a11.15,11.15,0,0,1,5.64,1.43A10.7,10.7,0,0,1,44.52,31a11.81,11.81,0,0,1-1.46,5.85A11.11,11.11,0,0,1,39.12,41,10.61,10.61,0,0,1,33.53,42.49Zm0-19a9.69,9.69,0,0,1-4.85-1.2,9.07,9.07,0,0,1-3.37-3.22,8.63,8.63,0,0,1-1.24-4.61,9.3,9.3,0,0,1,4.61-8.24,9.33,9.33,0,0,1,4.85-1.27,9.13,9.13,0,0,1,4.85,1.2,9.28,9.28,0,0,1,3.37,3.39,9.4,9.4,0,0,1,1.19,4.92,8.63,8.63,0,0,1-1.24,4.61,9.07,9.07,0,0,1-3.37,3.22A9.61,9.61,0,0,1,33.53,23.48Zm0,14.62a5.52,5.52,0,0,0,3.18-1,6.88,6.88,0,0,0,2.22-2.55A7.8,7.8,0,0,0,39.74,31,6.64,6.64,0,0,0,39,27.61a6.31,6.31,0,0,0-2.22-2.39,6.29,6.29,0,0,0-6.42,0,6.23,6.23,0,0,0-2.25,2.39A7.08,7.08,0,0,0,27.27,31a7.92,7.92,0,0,0,.79,3.56,6.38,6.38,0,0,0,2.22,2.55A5.72,5.72,0,0,0,33.53,38.1Zm0-18.59a4.13,4.13,0,0,0,2.39-.71,5.27,5.27,0,0,0,1.67-1.89,5.51,5.51,0,0,0,.62-2.6,4.76,4.76,0,0,0-.57-2.53A4.71,4.71,0,0,0,36,10a4.55,4.55,0,0,0-2.43-.64,4.49,4.49,0,0,0-3.35,1.38,5.06,5.06,0,0,0-1.38,3.54A5.21,5.21,0,0,0,30.11,18,4.42,4.42,0,0,0,33.53,19.51Z" transform="translate(0 -0.57)"/></g></g></svg>