<svg xmlns="http://www.w3.org/2000/svg" viewBox="0 0 77.59 87.35"><defs><style>.cls-1{fill:#2f3029;}.cls-2,.cls-4{fill:#f5eed8;}.cls-2,.cls-3{fill-rule:evenodd;}.cls-3{fill:#94a892;}</style></defs><g id="Ebene_2" data-name="Ebene 2"><g id="OBJECTS"><rect class="cls-1" width="77.28" height="87.35" rx="6.72"/><path class="cls-2" d="M11.49,34.08a5.41,5.41,0,1,1-5.42,5.41A5.41,5.41,0,0,1,11.49,34.08Z"/><path class="cls-2" d="M56.29,57.53A4.88,4.88,0,0,1,57.5,62S61,64.7,60.27,67.87s-2,3.51-2,3.51-.11,4.09-3.41,3.62a5.74,5.74,0,0,1-7.8,1.42s-5.46,5.94-10.31,1.09a3,3,0,0,1-4-.3s-5.07,3.33-7.94-1.46a2.08,2.08,0,0,1-3.12-1s-6.77,1.45-6.71-6c0,0-1.43-2.36-.85-4.31C15.35,50,48.69,49.39,56.29,57.53Z"/><path class="cls-3" d="M57.53,64.57s5.25-21.73-7.77-36.22S14.9,25.62,10.7,34.44s5,3.36,5,3.36-6.09,20,1.58,26.25S46.3,71.5,57.53,64.57Z"/><path class="cls-2" d="M35.12,61.13a.42.42,0,0,0,.59.59L37,60.45v1.23a.56.56,0,0,0,1.11,0V60.45l1.27,1.27a.42.42,0,0,0,.59,0,.4.4,0,0,0,0-.59l-1.86-1.86V57.49l2,2a.42.42,0,1,0,.59-.59l-2.64-2.64V54.87l1.44,1.43a.42.42,0,0,0,.59-.59l-2-2V49.23l3.16,3.15v2.87a.41.41,0,0,0,.41.41.41.41,0,0,0,.42-.41v-2l1,1V58a.42.42,0,1,0,.83,0V55.07l1.26,1.26V59a.41.41,0,0,0,.42.41A.41.41,0,0,0,46,59v-1.8l.88.87a.55.55,0,0,0,.78-.78l-.87-.87h1.8a.42.42,0,0,0,0-.84H46l-1.27-1.26h2.9a.41.41,0,1,0,0-.82H43.89l-1-1h2a.41.41,0,0,0,.42-.41.42.42,0,0,0-.42-.42H42l-3.15-3.15h4.46l2,2a.42.42,0,0,0,.59-.59l-1.44-1.43H46l2.63,2.63a.42.42,0,0,0,.59-.59l-2-2h1.79l1.86,1.86a.41.41,0,0,0,.58,0,.4.4,0,0,0,0-.59l-1.27-1.27h1.24a.56.56,0,0,0,0-1.11H50.09l1.27-1.27a.4.4,0,0,0,0-.59.41.41,0,0,0-.58,0l-1.86,1.86H47.13l2-2.05a.42.42,0,0,0-.59-.59L46,47.34H44.51L46,45.9a.41.41,0,0,0,0-.58.41.41,0,0,0-.59,0l-2,2H38.88L42,44.18h2.86a.41.41,0,0,0,.42-.41.42.42,0,0,0-.42-.42h-2l1-1h3.72a.42.42,0,0,0,0-.83h-2.9L46,40.24h2.63a.42.42,0,0,0,.41-.42.41.41,0,0,0-.41-.41h-1.8l.87-.87a.56.56,0,0,0,0-.79.56.56,0,0,0-.78,0l-.88.87V36.83a.41.41,0,0,0-.41-.42.42.42,0,0,0-.42.42v2.63l-1.26,1.26v-2.9a.42.42,0,0,0-.83,0v3.72l-1,1v-2a.42.42,0,0,0-.42-.42.41.41,0,0,0-.41.42V43.4l-3.16,3.15V42.09l2-2a.42.42,0,1,0-.59-.59l-1.44,1.44V39.47l2.64-2.63a.42.42,0,1,0-.59-.59l-2,2V36.51L40,34.66a.4.4,0,0,0,0-.59.42.42,0,0,0-.59,0l-1.27,1.27V34.11a.56.56,0,1,0-1.11,0v1.23l-1.27-1.27a.42.42,0,1,0-.59.59L37,36.51V38.3l-2-2a.42.42,0,1,0-.59.59L37,39.47v1.45l-1.43-1.44a.42.42,0,1,0-.59.59l2,2v4.46L33.83,43.4V40.54a.42.42,0,1,0-.83,0v2l-1-1V37.82a.41.41,0,0,0-.42-.41.41.41,0,0,0-.41.41v2.9l-1.26-1.26V36.83a.42.42,0,1,0-.84,0v1.79l-.87-.87a.56.56,0,0,0-.78,0,.56.56,0,0,0,0,.79l.87.87h-1.8a.41.41,0,0,0-.41.41.41.41,0,0,0,.41.42H29.1l1.26,1.26H27.47a.42.42,0,1,0,0,.83h3.72l1,1h-2a.42.42,0,0,0-.42.42.41.41,0,0,0,.42.41h2.86l3.15,3.16H31.74l-2-2a.4.4,0,0,0-.59,0,.41.41,0,0,0,0,.58l1.43,1.44H29.12L26.48,44.7a.41.41,0,0,0-.58,0,.4.4,0,0,0,0,.59l2,2.05H26.16L24.3,45.48a.42.42,0,0,0-.59.59L25,47.34H23.75a.56.56,0,0,0,0,1.11H25l-1.28,1.27a.42.42,0,0,0,.59.59l1.86-1.86h1.78l-2,2a.4.4,0,0,0,0,.59.41.41,0,0,0,.58,0l2.64-2.63h1.44l-1.43,1.43a.42.42,0,0,0,.59.59l2-2H36.2L33.05,51.6H30.19a.42.42,0,0,0-.42.42.41.41,0,0,0,.42.41h2l-1,1H27.47a.41.41,0,1,0,0,.82h2.89L29.1,55.54H26.47a.42.42,0,0,0,0,.84h1.8l-.87.87a.55.55,0,0,0,.78.78l.87-.87V59a.42.42,0,0,0,.84,0V56.33l1.26-1.26V58a.41.41,0,0,0,.41.42A.42.42,0,0,0,32,58V54.24l1-1v2a.42.42,0,0,0,.83,0V52.38L37,49.23v4.46l-2,2a.42.42,0,0,0,.59.59L37,54.87v1.44L34.35,59a.42.42,0,1,0,.59.59l2-2v1.78Z"/><path class="cls-4" d="M57.3,23.59a1.24,1.24,0,0,1-.91-.39,1.27,1.27,0,0,1-.39-.93V6.41l-1.9.81a2.18,2.18,0,0,1-.83.18,1.32,1.32,0,0,1-1-.36,1.27,1.27,0,0,1-.38-.94,1.37,1.37,0,0,1,.21-.75,1.23,1.23,0,0,1,.65-.5L56.86,3.4a1.12,1.12,0,0,1,.26-.08l.23,0a1.23,1.23,0,0,1,.95.38,1.39,1.39,0,0,1,.35,1V22.27a1.27,1.27,0,0,1-.39.93A1.3,1.3,0,0,1,57.3,23.59Z"/><path class="cls-4" d="M66.63,23.59a1.25,1.25,0,0,1-.95-.39,1.3,1.3,0,0,1-.38-.93,1.28,1.28,0,0,1,.36-.94l7.39-8.63A9.29,9.29,0,0,0,74.25,11a3.24,3.24,0,0,0,.43-1.54,4.58,4.58,0,0,0-.39-2,3,3,0,0,0-1.11-1.29,3.28,3.28,0,0,0-1.75-.45,3.32,3.32,0,0,0-1.78.5A3.62,3.62,0,0,0,68.41,7.6,3.76,3.76,0,0,0,68,9.45a1.23,1.23,0,0,1-.38.91,1.24,1.24,0,0,1-.94.39,1.28,1.28,0,0,1-.94-.39,1.24,1.24,0,0,1-.39-.91,6.13,6.13,0,0,1,.81-3.15A5.93,5.93,0,0,1,68.3,4.1a6.11,6.11,0,0,1,3.13-.81,6,6,0,0,1,3.07.76,5.13,5.13,0,0,1,2,2.13,7.1,7.1,0,0,1,.71,3.27,4.49,4.49,0,0,1-.35,1.69A9,9,0,0,1,76,12.78a15.5,15.5,0,0,1-1.08,1.4l-6,6.76h7.27a1.35,1.35,0,0,1,1.35,1.33,1.27,1.27,0,0,1-.39.93,1.3,1.3,0,0,1-1,.39Z"/><path class="cls-2" d="M74.09,61.11A1.1,1.1,0,1,0,73,60,1.1,1.1,0,0,0,74.09,61.11Z"/><path class="cls-2" d="M19.07,14.5A1.11,1.11,0,1,0,18,13.39,1.11,1.11,0,0,0,19.07,14.5Z"/><path class="cls-2" d="M39.65,10.27a.6.6,0,1,1,1.2,0v1.29a.6.6,0,1,1-1.2,0V10.27Zm3.42,2.21a.6.6,0,1,1,0,1.2h-1.3a.6.6,0,0,1,0-1.2Zm-4.34,0a.6.6,0,1,1,0,1.2H37.44a.6.6,0,1,1,0-1.2Zm.92,2.12a.6.6,0,0,1,1.2,0v1.29a.6.6,0,1,1-1.2,0Z"/><path class="cls-2" d="M6.47,53.94a.61.61,0,0,1,1.21,0v1.29a.61.61,0,1,1-1.21,0V53.94Zm3.42,2.22a.6.6,0,0,1,.6.6.6.6,0,0,1-.6.6H8.6a.6.6,0,0,1-.61-.6.6.6,0,0,1,.61-.6Zm-4.34,0a.6.6,0,0,1,.6.6.6.6,0,0,1-.6.6H4.26a.6.6,0,0,1-.6-.6.6.6,0,0,1,.6-.6Zm.92,2.12a.61.61,0,0,1,1.21,0v1.29a.61.61,0,0,1-1.21,0Z"/><path class="cls-2" d="M64,42.6a.6.6,0,0,1,1.2,0v1.29a.6.6,0,1,1-1.2,0V42.6Zm3.41,2.22a.6.6,0,0,1,.61.6.6.6,0,0,1-.61.6H66.13a.6.6,0,0,1-.6-.6.6.6,0,0,1,.6-.6Zm-4.33,0a.6.6,0,0,1,.6.6.6.6,0,0,1-.6.6h-1.3a.6.6,0,0,1-.6-.6.6.6,0,0,1,.6-.6ZM64,46.94a.6.6,0,0,1,1.2,0v1.29a.6.6,0,1,1-1.2,0Z"/></g></g></svg>