<svg xmlns="http://www.w3.org/2000/svg" viewBox="0 0 77.28 87.35"><defs><style>.cls-1,.cls-5{fill:#b53b3d;}.cls-2,.cls-7{fill:#f5eed8;}.cls-3,.cls-4{fill:#2f3029;}.cls-4,.cls-5,.cls-6,.cls-7{fill-rule:evenodd;}.cls-6{fill:#94a892;}</style></defs><g id="Ebene_2" data-name="Ebene 2"><g id="OBJECTS"><rect class="cls-1" width="77.28" height="87.35" rx="6.72"/><path class="cls-2" d="M10.12,22.19a1.15,1.15,0,0,1-.84-.36A1.19,1.19,0,0,1,8.92,21V6.3l-1.75.75a2.07,2.07,0,0,1-.77.17,1.21,1.21,0,0,1-.88-.34A1.14,1.14,0,0,1,5.18,6a1.29,1.29,0,0,1,.19-.7A1.14,1.14,0,0,1,6,4.86L9.72,3.52A1.09,1.09,0,0,1,10,3.45l.21,0a1.16,1.16,0,0,1,.88.35,1.24,1.24,0,0,1,.32.9V21a1.19,1.19,0,0,1-.36.87A1.2,1.2,0,0,1,10.12,22.19Z"/><path class="cls-2" d="M22.69,3.4a5.79,5.79,0,0,1,2.95.73,5.25,5.25,0,0,1,2,2,5.93,5.93,0,0,1,.72,2.94,6,6,0,0,1-.72,3,5.27,5.27,0,0,1-2,2,5.79,5.79,0,0,1-2.95.73,5.76,5.76,0,0,1-2.92-.73,5.23,5.23,0,0,1-2-2,6,6,0,0,1-.72-3,5.93,5.93,0,0,1,.72-2.94,5.25,5.25,0,0,1,2-2A5.74,5.74,0,0,1,22.69,3.4Zm0,2.16A3.41,3.41,0,0,0,21,6a3.16,3.16,0,0,0-1.19,1.24,3.8,3.8,0,0,0-.43,1.85,3.82,3.82,0,0,0,.43,1.84A3.14,3.14,0,0,0,21,12.19a3.52,3.52,0,0,0,3.48,0,3.05,3.05,0,0,0,1.18-1.26,3.93,3.93,0,0,0,.42-1.84,3.91,3.91,0,0,0-.42-1.85A3.06,3.06,0,0,0,24.45,6,3.41,3.41,0,0,0,22.71,5.56Zm4.85,6.61L22,21.47a1.3,1.3,0,0,1-1.1.67,1.25,1.25,0,0,1-.83-.29,1.18,1.18,0,0,1-.26-1.59l3.42-5.67Z"/><rect class="cls-3" x="11.03" y="32.52" width="56.91" height="41.19" rx="2.74"/><rect class="cls-2" x="15.07" y="37.15" width="40.04" height="31.92" rx="2.12"/><path class="cls-4" d="M51.54,36a3.89,3.89,0,1,0-3.88-3.89A3.89,3.89,0,0,0,51.54,36Z"/><path class="cls-4" d="M58.16,19.82a1.89,1.89,0,1,0-1.89-1.89A1.89,1.89,0,0,0,58.16,19.82Z"/><path class="cls-4" d="M42.41,20.87A1.89,1.89,0,1,0,40.52,19,1.89,1.89,0,0,0,42.41,20.87Z"/><path class="cls-4" d="M52,31.76a.6.6,0,0,1-.15.83.59.59,0,0,1-.82-.15L41.92,19.32a.6.6,0,0,1,1-.68Z"/><path class="cls-4" d="M57.62,17.68a.6.6,0,1,1,1.08.5L52.08,32.35a.59.59,0,1,1-1.07-.5Z"/><path class="cls-5" d="M61.48,43.35a3.1,3.1,0,1,0-3.09-3.1A3.11,3.11,0,0,0,61.48,43.35Z"/><path class="cls-5" d="M61.48,52.84a3.1,3.1,0,1,0-3.09-3.1A3.11,3.11,0,0,0,61.48,52.84Z"/><path class="cls-5" d="M61.48,62.33a3.1,3.1,0,1,0-3.09-3.1A3.1,3.1,0,0,0,61.48,62.33Z"/><path class="cls-6" d="M57.83,68.08h7.3a.49.49,0,0,1,.5.49h0a.5.5,0,0,1-.5.5h-7.3a.5.5,0,0,1-.5-.5h0A.5.5,0,0,1,57.83,68.08Z"/><path class="cls-6" d="M57.83,66.09h7.3a.5.5,0,0,1,.5.5h0a.49.49,0,0,1-.5.49h-7.3a.5.5,0,0,1-.5-.49h0A.51.51,0,0,1,57.83,66.09Z"/><path class="cls-6" d="M57.83,64.11h7.3a.49.49,0,0,1,.5.49h0a.5.5,0,0,1-.5.5h-7.3a.5.5,0,0,1-.5-.5h0A.5.5,0,0,1,57.83,64.11Z"/><path class="cls-5" d="M37.29,65.17a.4.4,0,0,1,0,.54.38.38,0,0,1-.54,0l-1.16-1.16v1.12a.51.51,0,1,1-1,0V64.55l-1.16,1.16a.37.37,0,0,1-.53,0,.38.38,0,0,1,0-.54l1.69-1.69V61.85l-1.87,1.87a.37.37,0,0,1-.53,0,.38.38,0,0,1,0-.54l2.4-2.4V59.47l-1.31,1.3a.37.37,0,0,1-.53-.53l1.84-1.85V54.33L31.71,57.2v2.61a.38.38,0,0,1-.76,0V58l-.93.93v3.4a.38.38,0,1,1-.76,0V59.65L28.11,60.8v2.39a.38.38,0,1,1-.76,0V61.56l-.79.79a.51.51,0,0,1-.72,0,.51.51,0,0,1,0-.71l.8-.8H25a.38.38,0,0,1,0-.76h2.4l1.15-1.15H25.91a.37.37,0,0,1-.38-.37.38.38,0,0,1,.38-.38H29.3l.93-.93H28.38a.38.38,0,0,1,0-.76H31l2.88-2.87H29.8L28,55.46a.38.38,0,0,1-.54-.54l1.31-1.3H27.41L25,56a.39.39,0,0,1-.53,0,.38.38,0,0,1,0-.54l1.86-1.86H24.72L23,55.31a.37.37,0,0,1-.53,0,.38.38,0,0,1,0-.54l1.16-1.15H22.52a.5.5,0,0,1-.5-.51.5.5,0,0,1,.5-.5h1.13l-1.16-1.16a.38.38,0,0,1,0-.54.37.37,0,0,1,.53,0l1.7,1.7h1.62l-1.86-1.87a.38.38,0,0,1,0-.54.39.39,0,0,1,.53,0l2.4,2.41h1.32L27.42,51.3a.38.38,0,0,1,.54-.54l1.84,1.85h4.07L31,49.73H28.38a.38.38,0,1,1,0-.76h1.85L29.3,48H25.91a.38.38,0,1,1,0-.75h2.64L27.4,46.14H25a.38.38,0,0,1,0-.76h1.64l-.8-.8a.51.51,0,0,1,0-.71.51.51,0,0,1,.72,0l.79.79V43a.38.38,0,0,1,.76,0v2.39l1.15,1.15V43.93a.38.38,0,0,1,.76,0v3.4l.93.93V46.41a.38.38,0,0,1,.76,0V49l2.87,2.87V47.83L32.74,46a.37.37,0,0,1,.53-.53l1.31,1.3V45.44L32.18,43a.38.38,0,0,1,0-.54.37.37,0,0,1,.53,0l1.87,1.87V42.74l-1.69-1.69a.38.38,0,0,1,0-.54.39.39,0,0,1,.53,0l1.16,1.16V40.55a.51.51,0,1,1,1,0v1.12l1.16-1.16a.38.38,0,0,1,.54.54l-1.7,1.69v1.63l1.86-1.87A.38.38,0,0,1,38,43l-2.4,2.4v1.31l1.31-1.3a.37.37,0,0,1,.53.53l-1.84,1.85v4.06L38.46,49V46.41a.38.38,0,1,1,.76,0v1.85l.94-.93v-3.4a.36.36,0,0,1,.37-.37.37.37,0,0,1,.38.37v2.64l1.15-1.15V43a.38.38,0,0,1,.76,0v1.63l.79-.79a.51.51,0,0,1,.72,0,.51.51,0,0,1,0,.71l-.8.8h1.64a.38.38,0,0,1,0,.76h-2.4l-1.15,1.15h2.64a.38.38,0,1,1,0,.75H40.87l-.93.93h1.85a.38.38,0,0,1,0,.76H39.18L36.3,52.61h4.07l1.84-1.85a.38.38,0,0,1,.54.54l-1.31,1.31h1.32l2.4-2.41a.39.39,0,0,1,.53,0,.38.38,0,0,1,0,.54l-1.86,1.87h1.62l1.7-1.7a.37.37,0,0,1,.53,0,.38.38,0,0,1,0,.54l-1.16,1.16h1.13a.5.5,0,0,1,.5.5.5.5,0,0,1-.5.51H46.52l1.16,1.15a.38.38,0,0,1,0,.54.37.37,0,0,1-.53,0l-1.7-1.69H43.83l1.86,1.86a.38.38,0,0,1,0,.54.39.39,0,0,1-.53,0l-2.4-2.4H41.44l1.31,1.3a.38.38,0,0,1-.54.54l-1.84-1.84H36.3l2.88,2.87h2.61a.38.38,0,0,1,0,.76H39.94l.93.93h3.39a.38.38,0,0,1,.38.38.37.37,0,0,1-.38.37H41.62l1.15,1.15h2.4a.38.38,0,0,1,0,.76H43.53l.8.8a.51.51,0,0,1,0,.71.51.51,0,0,1-.72,0l-.79-.79v1.63a.38.38,0,0,1-.76,0V60.8l-1.15-1.15v2.64a.38.38,0,0,1-.38.38.37.37,0,0,1-.37-.38v-3.4L39.22,58v1.85a.38.38,0,1,1-.76,0V57.2l-2.87-2.87v4.06l1.84,1.85a.37.37,0,0,1-.53.53l-1.31-1.3v1.31l2.4,2.4a.38.38,0,0,1-.54.54l-1.86-1.87v1.63Z"/><path class="cls-7" d="M20.85,26.94a1.11,1.11,0,1,0-1.1-1.11A1.11,1.11,0,0,0,20.85,26.94Z"/><path class="cls-7" d="M73.35,23.58a1.11,1.11,0,1,0-1.1-1.11A1.11,1.11,0,0,0,73.35,23.58Z"/><path class="cls-7" d="M8.68,79.43a1.1,1.1,0,1,0-1.11-1.1A1.1,1.1,0,0,0,8.68,79.43Z"/><path class="cls-7" d="M34.06,23.87a.61.61,0,1,1,1.21,0v1.29a.61.61,0,0,1-1.21,0V23.87Zm3.42,2.21a.6.6,0,0,1,0,1.2H36.19a.6.6,0,0,1,0-1.2Zm-4.34,0a.6.6,0,1,1,0,1.2H31.85a.6.6,0,0,1,0-1.2Zm.92,2.12a.61.61,0,0,1,1.21,0v1.29a.61.61,0,1,1-1.21,0Z"/><path class="cls-7" d="M60.31,6a.61.61,0,1,1,1.21,0V7.31a.61.61,0,0,1-1.21,0V6Zm3.42,2.21a.6.6,0,1,1,0,1.2H62.44a.6.6,0,0,1,0-1.2Zm-4.34,0a.6.6,0,1,1,0,1.2H58.1a.6.6,0,0,1,0-1.2Zm.92,2.12a.61.61,0,0,1,1.21,0v1.3a.61.61,0,0,1-1.21,0Z"/><path class="cls-7" d="M34.06,77.2a.61.61,0,0,1,1.21,0v1.29a.61.61,0,1,1-1.21,0V77.2Zm3.42,2.21a.61.61,0,0,1,0,1.21H36.19a.61.61,0,0,1,0-1.21Zm-4.34,0a.61.61,0,1,1,0,1.21H31.85a.61.61,0,0,1,0-1.21Zm.92,2.13a.61.61,0,0,1,1.21,0v1.29a.61.61,0,0,1-1.21,0Z"/></g></g></svg>