<svg xmlns="http://www.w3.org/2000/svg" viewBox="0 0 77.79 87.36"><defs><style>.cls-1{fill:#f5eed8;}.cls-2{fill:#b53b3d;}.cls-3,.cls-4{fill:#2f3029;}.cls-4{fill-rule:evenodd;}</style></defs><g id="Ebene_2" data-name="Ebene 2"><g id="OBJECTS"><rect class="cls-1" width="77.28" height="87.36" rx="6.72"/><path class="cls-2" d="M12.72,20.73a.57.57,0,0,1,.58.58c0,2.31,1.11,3.39,3.42,3.39,2.6,0,6-2.54,8-4,.53-.41,1-.76,1.46-1.05a.59.59,0,0,1,.32-.09.53.53,0,0,1,.47.24.56.56,0,0,1,.09.52L25.4,25.52c2.13-2.74,4.05-4.79,6.65-4.79s3.57,1.46,3.57,3.68c0,1.84-.56,3.94-2.11,8.53C32.23,36.76,29.86,43,29.83,44.36c0,1.78.62,2.6,2,2.66a.57.57,0,1,1,0,1.13c-2.1,0-3.15-1.43-3.15-3.79,0-1.55,1.84-6.16,3.73-11.8C33.92,28,34.48,26,34.48,24.41s-.64-2.51-2.43-2.51c-2.83,0-5.57,3.91-7.88,7.36-3.36,10.28-3.8,13.05-6.46,13.05-1,0-1.49-.7-1.49-1.78,0-2.13,3-6,3.89-7.24l3-4.56,2.3-7.06c-2.42,1.72-5.81,4.17-8.7,4.17S11.9,24,12.17,21.29A.55.55,0,0,1,12.72,20.73ZM21,34c-.84,1.14-3.62,4.85-3.68,6.57,0,.38.12.59.38.59,1.35,0,1.87-1.38,4-8C21.54,33.35,21.39,33.52,21,34Z"/><path class="cls-2" d="M43.18,40.44A3.46,3.46,0,0,1,41,39.66c-1.08,1.46-2.57,2.65-4,2.65-1.9,0-2.55-1.25-2.55-3a15.14,15.14,0,0,1,2.49-7.79c1.22-2.05,2.66-3.07,4.11-3.07A2.86,2.86,0,0,1,44,31.62a15.87,15.87,0,0,1-2.28,7,1.78,1.78,0,0,0,1.49.62c1.22,0,2.25-1.11,3.27-3.54A.6.6,0,0,1,47,35.3a.62.62,0,0,1,.59.85C46.3,39.1,44.93,40.44,43.18,40.44ZM41.4,36.09a3,3,0,0,0-.12.67,13,13,0,0,0,1.46-5.17A1.66,1.66,0,0,0,41,29.73c-1.11,0-2.17,1-3,2.48a14.6,14.6,0,0,0-2.31,7.1c0,1,.35,1.78,1.29,1.78s2.3-1.17,3.27-2.54a5,5,0,0,1-.06-2.78.6.6,0,0,1,.61-.47A.61.61,0,0,1,41.4,36.09Z"/><path class="cls-2" d="M56.9,36a.71.71,0,0,1-.06.23c-1.78,4-3.88,6.13-7.27,6.13-2.13,0-3.53-1.6-3.53-4,0-4.55,3.65-9.81,6.63-9.81,1.66,0,2.48,1.14,2.48,2.75,0,1.31-.64,2.65-1.32,2.65a.54.54,0,0,1-.61-.58c0-.41.7-.91.7-2.07s-.38-1.52-1.25-1.52c-2.28,0-5.41,5.11-5.41,8.61,0,1.64.94,2.75,2.34,2.75,2.83,0,4.64-2.05,6.1-5.41a.68.68,0,0,1,.82-.32A.66.66,0,0,1,56.9,36Z"/><path class="cls-2" d="M68.55,36a1,1,0,0,1-.06.23c-2,4.41-3.36,6.13-5.34,6.13-1.43,0-2.1-1-2.1-2.45,0-2.69,2.27-6.43,2.27-8.67a1.35,1.35,0,0,0-1.51-1.52,3.59,3.59,0,0,0-2.31,1.6c-1.84,2.34-2.1,3.48-4.7,10.61a.63.63,0,0,1-.79.4.61.61,0,0,1-.38-.78c2.77-7.71,5.28-14.67,6.25-17.5a.63.63,0,0,1,1.17.44c-.27.76-.91,2.6-1.9,5.37a3.89,3.89,0,0,1,2.66-1.37,2.44,2.44,0,0,1,2.74,2.75c0,2.22-2.28,6.57-2.28,8.67,0,.85.27,1.23.88,1.23,1.4,0,2.54-1.64,4.2-5.41a.65.65,0,0,1,.56-.38.82.82,0,0,1,.26.06A.63.63,0,0,1,68.55,36Z"/><path class="cls-2" d="M5.87,66.35c-.84.7-1.63,1.31-2.3,1.84a16,16,0,0,1,2.83-.27,21,21,0,0,1,6.19,1,.65.65,0,0,1,.47.58.62.62,0,0,1-.79.61,24.36,24.36,0,0,0-5.87-1,19.48,19.48,0,0,0-5.11.76,1.42,1.42,0,0,1-.35,0c-.41,0-.67-.2-.67-.5a1,1,0,0,1,.49-.76C1.81,68,4,66.26,5.08,65.38c4-3.18,9.23-8.41,9.23-12.32,0-1.67-1.34-2.54-3.12-2.54-2,0-3.39,1.57-4,3.62a.62.62,0,0,1-.76.41A.64.64,0,0,1,6,53.76c.79-2.54,2.66-4.47,5.17-4.47s4.38,1.46,4.38,3.8C15.54,57.41,10.11,62.9,5.87,66.35Z"/><path class="cls-2" d="M48.07,51.77A28.86,28.86,0,0,1,43,51.19a7.11,7.11,0,0,0-.91,1.14,41.85,41.85,0,0,0-2.86,7.45C36.65,68.27,35.16,72.42,30,72.33a5,5,0,0,1-5-5.25,6.41,6.41,0,0,1,6.31-6.19.61.61,0,0,1,0,1.22,5.25,5.25,0,0,0-5.08,5,3.77,3.77,0,0,0,3.82,4c5,.06,6-5.61,8.06-11.71a41.26,41.26,0,0,1,3-7.69c.15-.26.35-.52.53-.78-2.57-.56-6.4-2-9.7-2-3,0-4.79,1.46-4.79,3.95,0,2,1.37,3,3.39,3a6.65,6.65,0,0,0,2.66-.61.78.78,0,0,1,.29-.06.62.62,0,0,1,.23,1.17,7.85,7.85,0,0,1-3.21.73c-2.72,0-4.59-1.61-4.59-4.26,0-3.28,2.25-5.2,6.08-5.2,3.12,0,7.36,1.63,10.69,2.25A8.83,8.83,0,0,1,48,48c1.7,0,3.54.67,3.54,2S50.11,51.77,48.07,51.77ZM50.29,50c0-.44-1.46-.76-2.31-.76a8.15,8.15,0,0,0-3.62.94,25,25,0,0,0,3.71.38C49.44,50.55,50.29,50.4,50.29,50Z"/><path class="cls-2" d="M56.48,64.16a.88.88,0,0,1-.06.26l0,.09c-1.11,2.45-2.69,6-5.32,6-1.4,0-2.1-1-2.1-2.45-1.17,1.64-2.39,2.45-3.65,2.45-1.63,0-2.39-1.4-2.39-3.15,0-3.83,3-10.66,6.45-10.66A2.74,2.74,0,0,1,52,58.29c.17-.5.35-.94.49-1.32a.63.63,0,0,1,.59-.38.59.59,0,0,1,.55.82l-1.46,3.91c-1.05,2.95-2,5.49-2,6.78,0,.88.26,1.23.87,1.23,1.82,0,3.22-3.16,4.18-5.32l0-.09a.64.64,0,0,1,.56-.38.88.88,0,0,1,.26.06A.64.64,0,0,1,56.48,64.16ZM50.55,62l.7-1.87c-.06-1.35-.82-2.14-1.87-2.14-2.69.06-5.17,6.34-5.23,9.23,0,1.29.27,2.14,1.14,2.14C47.66,69.33,49.38,65,50.55,62Z"/><path class="cls-2" d="M68.54,64.19a.88.88,0,0,1-.06.26c-1.81,4.26-4.24,7-8.5,8.23-1.4,4-3.21,6.08-5.32,6.11A2.67,2.67,0,0,1,51.77,76c0-1.84,1.43-3.19,4.94-3.83.73-.12,1.52-.26,2.31-.47l.87-2.51a3.94,3.94,0,0,1-2.77,1.4c-1.93,0-2.4-1.49-2.4-3.36.15-3.85,2.92-10.45,6.4-10.45a2.81,2.81,0,0,1,2.69,1.6l.46-1.19a.58.58,0,0,1,.56-.41.61.61,0,0,1,.61.85c-.47,1.13-1.25,3.24-2.19,5.72L61.7,67.66l-1.22,3.56c3.36-1.14,5.4-3.82,6.86-7.27a.64.64,0,0,1,.55-.38.88.88,0,0,1,.27.06A.64.64,0,0,1,68.54,64.19ZM58.55,73c-.56.11-1.08.23-1.61.32-2.68.46-3.82,1.22-3.94,2.57a1.52,1.52,0,0,0,1.66,1.63C56.24,77.53,57.59,76,58.55,73Zm3.8-11L63,60.33C63,58.78,62.2,58,61.15,58,58.43,58,56,64.33,56,67.22c-.06,1.2,0,2.11,1.08,2.11C59.4,69.33,61.18,65,62.35,62Z"/><path class="cls-2" d="M77.79,64.19a.71.71,0,0,1-.06.23c-1.89,4.21-4.11,6.13-7.06,6.13a3.6,3.6,0,0,1-3.83-4c.18-3.74,3.21-9.81,6.66-9.81C75,56.74,76,57.5,76,58.9c0,3.1-4.35,5-7.59,5.75a8.33,8.33,0,0,0-.32,1.93,2.44,2.44,0,0,0,2.63,2.75c2.39,0,4.26-1.64,5.9-5.41a.62.62,0,0,1,1.19.27Zm-3-5.29c0-.79-.62-.94-1.26-.94-2,0-3.71,3-4.64,5.29C71.28,62.49,74.76,61.06,74.76,58.9Z"/><path class="cls-3" d="M56,18.25a1,1,0,0,1-.71-.29,1,1,0,0,1-.28-.7,1,1,0,0,1,.27-.7l5.52-6.44a8,8,0,0,0,.9-1.28A2.51,2.51,0,0,0,62,7.69a3.47,3.47,0,0,0-.29-1.47,2.28,2.28,0,0,0-.84-1,2.65,2.65,0,0,0-2.63,0,2.82,2.82,0,0,0-.93,1A2.86,2.86,0,0,0,57,7.69a.93.93,0,0,1-.28.68,1,1,0,0,1-.71.29,1,1,0,0,1-.7-.29A.94.94,0,0,1,55,7.69a4.65,4.65,0,0,1,.6-2.36,4.45,4.45,0,0,1,1.64-1.64,4.63,4.63,0,0,1,2.34-.6,4.52,4.52,0,0,1,2.29.56,3.89,3.89,0,0,1,1.51,1.6,5.29,5.29,0,0,1,.53,2.44A3.34,3.34,0,0,1,63.66,9,7.28,7.28,0,0,1,63,10.18a11.38,11.38,0,0,1-.81,1l-4.44,5h5.43a1,1,0,0,1,.72.3,1,1,0,0,1,0,1.39,1,1,0,0,1-.72.29Z"/><path class="cls-3" d="M69.18,18.25a1,1,0,0,1-.72-1.69L74,10.12a7.49,7.49,0,0,0,.91-1.28,2.51,2.51,0,0,0,.32-1.15,3.32,3.32,0,0,0-.3-1.47,2.2,2.2,0,0,0-.83-1,2.46,2.46,0,0,0-1.3-.33,2.42,2.42,0,0,0-1.33.37,2.65,2.65,0,0,0-.93,1,2.86,2.86,0,0,0-.34,1.39,1,1,0,0,1-1.69.68.94.94,0,0,1-.29-.68,4.65,4.65,0,0,1,.6-2.36,4.45,4.45,0,0,1,1.64-1.64,4.91,4.91,0,0,1,4.63,0,3.8,3.8,0,0,1,1.5,1.6,5.17,5.17,0,0,1,.54,2.44A3.34,3.34,0,0,1,76.84,9a7.28,7.28,0,0,1-.66,1.23c-.27.38-.54.73-.81,1l-4.45,5h5.44a1,1,0,0,1,1,1,1,1,0,0,1-.29.7,1,1,0,0,1-.72.29Z"/><path class="cls-4" d="M41.22,21.47a1.1,1.1,0,1,0-1.1-1.1A1.11,1.11,0,0,0,41.22,21.47Z"/><path class="cls-4" d="M8.31,42.39a.61.61,0,0,1,1.21,0v1.29a.61.61,0,0,1-1.21,0V42.39Zm3.42,2.21a.6.6,0,0,1,.6.6.6.6,0,0,1-.6.6H10.44a.59.59,0,0,1-.6-.6.6.6,0,0,1,.6-.6Zm-4.34,0a.6.6,0,0,1,.6.6.6.6,0,0,1-.6.6H6.1a.6.6,0,0,1-.6-.6.6.6,0,0,1,.6-.6Zm.92,2.13a.61.61,0,1,1,1.21,0V48a.61.61,0,0,1-1.21,0Z"/><path class="cls-4" d="M56.32,47.61a.6.6,0,0,1,1.2,0V48.9a.6.6,0,1,1-1.2,0V47.61Zm3.41,2.21a.61.61,0,1,1,0,1.21H58.44a.61.61,0,0,1,0-1.21Zm-4.33,0a.61.61,0,0,1,0,1.21H54.11a.61.61,0,1,1,0-1.21ZM56.32,52a.6.6,0,0,1,1.2,0v1.29a.6.6,0,1,1-1.2,0Z"/><path class="cls-4" d="M39.94,73.65a.6.6,0,0,1,1.2,0v1.29a.6.6,0,1,1-1.2,0V73.65Zm3.41,2.21a.61.61,0,1,1,0,1.21H42.06a.61.61,0,0,1,0-1.21Zm-4.33,0a.61.61,0,0,1,0,1.21H37.73a.61.61,0,1,1,0-1.21ZM39.94,78a.6.6,0,0,1,1.2,0v1.29a.6.6,0,0,1-1.2,0Z"/><path class="cls-4" d="M26.05,9a.6.6,0,1,1,1.2,0v1.3a.6.6,0,0,1-1.2,0V9Zm3.41,2.22a.6.6,0,1,1,0,1.2H28.17a.6.6,0,1,1,0-1.2Zm-4.33,0a.6.6,0,1,1,0,1.2H23.84a.6.6,0,1,1,0-1.2Zm.92,2.12a.6.6,0,0,1,1.2,0V14.6a.6.6,0,1,1-1.2,0Z"/><path class="cls-4" d="M14.5,18.32a1.1,1.1,0,1,0-1.1-1.1A1.11,1.11,0,0,0,14.5,18.32Z"/><path class="cls-4" d="M43.9,48.35a1.1,1.1,0,1,0-1.1-1.1A1.1,1.1,0,0,0,43.9,48.35Z"/><path class="cls-4" d="M60.07,78a1.11,1.11,0,1,0-1.1-1.1A1.1,1.1,0,0,0,60.07,78Z"/><path class="cls-4" d="M17,79.22a1.11,1.11,0,1,0-1.1-1.1A1.11,1.11,0,0,0,17,79.22Z"/></g></g></svg>