<svg xmlns="http://www.w3.org/2000/svg" viewBox="0 0 79.49 87.35"><defs><style>.cls-1{fill:#2f3029;}.cls-2{font-size:22.8px;font-family:Comfortaa-Bold, Comfortaa;font-weight:700;letter-spacing:0.09em;}.cls-2,.cls-6,.cls-8{fill:#f5eed8;}.cls-3{letter-spacing:0em;}.cls-4,.cls-7{fill:#b53b3d;}.cls-4,.cls-5,.cls-8{fill-rule:evenodd;}.cls-5{fill:#7f3635;}</style></defs><g id="Ebene_2" data-name="Ebene 2"><g id="OBJECTS"><rect class="cls-1" width="77.27" height="87.35" rx="6.72"/><text class="cls-2" transform="translate(54.12 20.99)">1<tspan class="cls-3" x="11.03" y="0">5</tspan></text><path class="cls-4" d="M40.14,29.36S47.6,23.8,52.69,23.8s4.25,9.25,3.1,12.39-14.54-.8-15.33-1.67S40.14,29.36,40.14,29.36Z"/><path class="cls-4" d="M37.13,29.36S29.68,23.8,24.58,23.8s-4.25,9.25-3.09,12.39,14.54-.8,15.33-1.67S37.13,29.36,37.13,29.36Z"/><path class="cls-5" d="M38.64,36.83h0a4.28,4.28,0,0,0,4.26-4.26V31a4.27,4.27,0,0,0-4.26-4.26h0A4.27,4.27,0,0,0,34.37,31v1.55A4.28,4.28,0,0,0,38.64,36.83Z"/><rect class="cls-6" x="15.64" y="31.8" width="46" height="44.28" rx="5.15"/><rect class="cls-7" x="34.37" y="31.79" width="8.53" height="44.28"/><path class="cls-8" d="M16.6,17a.61.61,0,0,1,1.21,0v1.3a.61.61,0,0,1-1.21,0V17ZM20,19.2a.6.6,0,0,1,0,1.2H18.73a.6.6,0,1,1,0-1.2Zm-4.34,0a.6.6,0,1,1,0,1.2H14.39a.6.6,0,1,1,0-1.2Zm.92,2.12a.61.61,0,0,1,1.21,0v1.29a.61.61,0,1,1-1.21,0Z"/><path class="cls-8" d="M68.68,41.76a.61.61,0,0,1,1.21,0v1.29a.61.61,0,1,1-1.21,0V41.76ZM72.1,44a.6.6,0,0,1,0,1.2H70.81a.6.6,0,1,1,0-1.2Zm-4.34,0a.6.6,0,1,1,0,1.2H66.47a.6.6,0,0,1,0-1.2Zm.92,2.12a.61.61,0,0,1,1.21,0v1.29a.61.61,0,1,1-1.21,0Z"/><path class="cls-8" d="M7.37,56.88a.6.6,0,0,1,1.2,0v1.29a.6.6,0,1,1-1.2,0V56.88Zm3.41,2.21a.61.61,0,0,1,0,1.21H9.49a.61.61,0,0,1,0-1.21Zm-4.34,0a.61.61,0,1,1,0,1.21H5.15a.61.61,0,0,1,0-1.21Zm.93,2.13a.6.6,0,0,1,1.2,0v1.29a.6.6,0,0,1-1.2,0Z"/><path class="cls-8" d="M32.35,11.82a1.11,1.11,0,1,0-1.1-1.1A1.11,1.11,0,0,0,32.35,11.82Z"/><path class="cls-8" d="M66.37,30.72a1.11,1.11,0,1,0-1.1-1.11A1.11,1.11,0,0,0,66.37,30.72Z"/><path class="cls-8" d="M10.93,43.32a1.11,1.11,0,1,0-1.1-1.11A1.11,1.11,0,0,0,10.93,43.32Z"/><path class="cls-8" d="M68.05,68.94A1.11,1.11,0,1,0,67,67.83,1.11,1.11,0,0,0,68.05,68.94Z"/></g></g></svg>