<svg xmlns="http://www.w3.org/2000/svg" viewBox="0 0 141.11 87.36"><defs><style>.cls-1{fill:#b7c7b1;}.cls-2,.cls-3{fill:#f5eed8;}.cls-3{fill-rule:evenodd;}</style></defs><g id="Ebene_2" data-name="Ebene 2"><g id="OBJECTS"><rect class="cls-1" width="141.11" height="87.36" rx="6.72"/><path class="cls-2" d="M26.62,79.78a1.81,1.81,0,0,1-1.36-.6,2.05,2.05,0,0,1-.56-1.44V72.68H11.35a1.83,1.83,0,0,1-1.44-.56,2.1,2.1,0,0,1-.58-1.3,1.9,1.9,0,0,1,.38-1.34L25.06,49.35a2.63,2.63,0,0,1,.74-.64,1.89,1.89,0,0,1,.95-.24,1.72,1.72,0,0,1,1.36.6,2.18,2.18,0,0,1,.52,1.48V69H31a2.51,2.51,0,0,1,1.44.4,1.6,1.6,0,0,1,.6,1.44,1.68,1.68,0,0,1-.6,1.3,2.08,2.08,0,0,1-1.44.54H28.63v5.06a2.05,2.05,0,0,1-.56,1.44A1.91,1.91,0,0,1,26.62,79.78ZM13.75,70.12,12.67,69h12V52.48l1.24,1.6Z"/><path class="cls-2" d="M41.44,15a31.67,31.67,0,0,1-5.06-.44c-1.36,2.2-2.79,6.49-3.64,9.06l-.44,1.43h3.27a.79.79,0,0,1,.77.81.78.78,0,0,1-.77.77H31.79c-3.27,9.1-4.51,12.77-10.64,12.77-4.11,0-6.43-2.94-6.35-6.61A8.13,8.13,0,0,1,22.72,25a.79.79,0,0,1,0,1.58,6.51,6.51,0,0,0-6.38,6.24c0,2.9,1.69,5,4.81,5,5.1,0,6-3.27,9-11.23H28a.78.78,0,0,1-.77-.77.79.79,0,0,1,.77-.81h2.64l.63-1.91c.77-2.42,2.27-7,3.48-8.92-1.43-.33-2.75-.73-4-1.1a26.62,26.62,0,0,0-7.41-1.43,5.17,5.17,0,0,0-4.81,4.92c0,2.64,1.77,3.85,4.26,3.85a8.57,8.57,0,0,0,3.34-.77,1.28,1.28,0,0,1,.37-.07.76.76,0,0,1,.73.77.77.77,0,0,1-.44.7,10,10,0,0,1-4,.92C19.17,22,17,19.85,17,16.66a6.63,6.63,0,0,1,6.35-6.5,26.74,26.74,0,0,1,7.86,1.51c1.43.4,3,.84,4.62,1.21A8.82,8.82,0,0,1,42,10.2c1.87,0,3.38.77,3.38,2.24C45.37,14.09,43.42,15,41.44,15ZM42,11.74a7.72,7.72,0,0,0-4.26,1.47,30.92,30.92,0,0,0,3.71.25c1.14,0,2.35-.4,2.35-1.06C43.79,12,42.72,11.74,42,11.74Z"/><path class="cls-2" d="M55.43,29.35a1,1,0,0,1-.08.33c-2.38,5.47-4.22,7.71-6.71,7.71h0c-1.72,0-2.6-1.28-2.6-3.08a8.46,8.46,0,0,1,.36-2.39c.3-1.17,1.91-6.05,2.24-6.86a25.88,25.88,0,0,1-4-1.47c-.15.44-.4,1-3.34,7.38a.75.75,0,0,1-.66.44,1.28,1.28,0,0,1-.37-.07.85.85,0,0,1-.44-.7,1,1,0,0,1,.08-.33l2.93-6.39.44-1.1a3.71,3.71,0,0,1-1.87-3.08,2.24,2.24,0,0,1,2.24-2.39,2.14,2.14,0,0,1,2.13,2.43,8.29,8.29,0,0,1-.59,2.35,30.17,30.17,0,0,0,3.34,1.28c.51.15,1,.29,1.39.44a.83.83,0,0,1,.45,1.06c-.48,1.22-2.24,6.46-2.46,7.38a8.46,8.46,0,0,0-.33,2c0,.92.29,1.54,1.1,1.54,1.8,0,3.19-2.06,5.28-6.79a.81.81,0,0,1,.7-.48,1,1,0,0,1,.33.08A.79.79,0,0,1,55.43,29.35ZM43.61,18.9a.63.63,0,0,0-.7.69,2.27,2.27,0,0,0,.88,1.69,5.72,5.72,0,0,0,.41-1.54C44.2,19.12,43.9,18.9,43.61,18.9Z"/><path class="cls-2" d="M64.16,35a4.33,4.33,0,0,1-2.79-1c-1.35,1.84-3.23,3.34-5,3.34-2.38,0-3.19-1.58-3.19-3.71a19.13,19.13,0,0,1,3.12-9.79C57.85,21.32,59.65,20,61.48,20A3.59,3.59,0,0,1,65.15,24a19.88,19.88,0,0,1-2.86,8.77,2.24,2.24,0,0,0,1.87.77c1.54,0,2.83-1.39,4.11-4.44a.77.77,0,0,1,.7-.48.78.78,0,0,1,.73,1.07C68.09,33.35,66.36,35,64.16,35Zm-2.24-5.47a3.42,3.42,0,0,0-.14.85,16.4,16.4,0,0,0,1.83-6.5,2.1,2.1,0,0,0-2.16-2.35c-1.4,0-2.72,1.29-3.78,3.12-1,1.58-2.9,5.14-2.9,8.92,0,1.32.44,2.24,1.61,2.24,1.36,0,2.9-1.47,4.11-3.19a6.29,6.29,0,0,1-.07-3.49.75.75,0,0,1,.77-.59A.76.76,0,0,1,61.92,29.57Z"/><path class="cls-2" d="M84.42,29.39a1.48,1.48,0,0,1-.07.29c-2.5,5.55-4.22,7.71-6.72,7.71-1.8,0-2.64-1.28-2.64-3.08,0-3.38,2.86-8.07,2.86-10.9a1.71,1.71,0,0,0-1.91-1.91c-.91,0-1.94.85-2.9,2-2.31,2.94-2.64,4.37-5.9,13.32a.8.8,0,0,1-1,.51.77.77,0,0,1-.48-1c3.49-9.68,6.64-18.42,7.85-22a.79.79,0,0,1,1.47.55c-.33,1-1.14,3.27-2.39,6.75A4.92,4.92,0,0,1,75.94,20c2.61,0,3.45,1.5,3.45,3.45,0,2.79-2.86,8.26-2.86,10.9,0,1.06.33,1.54,1.1,1.54,1.76,0,3.2-2.06,5.29-6.79a.79.79,0,0,1,.69-.48,1,1,0,0,1,.33.08A.78.78,0,0,1,84.42,29.39Z"/><path class="cls-2" d="M96.06,29.39a.79.79,0,0,1-.08.29C93.6,35,90.81,37.39,87.1,37.39c-3,0-4.88-2-4.81-5,.22-4.69,4-12.33,8.37-12.33,1.84,0,3.12,1,3.12,2.72,0,3.89-5.47,6.24-9.54,7.23a10.14,10.14,0,0,0-.4,2.42,3.07,3.07,0,0,0,3.3,3.45c3,.07,5.36-2.06,7.41-6.79a.83.83,0,0,1,1-.4A.84.84,0,0,1,96.06,29.39Zm-3.82-6.64c0-1-.77-1.18-1.58-1.18-2.53,0-4.66,3.82-5.83,6.65C87.87,27.26,92.24,25.46,92.24,22.75Z"/><path class="cls-2" d="M110.7,29.35a1.3,1.3,0,0,1-.07.33c-2.5,5.55-4.22,7.71-6.72,7.71-1.76,0-2.64-1.28-2.64-3.08,0-3.45,2.86-7.71,2.86-10.9a1.71,1.71,0,0,0-1.91-1.91c-2.24,0-5,5-6.2,8.07l-2.57,7.27a.79.79,0,0,1-1,.51.77.77,0,0,1-.48-1c1.91-5.28,4.23-11.92,5.66-15.85a.74.74,0,0,1,.73-.51.76.76,0,0,1,.73,1l-.29.74a4.92,4.92,0,0,1,3.41-1.8c2.65,0,3.45,1.5,3.45,3.45,0,3.27-2.86,8.07-2.86,10.9,0,1.06.33,1.54,1.1,1.54,1.73,0,3-2,5.29-6.79a.79.79,0,0,1,.69-.48,1,1,0,0,1,.33.08A.77.77,0,0,1,110.7,29.35Z"/><path class="cls-2" d="M64.44,58.22c-1.43,3.89-4,10.72-4,12.62,0,2.32.73,3.34,2.46,3.34a.79.79,0,0,1,0,1.58c-2.76-.07-4-1.87-4-4.92,0-2.24,2.64-9.21,4.11-13.13l.15-.41H55.38c-2.94,5.07-6.65,10.75-11.16,10.75-3,0-5.58-2-5.58-5,0-3.23,2.72-6.06,5.65-6.06a4,4,0,0,1,1.69.37.74.74,0,0,1,.44.7.78.78,0,0,1-.77.77,7.82,7.82,0,0,0-1.36-.3c-2.12,0-4.11,2.24-4.11,4.52,0,2.09,1.84,3.45,4,3.45,3.71,0,6.86-5,9.36-9.18h-1.8a.81.81,0,0,1-.81-.77.82.82,0,0,1,.81-.81H54.5c.91-1.61,1.79-3.26,2.67-4.84a70.13,70.13,0,0,1,4.59-7.82,5.4,5.4,0,0,1,3.78-2.16c2.2,0,2.94,1.39,2.94,3.41,0,2.75-1.4,6.61-2.42,9.51C65.25,56.09,64.62,57.78,64.44,58.22ZM67,44.49c0-1.21-.36-2-1.43-2A3.77,3.77,0,0,0,63,44a65.58,65.58,0,0,0-4.48,7.59c-.73,1.33-1.5,2.76-2.27,4.11h7.45l.88-2.45C65.43,50.92,67,46.88,67,44.49Z"/><path class="cls-2" d="M84.63,60a1.3,1.3,0,0,1-.07.33c-2.13,4.59-4.19,7.7-7.56,7.7-1.73,0-2.72-1.17-2.72-3.23-1.28,1.84-2.79,3.23-4.66,3.23-2.06,0-3-1.76-3-4,0-4.81,3.67-13.39,8.11-13.39A3.43,3.43,0,0,1,78,52.57l.7-1.91,2-5.62a.75.75,0,0,1,.69-.47.78.78,0,0,1,.74,1c-.37,1.06-4.74,13.54-5.07,14.56A22.92,22.92,0,0,0,75.82,65c0,.88.33,1.54,1.18,1.54,2.64,0,4.4-3,6.12-6.82a.88.88,0,0,1,.74-.44,1,1,0,0,1,.29.07A.78.78,0,0,1,84.63,60Zm-8.44-2.75c.33-.78.59-1.51.84-2.1a.64.64,0,0,0,0-.25c-.07-1.69-.92-2.68-2.35-2.68-3.38.11-6.49,8-6.57,11.59,0,1.62.33,2.68,1.43,2.68C72.56,66.51,74.72,61,76.19,57.27Z"/><path class="cls-2" d="M97.29,60a1,1,0,0,1-.07.29c-.81,2.75-3.12,5.4-5.69,5.4a3.55,3.55,0,0,1-2.57-1c-1.8,2.43-2.86,3.34-4.44,3.34-1.83,0-2.64-1.28-2.64-3.08,0-2.35,1.8-6.57,4.37-13.87a.77.77,0,0,1,.73-.48.75.75,0,0,1,.73,1C84.52,60.46,83.42,63.58,83.42,65c0,1.07.29,1.54,1.1,1.54,1.29,0,2.64-1.72,3.49-3.19a5.94,5.94,0,0,1,0-3.49.77.77,0,0,1,.74-.58.8.8,0,0,1,.77,1,8.24,8.24,0,0,0-.19.88c.41-.66,4.55-8.88,5.1-10.09a.88.88,0,0,1,.74-.44,1,1,0,0,1,.33.07.9.9,0,0,1,.44.73,1,1,0,0,1-.08.33c-1.24,2.57-5.32,10.54-6,11.67a2.27,2.27,0,0,0,1.76.77c1.94,0,3.63-2.34,4.22-4.44a.66.66,0,0,1,.69-.47.93.93,0,0,1,.33.07A.74.74,0,0,1,97.29,60Z"/><path class="cls-2" d="M108.93,60.05a.84.84,0,0,1-.08.3c-2.38,5.28-5.17,7.7-8.88,7.7a4.52,4.52,0,0,1-4.8-5c.22-4.7,4-12.33,8.36-12.33,1.84,0,3.12.95,3.12,2.71,0,3.89-5.47,6.24-9.54,7.23a10.22,10.22,0,0,0-.4,2.42,3.06,3.06,0,0,0,3.3,3.45c3,.08,5.36-2.05,7.41-6.79a.84.84,0,0,1,1-.4A.86.86,0,0,1,108.93,60.05Zm-3.82-6.64c0-1-.77-1.17-1.58-1.17-2.53,0-4.66,3.81-5.83,6.64C100.74,57.93,105.11,56.13,105.11,53.41Z"/><path class="cls-2" d="M123.57,60a1.3,1.3,0,0,1-.07.33c-2.5,5.54-4.22,7.7-6.72,7.7-1.76,0-2.64-1.28-2.64-3.08,0-3.45,2.86-7.7,2.86-10.9a1.71,1.71,0,0,0-1.91-1.91c-2.24,0-5,5-6.2,8.08l-2.57,7.26a.8.8,0,0,1-1,.52.77.77,0,0,1-.48-1c1.91-5.29,4.23-11.93,5.66-15.86a.74.74,0,0,1,.73-.51.77.77,0,0,1,.73,1l-.29.73a4.94,4.94,0,0,1,3.41-1.8c2.65,0,3.45,1.51,3.45,3.45,0,3.27-2.86,8.08-2.86,10.9,0,1.07.33,1.54,1.1,1.54,1.73,0,3-1.94,5.29-6.79a.78.78,0,0,1,.69-.47,1,1,0,0,1,.33.07A.78.78,0,0,1,123.57,60Z"/><path class="cls-2" d="M131.21,60a1,1,0,0,1-.08.33c-2.13,4.59-4.18,7.7-7.56,7.7-1.76,0-2.71-1.32-2.71-3.08A28.56,28.56,0,0,1,123,57.41l1.87-5.25h-2.31a.75.75,0,0,1-.77-.77.78.78,0,0,1,.77-.77h2.82c.08-.14,1.88-5.32,1.91-5.46a.75.75,0,0,1,.74-.52.77.77,0,0,1,.73,1c.11-.22-1.47,4.26-1.72,4.95h2.45a.78.78,0,0,1,.77.77.75.75,0,0,1-.77.77h-3c-.23.7-.85,2.39-2.06,5.8-1.5,4.26-2,5.95-2,7s.44,1.54,1.17,1.54c2.64,0,4.41-3,6.13-6.82a.88.88,0,0,1,.74-.44,1,1,0,0,1,.33.07A.84.84,0,0,1,131.21,60Z"/><path class="cls-3" d="M42.16,49.42a.6.6,0,0,1,1.2,0v1.29a.6.6,0,0,1-1.2,0V49.42Zm3.42,2.21a.61.61,0,0,1,0,1.21H44.29a.61.61,0,1,1,0-1.21Zm-4.34,0a.61.61,0,0,1,0,1.21H40a.61.61,0,0,1,0-1.21Zm.92,2.13a.6.6,0,0,1,1.2,0v1.29a.6.6,0,0,1-1.2,0Z"/><path class="cls-3" d="M51.41,64.37a1.1,1.1,0,1,0-1.1-1.1A1.1,1.1,0,0,0,51.41,64.37Z"/><path class="cls-3" d="M116.26,33.12a.6.6,0,1,1,1.2,0v1.29a.6.6,0,0,1-1.2,0V33.12Zm3.41,2.21a.61.61,0,1,1,0,1.21h-1.29a.61.61,0,0,1,0-1.21Zm-4.33,0a.61.61,0,0,1,0,1.21h-1.29a.61.61,0,1,1,0-1.21Zm.92,2.13a.6.6,0,1,1,1.2,0v1.29a.6.6,0,0,1-1.2,0Z"/><path class="cls-3" d="M13.36,12.33a.61.61,0,0,1,1.21,0v1.29a.61.61,0,0,1-1.21,0V12.33Zm3.42,2.21a.61.61,0,0,1,0,1.21H15.49a.61.61,0,0,1,0-1.21Zm-4.34,0a.61.61,0,1,1,0,1.21H11.15a.61.61,0,0,1,0-1.21Zm.92,2.13a.61.61,0,0,1,1.21,0V18a.61.61,0,0,1-1.21,0Z"/><path class="cls-3" d="M17.75,39.53a1.11,1.11,0,1,0-1.1-1.1A1.1,1.1,0,0,0,17.75,39.53Z"/><path class="cls-3" d="M63.74,8.66a1.1,1.1,0,1,0-1.11-1.1A1.1,1.1,0,0,0,63.74,8.66Z"/><path class="cls-3" d="M111.4,16.43a1.11,1.11,0,1,0-1.1-1.1A1.11,1.11,0,0,0,111.4,16.43Z"/><path class="cls-3" d="M126.52,52.13a1.11,1.11,0,1,0-1.1-1.1A1.11,1.11,0,0,0,126.52,52.13Z"/><path class="cls-3" d="M74.45,78.8a1.11,1.11,0,1,0-1.11-1.11A1.11,1.11,0,0,0,74.45,78.8Z"/></g></g></svg>