<svg xmlns="http://www.w3.org/2000/svg" viewBox="0 0 77.27 87.36"><defs><style>.cls-1{fill:#b7c7b1;}.cls-2{fill:#2f3029;}.cls-2,.cls-3,.cls-5,.cls-6{fill-rule:evenodd;}.cls-3,.cls-4{fill:#f5eed8;}.cls-5{fill:#e4c39e;}.cls-6{fill:#b53b3d;}</style></defs><g id="Ebene_2" data-name="Ebene 2"><g id="OBJECTS"><rect class="cls-1" width="77.27" height="87.36" rx="6.72"/><path class="cls-2" d="M70,88.86H7V59.53A31.59,31.59,0,0,1,38.48,28h0A31.59,31.59,0,0,1,70,59.53Z" transform="translate(0 -1.5)"/><path class="cls-3" d="M61.91,88.86H15c0-12.57-.39-24.21.71-32.74,1.56-12.07,9.8-20.44,22.73-11.71,12.93-8.73,21.16-.36,22.72,11.71C62.3,64.65,62,76.29,61.91,88.86Z" transform="translate(0 -1.5)"/><path class="cls-4" d="M68.06,27.25a7.45,7.45,0,0,1-3.75-.93,6.59,6.59,0,0,1-2.56-2.57A7.55,7.55,0,0,1,60.83,20a7.61,7.61,0,0,1,.92-3.78,6.59,6.59,0,0,1,2.56-2.57,7.45,7.45,0,0,1,3.75-.93,7.38,7.38,0,0,1,3.73.93,6.67,6.67,0,0,1,2.54,2.57A7.61,7.61,0,0,1,75.25,20a7.55,7.55,0,0,1-.92,3.75,6.67,6.67,0,0,1-2.54,2.57A7.38,7.38,0,0,1,68.06,27.25ZM61.84,16.08l7.1-11.84a1.65,1.65,0,0,1,1.41-.86,1.55,1.55,0,0,1,1.07.37,1.52,1.52,0,0,1,.31,2L67.38,13ZM68,24.5a4.27,4.27,0,0,0,2.22-.57,3.89,3.89,0,0,0,1.52-1.59A4.82,4.82,0,0,0,72.31,20a4.84,4.84,0,0,0-.55-2.36,4.15,4.15,0,0,0-1.52-1.59,4.52,4.52,0,0,0-4.43,0,4,4,0,0,0-1.5,1.59A5,5,0,0,0,63.77,20a4.93,4.93,0,0,0,.54,2.34,3.72,3.72,0,0,0,1.5,1.59A4.25,4.25,0,0,0,68,24.5Z" transform="translate(0 -1.5)"/><path class="cls-5" d="M38.48,66s3.43.06,5,1.74-3.37,10.76-5,10.76-6.57-9.07-5-10.76S38.48,66,38.48,66Z" transform="translate(0 -1.5)"/><path class="cls-2" d="M25.25,60.9A2.94,2.94,0,1,0,22.31,58,3,3,0,0,0,25.25,60.9Z" transform="translate(0 -1.5)"/><path class="cls-6" d="M23.67,75.38a5.56,5.56,0,1,0-5.56-5.56A5.58,5.58,0,0,0,23.67,75.38Z" transform="translate(0 -1.5)"/><path class="cls-2" d="M51.71,60.9A2.94,2.94,0,1,0,48.77,58,2.95,2.95,0,0,0,51.71,60.9Z" transform="translate(0 -1.5)"/><path class="cls-6" d="M53.28,75.38a5.56,5.56,0,1,0-5.56-5.56A5.57,5.57,0,0,0,53.28,75.38Z" transform="translate(0 -1.5)"/><path class="cls-3" d="M11.09,21.88a.6.6,0,1,1,1.2,0v1.29a.6.6,0,1,1-1.2,0V21.88Zm3.42,2.21a.6.6,0,0,1,0,1.2H13.22a.6.6,0,1,1,0-1.2Zm-4.34,0a.6.6,0,0,1,0,1.2H8.88a.6.6,0,1,1,0-1.2Zm.92,2.12a.6.6,0,1,1,1.2,0V27.5a.6.6,0,1,1-1.2,0Z" transform="translate(0 -1.5)"/><path class="cls-3" d="M69.05,35.73a.6.6,0,1,1,1.2,0V37a.6.6,0,1,1-1.2,0V35.73ZM72.46,38a.6.6,0,1,1,0,1.2H71.17a.6.6,0,1,1,0-1.2Zm-4.34,0a.6.6,0,1,1,0,1.2H66.83a.6.6,0,0,1,0-1.2Zm.93,2.12a.6.6,0,0,1,1.2,0v1.29a.6.6,0,1,1-1.2,0Z" transform="translate(0 -1.5)"/><path class="cls-3" d="M44.77,8.8a.6.6,0,1,1,1.2,0v1.29a.6.6,0,0,1-1.2,0V8.8ZM48.19,11a.61.61,0,0,1,0,1.21h-1.3a.61.61,0,0,1,0-1.21Zm-4.34,0a.61.61,0,0,1,0,1.21H42.56a.61.61,0,1,1,0-1.21Zm.92,2.13a.6.6,0,0,1,1.2,0v1.29a.6.6,0,0,1-1.2,0Z" transform="translate(0 -1.5)"/><path class="cls-3" d="M38.23,17.94a1.11,1.11,0,1,0-1.1-1.1A1.1,1.1,0,0,0,38.23,17.94Z" transform="translate(0 -1.5)"/><path class="cls-3" d="M9.67,36a1.11,1.11,0,1,0-1.1-1.1A1.11,1.11,0,0,0,9.67,36Z" transform="translate(0 -1.5)"/><path class="cls-3" d="M53.35,26.76a1.11,1.11,0,1,0-1.1-1.1A1.1,1.1,0,0,0,53.35,26.76Z" transform="translate(0 -1.5)"/></g></g></svg>