<svg xmlns="http://www.w3.org/2000/svg" viewBox="0 0 77.28 87.36"><defs><style>.cls-1{fill:#f5eed8;}.cls-2,.cls-3{fill:#e4c39e;}.cls-2{fill-rule:evenodd;}.cls-4{font-size:30.61px;fill:#735e47;font-family:Comfortaa-Bold, Comfortaa;font-weight:700;}</style></defs><g id="Ebene_2" data-name="Ebene 2"><g id="OBJECTS"><rect class="cls-1" width="77.28" height="87.36" rx="6.72"/><path class="cls-2" d="M72.86,82.11a1.3,1.3,0,1,1-1.29,1.3,1.3,1.3,0,0,1,1.29-1.3Zm-8.56,0A1.3,1.3,0,1,1,63,83.41a1.3,1.3,0,0,1,1.29-1.3Zm-8.55,0a1.3,1.3,0,1,1-1.29,1.3,1.3,1.3,0,0,1,1.29-1.3Zm-8.56,0a1.3,1.3,0,1,1-1.29,1.3,1.29,1.29,0,0,1,1.29-1.3Zm-8.55,0a1.3,1.3,0,1,1-1.29,1.3,1.3,1.3,0,0,1,1.29-1.3Zm-8.56,0a1.3,1.3,0,1,1-1.29,1.3,1.29,1.29,0,0,1,1.29-1.3Zm-8.55,0a1.3,1.3,0,1,1-1.3,1.3,1.3,1.3,0,0,1,1.3-1.3Zm-8.56,0a1.3,1.3,0,1,1-1.29,1.3A1.29,1.29,0,0,1,13,82.11Zm-8.55,0a1.3,1.3,0,1,1-1.3,1.3,1.3,1.3,0,0,1,1.3-1.3ZM68.58,77a1.3,1.3,0,1,1-1.29,1.3A1.3,1.3,0,0,1,68.58,77ZM60,77a1.3,1.3,0,1,1-1.29,1.3A1.3,1.3,0,0,1,60,77Zm-8.55,0a1.3,1.3,0,1,1-1.29,1.3A1.3,1.3,0,0,1,51.47,77Zm-8.55,0a1.3,1.3,0,1,1-1.3,1.3,1.3,1.3,0,0,1,1.3-1.3Zm-8.56,0a1.3,1.3,0,1,1-1.29,1.3A1.3,1.3,0,0,1,34.36,77Zm-8.55,0a1.3,1.3,0,1,1-1.3,1.3,1.3,1.3,0,0,1,1.3-1.3Zm-8.56,0A1.3,1.3,0,1,1,16,78.3,1.3,1.3,0,0,1,17.25,77ZM8.69,77A1.3,1.3,0,1,1,7.4,78.3,1.3,1.3,0,0,1,8.69,77Zm64.17-4.18a1.29,1.29,0,1,1-1.29,1.29,1.29,1.29,0,0,1,1.29-1.29Zm-8.56,0A1.29,1.29,0,1,1,63,74.11a1.3,1.3,0,0,1,1.29-1.29Zm-8.55,0a1.29,1.29,0,1,1-1.29,1.29,1.29,1.29,0,0,1,1.29-1.29Zm-8.56,0a1.29,1.29,0,1,1-1.29,1.29,1.29,1.29,0,0,1,1.29-1.29Zm-8.55,0a1.29,1.29,0,1,1-1.29,1.29,1.29,1.29,0,0,1,1.29-1.29Zm-8.56,0a1.29,1.29,0,1,1-1.29,1.29,1.29,1.29,0,0,1,1.29-1.29Zm-8.55,0a1.29,1.29,0,1,1-1.3,1.29,1.29,1.29,0,0,1,1.3-1.29Zm-8.56,0a1.29,1.29,0,1,1-1.29,1.29A1.29,1.29,0,0,1,13,72.82Zm-8.55,0a1.29,1.29,0,1,1-1.3,1.29,1.29,1.29,0,0,1,1.3-1.29Zm64.16-5.11A1.3,1.3,0,1,1,67.29,69a1.29,1.29,0,0,1,1.29-1.29Zm-8.56,0A1.3,1.3,0,1,1,58.73,69,1.3,1.3,0,0,1,60,67.71Zm-8.55,0A1.3,1.3,0,1,1,50.18,69a1.29,1.29,0,0,1,1.29-1.29Zm-8.55,0A1.3,1.3,0,1,1,41.62,69a1.29,1.29,0,0,1,1.3-1.29Zm-8.56,0A1.3,1.3,0,1,1,33.07,69a1.29,1.29,0,0,1,1.29-1.29Zm-8.55,0A1.3,1.3,0,1,1,24.51,69a1.29,1.29,0,0,1,1.3-1.29Zm-8.56,0A1.3,1.3,0,1,1,16,69a1.29,1.29,0,0,1,1.29-1.29Zm-8.56,0A1.3,1.3,0,1,1,7.4,69a1.3,1.3,0,0,1,1.29-1.29Zm64.17-4.18a1.29,1.29,0,1,1-1.29,1.29,1.29,1.29,0,0,1,1.29-1.29Zm-8.56,0A1.29,1.29,0,1,1,63,64.82a1.29,1.29,0,0,1,1.29-1.29Zm-8.55,0a1.29,1.29,0,1,1-1.29,1.29,1.29,1.29,0,0,1,1.29-1.29Zm-8.56,0a1.29,1.29,0,1,1-1.29,1.29,1.28,1.28,0,0,1,1.29-1.29Zm-8.55,0a1.29,1.29,0,1,1-1.29,1.29,1.29,1.29,0,0,1,1.29-1.29Zm-8.56,0a1.29,1.29,0,1,1-1.29,1.29,1.28,1.28,0,0,1,1.29-1.29Zm-8.55,0a1.29,1.29,0,1,1-1.3,1.29,1.29,1.29,0,0,1,1.3-1.29Zm-8.56,0a1.29,1.29,0,1,1-1.29,1.29A1.28,1.28,0,0,1,13,63.53Zm-8.55,0a1.29,1.29,0,1,1-1.3,1.29,1.29,1.29,0,0,1,1.3-1.29Zm64.16-5.11a1.29,1.29,0,1,1-1.29,1.29,1.29,1.29,0,0,1,1.29-1.29Zm-8.56,0a1.29,1.29,0,1,1-1.29,1.29A1.3,1.3,0,0,1,60,58.42Zm-8.55,0a1.29,1.29,0,1,1-1.29,1.29,1.29,1.29,0,0,1,1.29-1.29Zm-8.55,0a1.29,1.29,0,1,1-1.3,1.29,1.29,1.29,0,0,1,1.3-1.29Zm-8.56,0a1.29,1.29,0,1,1-1.29,1.29,1.29,1.29,0,0,1,1.29-1.29Zm-8.55,0a1.29,1.29,0,1,1-1.3,1.29,1.29,1.29,0,0,1,1.3-1.29Zm-8.56,0A1.29,1.29,0,1,1,16,59.71a1.29,1.29,0,0,1,1.29-1.29Zm-8.56,0A1.29,1.29,0,1,1,7.4,59.71a1.3,1.3,0,0,1,1.29-1.29Zm64.17-4.19a1.3,1.3,0,1,1-1.29,1.3,1.3,1.3,0,0,1,1.29-1.3Zm-8.56,0A1.3,1.3,0,1,1,63,55.53a1.3,1.3,0,0,1,1.29-1.3Zm-8.55,0a1.3,1.3,0,1,1-1.29,1.3,1.3,1.3,0,0,1,1.29-1.3Zm-8.56,0a1.3,1.3,0,1,1-1.29,1.3,1.29,1.29,0,0,1,1.29-1.3Zm-8.55,0a1.3,1.3,0,1,1-1.29,1.3,1.3,1.3,0,0,1,1.29-1.3Zm-8.56,0a1.3,1.3,0,1,1-1.29,1.3,1.29,1.29,0,0,1,1.29-1.3Zm-8.55,0a1.3,1.3,0,1,1-1.3,1.3,1.3,1.3,0,0,1,1.3-1.3Zm-8.56,0a1.3,1.3,0,1,1-1.29,1.3A1.29,1.29,0,0,1,13,54.23Zm-8.55,0a1.3,1.3,0,1,1-1.3,1.3,1.3,1.3,0,0,1,1.3-1.3Zm64.16-5.11a1.3,1.3,0,1,1-1.29,1.3,1.3,1.3,0,0,1,1.29-1.3Zm-8.56,0a1.3,1.3,0,1,1-1.29,1.3A1.3,1.3,0,0,1,60,49.12Zm-8.55,0a1.3,1.3,0,1,1-1.29,1.3,1.3,1.3,0,0,1,1.29-1.3Zm-8.55,0a1.3,1.3,0,1,1-1.3,1.3,1.3,1.3,0,0,1,1.3-1.3Zm-8.56,0a1.3,1.3,0,1,1-1.29,1.3,1.3,1.3,0,0,1,1.29-1.3Zm-8.55,0a1.3,1.3,0,1,1-1.3,1.3,1.3,1.3,0,0,1,1.3-1.3Zm-8.56,0A1.3,1.3,0,1,1,16,50.42a1.3,1.3,0,0,1,1.29-1.3Zm-8.56,0a1.3,1.3,0,1,1-1.29,1.3,1.3,1.3,0,0,1,1.29-1.3Zm64.17-4.18a1.29,1.29,0,1,1-1.29,1.29,1.29,1.29,0,0,1,1.29-1.29Zm-8.56,0A1.29,1.29,0,1,1,63,46.23a1.3,1.3,0,0,1,1.29-1.29Zm-8.55,0a1.29,1.29,0,1,1-1.29,1.29,1.29,1.29,0,0,1,1.29-1.29Zm-8.56,0a1.29,1.29,0,1,1-1.29,1.29,1.29,1.29,0,0,1,1.29-1.29Zm-8.55,0a1.29,1.29,0,1,1-1.29,1.29,1.29,1.29,0,0,1,1.29-1.29Zm-8.56,0a1.29,1.29,0,1,1-1.29,1.29,1.29,1.29,0,0,1,1.29-1.29Zm-8.55,0a1.29,1.29,0,1,1-1.3,1.29,1.29,1.29,0,0,1,1.3-1.29Zm-8.56,0a1.29,1.29,0,1,1-1.29,1.29A1.29,1.29,0,0,1,13,44.94Zm-8.55,0a1.29,1.29,0,1,1-1.3,1.29,1.29,1.29,0,0,1,1.3-1.29Zm64.16-5.11a1.3,1.3,0,1,1-1.29,1.29,1.29,1.29,0,0,1,1.29-1.29Zm-8.56,0a1.3,1.3,0,1,1-1.29,1.29A1.3,1.3,0,0,1,60,39.83Zm-8.55,0a1.3,1.3,0,1,1-1.29,1.29,1.29,1.29,0,0,1,1.29-1.29Zm-8.55,0a1.3,1.3,0,1,1-1.3,1.29,1.29,1.29,0,0,1,1.3-1.29Zm-8.56,0a1.3,1.3,0,1,1-1.29,1.29,1.29,1.29,0,0,1,1.29-1.29Zm-8.55,0a1.3,1.3,0,1,1-1.3,1.29,1.29,1.29,0,0,1,1.3-1.29Zm-8.56,0A1.3,1.3,0,1,1,16,41.12a1.29,1.29,0,0,1,1.29-1.29Zm-8.56,0A1.3,1.3,0,1,1,7.4,41.12a1.3,1.3,0,0,1,1.29-1.29Zm64.17-4.18a1.29,1.29,0,1,1-1.29,1.29,1.29,1.29,0,0,1,1.29-1.29Zm-8.56,0A1.29,1.29,0,1,1,63,36.94a1.29,1.29,0,0,1,1.29-1.29Zm-8.55,0a1.29,1.29,0,1,1-1.29,1.29,1.29,1.29,0,0,1,1.29-1.29Zm-8.56,0a1.29,1.29,0,1,1-1.29,1.29,1.28,1.28,0,0,1,1.29-1.29Zm-8.55,0a1.29,1.29,0,1,1-1.29,1.29,1.29,1.29,0,0,1,1.29-1.29Zm-8.56,0a1.29,1.29,0,1,1-1.29,1.29,1.28,1.28,0,0,1,1.29-1.29Zm-8.55,0a1.29,1.29,0,1,1-1.3,1.29,1.29,1.29,0,0,1,1.3-1.29Zm-8.56,0a1.29,1.29,0,1,1-1.29,1.29A1.28,1.28,0,0,1,13,35.65Zm-8.55,0a1.29,1.29,0,1,1-1.3,1.29,1.29,1.29,0,0,1,1.3-1.29Zm64.16-5.11a1.29,1.29,0,1,1-1.29,1.29,1.29,1.29,0,0,1,1.29-1.29Zm-8.56,0a1.29,1.29,0,1,1-1.29,1.29A1.3,1.3,0,0,1,60,30.54Zm-8.55,0a1.29,1.29,0,1,1-1.29,1.29,1.29,1.29,0,0,1,1.29-1.29Zm-8.55,0a1.29,1.29,0,1,1-1.3,1.29,1.29,1.29,0,0,1,1.3-1.29Zm-8.56,0a1.29,1.29,0,1,1-1.29,1.29,1.29,1.29,0,0,1,1.29-1.29Zm-8.55,0a1.29,1.29,0,1,1-1.3,1.29,1.29,1.29,0,0,1,1.3-1.29Zm-8.56,0A1.29,1.29,0,1,1,16,31.83a1.29,1.29,0,0,1,1.29-1.29Zm-8.56,0A1.29,1.29,0,1,1,7.4,31.83a1.3,1.3,0,0,1,1.29-1.29Zm64.17-4.19a1.3,1.3,0,1,1-1.29,1.3,1.3,1.3,0,0,1,1.29-1.3Zm-8.56,0A1.3,1.3,0,1,1,63,27.65a1.3,1.3,0,0,1,1.29-1.3Zm-8.55,0a1.3,1.3,0,1,1-1.29,1.3,1.3,1.3,0,0,1,1.29-1.3Zm-8.56,0a1.3,1.3,0,1,1-1.29,1.3,1.29,1.29,0,0,1,1.29-1.3Zm-8.55,0a1.3,1.3,0,1,1-1.29,1.3,1.3,1.3,0,0,1,1.29-1.3Zm-8.56,0a1.3,1.3,0,1,1-1.29,1.3,1.29,1.29,0,0,1,1.29-1.3Zm-8.55,0a1.3,1.3,0,1,1-1.3,1.3,1.3,1.3,0,0,1,1.3-1.3Zm-8.56,0a1.3,1.3,0,1,1-1.29,1.3A1.29,1.29,0,0,1,13,26.35Zm-8.55,0a1.3,1.3,0,1,1-1.3,1.3,1.3,1.3,0,0,1,1.3-1.3Zm64.16-5.11a1.3,1.3,0,1,1-1.29,1.3,1.3,1.3,0,0,1,1.29-1.3Zm-8.56,0a1.3,1.3,0,1,1-1.29,1.3A1.3,1.3,0,0,1,60,21.24Zm-8.55,0a1.3,1.3,0,1,1-1.29,1.3,1.3,1.3,0,0,1,1.29-1.3Zm-8.55,0a1.3,1.3,0,1,1-1.3,1.3,1.3,1.3,0,0,1,1.3-1.3Zm-8.56,0a1.3,1.3,0,1,1-1.29,1.3,1.3,1.3,0,0,1,1.29-1.3Zm-8.55,0a1.3,1.3,0,1,1-1.3,1.3,1.3,1.3,0,0,1,1.3-1.3Zm-8.56,0A1.3,1.3,0,1,1,16,22.54a1.3,1.3,0,0,1,1.29-1.3Zm-8.56,0a1.3,1.3,0,1,1-1.29,1.3,1.3,1.3,0,0,1,1.29-1.3Zm64.17-4.18a1.29,1.29,0,1,1-1.29,1.29,1.29,1.29,0,0,1,1.29-1.29Zm-8.56,0A1.29,1.29,0,1,1,63,18.35a1.3,1.3,0,0,1,1.29-1.29Zm-8.55,0a1.29,1.29,0,1,1-1.29,1.29,1.29,1.29,0,0,1,1.29-1.29Zm-8.56,0a1.29,1.29,0,1,1-1.29,1.29,1.29,1.29,0,0,1,1.29-1.29Zm-8.55,0a1.29,1.29,0,1,1-1.29,1.29,1.29,1.29,0,0,1,1.29-1.29Zm-8.56,0a1.29,1.29,0,1,1-1.29,1.29,1.29,1.29,0,0,1,1.29-1.29Zm-8.55,0a1.29,1.29,0,1,1-1.3,1.29,1.29,1.29,0,0,1,1.3-1.29Zm-8.56,0a1.29,1.29,0,1,1-1.29,1.29A1.29,1.29,0,0,1,13,17.06Zm-8.55,0a1.29,1.29,0,1,1-1.3,1.29,1.29,1.29,0,0,1,1.3-1.29ZM68.58,12a1.3,1.3,0,1,1-1.29,1.29A1.29,1.29,0,0,1,68.58,12ZM60,12a1.3,1.3,0,1,1-1.29,1.29A1.3,1.3,0,0,1,60,12Zm-8.55,0a1.3,1.3,0,1,1-1.29,1.29A1.29,1.29,0,0,1,51.47,12Zm-8.55,0a1.3,1.3,0,1,1-1.3,1.29A1.29,1.29,0,0,1,42.92,12Zm-8.56,0a1.3,1.3,0,1,1-1.29,1.29A1.29,1.29,0,0,1,34.36,12Zm-8.55,0a1.3,1.3,0,1,1-1.3,1.29A1.29,1.29,0,0,1,25.81,12Zm-8.56,0A1.3,1.3,0,1,1,16,13.24,1.29,1.29,0,0,1,17.25,12ZM8.69,12A1.3,1.3,0,1,1,7.4,13.24,1.3,1.3,0,0,1,8.69,12ZM72.86,7.77a1.29,1.29,0,1,1-1.29,1.29,1.29,1.29,0,0,1,1.29-1.29Zm-8.56,0A1.29,1.29,0,1,1,63,9.06,1.29,1.29,0,0,1,64.3,7.77Zm-8.55,0a1.29,1.29,0,1,1-1.29,1.29,1.29,1.29,0,0,1,1.29-1.29Zm-8.56,0A1.29,1.29,0,1,1,45.9,9.06a1.28,1.28,0,0,1,1.29-1.29Zm-8.55,0a1.29,1.29,0,1,1-1.29,1.29,1.29,1.29,0,0,1,1.29-1.29Zm-8.56,0a1.29,1.29,0,1,1-1.29,1.29,1.28,1.28,0,0,1,1.29-1.29Zm-8.55,0a1.29,1.29,0,1,1-1.3,1.29,1.29,1.29,0,0,1,1.3-1.29ZM13,7.77a1.29,1.29,0,1,1-1.29,1.29A1.28,1.28,0,0,1,13,7.77Zm-8.55,0a1.29,1.29,0,1,1-1.3,1.29,1.29,1.29,0,0,1,1.3-1.29ZM68.58,2.66A1.29,1.29,0,1,1,67.29,4a1.29,1.29,0,0,1,1.29-1.29ZM60,2.66A1.29,1.29,0,1,1,58.73,4,1.3,1.3,0,0,1,60,2.66Zm-8.55,0A1.29,1.29,0,1,1,50.18,4a1.29,1.29,0,0,1,1.29-1.29Zm-8.55,0A1.29,1.29,0,1,1,41.62,4a1.29,1.29,0,0,1,1.3-1.29Zm-8.56,0A1.29,1.29,0,1,1,33.07,4a1.29,1.29,0,0,1,1.29-1.29Zm-8.55,0A1.29,1.29,0,1,1,24.51,4a1.29,1.29,0,0,1,1.3-1.29Zm-8.56,0A1.29,1.29,0,1,1,16,4a1.29,1.29,0,0,1,1.29-1.29Zm-8.56,0A1.29,1.29,0,1,1,7.4,4,1.3,1.3,0,0,1,8.69,2.66Z"/><circle class="cls-3" cx="38.64" cy="43.68" r="17.83"/><text class="cls-4" transform="translate(31.57 53.99)">2</text></g></g></svg>