<svg xmlns="http://www.w3.org/2000/svg" viewBox="0 0 141.11 90.75"><defs><style>.cls-1{fill:#b7c7b1;}.cls-2{font-size:40.09px;font-family:Comfortaa-Bold, Comfortaa;font-weight:700;}.cls-2,.cls-3,.cls-5{fill:#f5eed8;}.cls-3{font-size:36.7px;font-family:Nickainley-Normal, Nickainley;}.cls-4{letter-spacing:0.05em;}.cls-5{fill-rule:evenodd;}</style></defs><g id="Ebene_2" data-name="Ebene 2"><g id="OBJECTS"><rect class="cls-1" width="141.11" height="87.36" rx="6.72"/><text class="cls-2" transform="translate(7.88 79.16)">4</text><text class="cls-3" transform="translate(14.18 36.77)"><tspan class="cls-4">F</tspan><tspan x="25" y="0">rohen</tspan></text><text class="cls-3" transform="translate(38.02 67.43)">Advent</text><path class="cls-5" d="M41.54,48.8a.6.6,0,1,1,1.2,0v1.29a.6.6,0,0,1-1.2,0V48.8ZM45,51a.6.6,0,0,1,.61.6.6.6,0,0,1-.61.6H43.66a.6.6,0,0,1-.6-.6.6.6,0,0,1,.6-.6Zm-4.33,0a.6.6,0,0,1,.6.6.6.6,0,0,1-.6.6H39.33a.6.6,0,0,1-.61-.6.6.6,0,0,1,.61-.6Zm.92,2.13a.6.6,0,1,1,1.2,0v1.29a.6.6,0,1,1-1.2,0Z"/><path class="cls-5" d="M50.79,63.75a1.1,1.1,0,1,0-1.11-1.1A1.11,1.11,0,0,0,50.79,63.75Z"/><path class="cls-5" d="M115.64,32.5a.6.6,0,0,1,1.2,0v1.29a.6.6,0,0,1-1.2,0V32.5Zm3.41,2.21a.61.61,0,1,1,0,1.21h-1.29a.61.61,0,0,1,0-1.21Zm-4.33,0a.61.61,0,0,1,0,1.21h-1.29a.61.61,0,1,1,0-1.21Zm.92,2.13a.6.6,0,1,1,1.2,0v1.29a.6.6,0,1,1-1.2,0Z"/><path class="cls-5" d="M12.74,11.71a.61.61,0,0,1,1.21,0V13a.61.61,0,0,1-1.21,0V11.71Zm3.42,2.21a.61.61,0,0,1,0,1.21H14.87a.61.61,0,0,1,0-1.21Zm-4.34,0a.61.61,0,0,1,0,1.21H10.53a.61.61,0,0,1,0-1.21Zm.92,2.13a.61.61,0,0,1,1.21,0v1.29a.61.61,0,0,1-1.21,0Z"/><path class="cls-5" d="M17.13,38.91A1.11,1.11,0,1,0,16,37.81,1.11,1.11,0,0,0,17.13,38.91Z"/><path class="cls-5" d="M63.12,8A1.11,1.11,0,1,0,62,6.94,1.11,1.11,0,0,0,63.12,8Z"/><path class="cls-5" d="M110.78,15.81a1.11,1.11,0,1,0-1.1-1.1A1.1,1.1,0,0,0,110.78,15.81Z"/><path class="cls-5" d="M125.9,51.51a1.11,1.11,0,1,0-1.1-1.11A1.11,1.11,0,0,0,125.9,51.51Z"/><path class="cls-5" d="M73.82,78.17a1.1,1.1,0,1,0-1.1-1.1A1.11,1.11,0,0,0,73.82,78.17Z"/></g></g></svg>