<svg xmlns="http://www.w3.org/2000/svg" viewBox="0 0 77.27 87.35"><defs><style>.cls-1{fill:#f5eed8;}.cls-2{fill:#b53b3d;}.cls-3,.cls-4{fill:#2f3029;}.cls-4{fill-rule:evenodd;}</style></defs><g id="Ebene_2" data-name="Ebene 2"><g id="OBJECTS"><rect class="cls-1" width="77.27" height="87.35" rx="6.72"/><circle class="cls-2" cx="38.64" cy="43.68" r="29.92" transform="translate(-16.65 62.23) rotate(-67.05)"/><path class="cls-1" d="M37,54.41A1.51,1.51,0,0,1,35.88,54a1.55,1.55,0,0,1-.46-1.11V34.17l-2.23.95a2.46,2.46,0,0,1-1,.22,1.54,1.54,0,0,1-1.12-.43,1.48,1.48,0,0,1-.44-1.1,1.7,1.7,0,0,1,.24-.89,1.4,1.4,0,0,1,.77-.58l4.77-1.72.31-.09.28,0a1.43,1.43,0,0,1,1.11.45,1.57,1.57,0,0,1,.42,1.14V52.84A1.55,1.55,0,0,1,38.09,54,1.59,1.59,0,0,1,37,54.41Z"/><path class="cls-1" d="M51.76,54.41A1.49,1.49,0,0,1,50.69,54a1.51,1.51,0,0,1-.46-1.11V34.17L48,35.12a2.5,2.5,0,0,1-1,.22,1.54,1.54,0,0,1-1.12-.43,1.45,1.45,0,0,1-.44-1.1,1.7,1.7,0,0,1,.24-.89,1.36,1.36,0,0,1,.77-.58l4.77-1.72a1.58,1.58,0,0,1,.31-.09l.27,0a1.45,1.45,0,0,1,1.12.45,1.57,1.57,0,0,1,.41,1.14V52.84A1.51,1.51,0,0,1,52.89,54,1.55,1.55,0,0,1,51.76,54.41Z"/><rect class="cls-3" x="27.93" y="12.28" width="21.42" height="5.25" rx="1.89"/><rect class="cls-3" x="32.13" y="10.28" width="13.01" height="5.25" rx="1.89"/><path class="cls-4" d="M37.76,4.69h1.76a3.15,3.15,0,0,1,2.22.93h0a3.16,3.16,0,0,1,.92,2.23V12.5a3.14,3.14,0,0,1-.92,2.23h0a3.15,3.15,0,0,1-2.22.93H37.76a3.15,3.15,0,0,1-2.23-.93h0a3.11,3.11,0,0,1-.93-2.23V7.85a3.13,3.13,0,0,1,.93-2.23h0a3.15,3.15,0,0,1,2.23-.93Zm1.76,1.79H37.76a1.37,1.37,0,0,0-1.37,1.37V12.5a1.37,1.37,0,0,0,1.37,1.37h1.76a1.38,1.38,0,0,0,1-.4,1.4,1.4,0,0,0,.4-1V7.85a1.4,1.4,0,0,0-.4-1A1.38,1.38,0,0,0,39.52,6.48Z"/><path class="cls-4" d="M64.61,9.58a.6.6,0,0,1,1.2,0v1.29a.6.6,0,1,1-1.2,0V9.58ZM68,11.79A.61.61,0,1,1,68,13H66.73a.61.61,0,0,1,0-1.21Zm-4.33,0a.61.61,0,0,1,0,1.21H62.4a.61.61,0,1,1,0-1.21Zm.92,2.13a.6.6,0,0,1,1.2,0v1.29a.6.6,0,1,1-1.2,0Z"/><path class="cls-4" d="M11.15,68.5a.6.6,0,1,1,1.2,0v1.29a.6.6,0,1,1-1.2,0V68.5Zm3.41,2.22a.6.6,0,0,1,0,1.2H13.27a.6.6,0,0,1,0-1.2Zm-4.34,0a.6.6,0,1,1,0,1.2H8.93a.6.6,0,0,1,0-1.2Zm.93,2.12a.6.6,0,1,1,1.2,0v1.29a.6.6,0,1,1-1.2,0Z"/><path class="cls-4" d="M64.58,71a1.11,1.11,0,1,0-1.1-1.11A1.11,1.11,0,0,0,64.58,71Z"/><path class="cls-4" d="M70.88,24.84a1.11,1.11,0,1,0-1.1-1.1A1.11,1.11,0,0,0,70.88,24.84Z"/><path class="cls-4" d="M7.89,63.48a1.11,1.11,0,1,0-1.1-1.11A1.11,1.11,0,0,0,7.89,63.48Z"/><path class="cls-4" d="M10,16.44a1.11,1.11,0,1,0-1.1-1.1A1.1,1.1,0,0,0,10,16.44Z"/></g></g></svg>