<svg xmlns="http://www.w3.org/2000/svg" viewBox="0 0 141.11 87.36"><defs><style>.cls-1{fill:#b7c7b1;}.cls-2{fill:#2f3029;}.cls-3{fill:#f5eed8;fill-rule:evenodd;}</style></defs><g id="Ebene_2" data-name="Ebene 2"><g id="OBJECTS"><rect class="cls-1" width="141.11" height="87.36" rx="6.72"/><path class="cls-2" d="M10.93,28.16a1.52,1.52,0,0,1-1.12-.46,1.57,1.57,0,0,1-.44-1.1,1.5,1.5,0,0,1,.43-1.11l8.69-10.16a10.75,10.75,0,0,0,1.42-2,3.8,3.8,0,0,0,.51-1.8A5.53,5.53,0,0,0,20,9.18a3.48,3.48,0,0,0-1.32-1.51,4,4,0,0,0-4.14.06A4.16,4.16,0,0,0,13,9.32a4.5,4.5,0,0,0-.54,2.19,1.56,1.56,0,0,1-2.66,1.07,1.45,1.45,0,0,1-.46-1.07,7.3,7.3,0,0,1,1-3.72A7,7,0,0,1,12.9,5.2a7.29,7.29,0,0,1,3.69-1,7.08,7.08,0,0,1,3.61.89,6.13,6.13,0,0,1,2.38,2.51,8.3,8.3,0,0,1,.84,3.86,5.19,5.19,0,0,1-.42,2,9.93,9.93,0,0,1-1,1.92,16.75,16.75,0,0,1-1.27,1.66l-7,8h8.57a1.52,1.52,0,0,1,1.14.47,1.53,1.53,0,0,1,0,2.19,1.59,1.59,0,0,1-1.14.46Z"/><path class="cls-2" d="M42,28.16a1.4,1.4,0,0,1-1-.46,1.56,1.56,0,0,1-.43-1.1V22.74H30.33a1.4,1.4,0,0,1-1.1-.43,1.59,1.59,0,0,1-.45-1,1.52,1.52,0,0,1,.29-1L40.8,4.93a1.85,1.85,0,0,1,.56-.49,1.49,1.49,0,0,1,.72-.19,1.32,1.32,0,0,1,1,.46,1.67,1.67,0,0,1,.4,1.14V19.92h1.84a2,2,0,0,1,1.1.31,1.23,1.23,0,0,1,.46,1.1,1.33,1.33,0,0,1-.46,1,1.61,1.61,0,0,1-1.1.41H43.52V26.6a1.56,1.56,0,0,1-.43,1.1A1.45,1.45,0,0,1,42,28.16Zm-9.82-7.38-.83-.86h9.18V7.31l.95,1.23Z"/><path class="cls-2" d="M51.28,37.84a.93.93,0,0,1-.68-.27.91.91,0,0,1-.28-.68V24.44a.9.9,0,0,1,.28-.69,1,1,0,0,1,.68-.26h8.3a.91.91,0,0,1,.68.25.82.82,0,0,1,.26.65.77.77,0,0,1-.26.62.94.94,0,0,1-.68.24H52.23v4.47h5.28a.92.92,0,0,1,.68.25.83.83,0,0,1,.26.63.87.87,0,0,1-.26.64,1,1,0,0,1-.68.24H52.23v5.41a.94.94,0,0,1-.27.68A1,1,0,0,1,51.28,37.84Z"/><path class="cls-2" d="M67.1,37.84a.94.94,0,0,1-.68-.22.93.93,0,0,1-.24-.69V28.71a.84.84,0,0,1,.92-.92,1,1,0,0,1,.69.23.94.94,0,0,1,.23.69v8.22a1,1,0,0,1-.23.68A.93.93,0,0,1,67.1,37.84Zm0-6.28a3.68,3.68,0,0,1,.54-2,4,4,0,0,1,3.48-1.9,3,3,0,0,1,1.65.36.75.75,0,0,1,.41.85.7.7,0,0,1-.21.4.67.67,0,0,1-.36.17,1,1,0,0,1-.44,0,5,5,0,0,0-2.11,0,2.78,2.78,0,0,0-1.48.75,1.92,1.92,0,0,0-.54,1.4Z"/><path class="cls-2" d="M82.33,37.92a5.23,5.23,0,0,1-2.63-.65,4.72,4.72,0,0,1-1.79-1.81,5.16,5.16,0,0,1-.66-2.63,5.25,5.25,0,0,1,.66-2.66,4.62,4.62,0,0,1,1.79-1.8,5.61,5.61,0,0,1,5.24,0,4.69,4.69,0,0,1,1.79,1.8,5.35,5.35,0,0,1,.65,2.66,5.25,5.25,0,0,1-.64,2.63A4.69,4.69,0,0,1,85,37.27,5.26,5.26,0,0,1,82.33,37.92Zm0-1.66A3.18,3.18,0,0,0,84,35.82a3.11,3.11,0,0,0,1.15-1.21,3.8,3.8,0,0,0,.41-1.78,3.85,3.85,0,0,0-.41-1.8A3.14,3.14,0,0,0,84,29.81a3.47,3.47,0,0,0-3.38,0A3.17,3.17,0,0,0,79.48,31a3.74,3.74,0,0,0-.42,1.8,3.69,3.69,0,0,0,.42,1.78,3.14,3.14,0,0,0,2.85,1.65Z"/><path class="cls-2" d="M94.51,34.19a.89.89,0,0,1-.67-.27.9.9,0,0,1-.27-.67V24.42a.91.91,0,0,1,.94-.93.89.89,0,0,1,.68.26.9.9,0,0,1,.26.67v8.83a.94.94,0,0,1-.26.67A.9.9,0,0,1,94.51,34.19Zm0,3.67a.92.92,0,0,1-.67-.26.9.9,0,0,1-.27-.67v-8.2a.9.9,0,0,1,.27-.68.94.94,0,0,1,1.61.68v8.2a.89.89,0,0,1-.94.93Zm7.55,0a.94.94,0,0,1-.67-.26.9.9,0,0,1-.26-.67V32.4a3.36,3.36,0,0,0-.39-1.71,2.39,2.39,0,0,0-1-1,3.38,3.38,0,0,0-1.5-.32,3,3,0,0,0-1.39.31,2.66,2.66,0,0,0-1,.84,2.07,2.07,0,0,0-.36,1.2H94.29a3.83,3.83,0,0,1,.56-2.07,4.08,4.08,0,0,1,1.53-1.44,4.55,4.55,0,0,1,2.19-.53,4.7,4.7,0,0,1,2.27.54,3.84,3.84,0,0,1,1.58,1.59A5.22,5.22,0,0,1,103,32.4v4.53a.9.9,0,0,1-.27.67A.92.92,0,0,1,102.06,37.86Z"/><path class="cls-2" d="M114.24,37.92a5.6,5.6,0,0,1-2.71-.65,4.83,4.83,0,0,1-1.86-1.81,5.17,5.17,0,0,1-.67-2.63,5.45,5.45,0,0,1,.64-2.66,4.59,4.59,0,0,1,1.75-1.8,5,5,0,0,1,2.58-.65,4.64,4.64,0,0,1,2.46.63A4.1,4.1,0,0,1,118,30.1a5.77,5.77,0,0,1,.54,2.56.8.8,0,0,1-.23.58.87.87,0,0,1-.61.23h-7.41V32h7.35l-.75.51a3.91,3.91,0,0,0-.37-1.64,2.71,2.71,0,0,0-1-1.15A2.8,2.8,0,0,0,114,29.3a3.35,3.35,0,0,0-1.8.46A2.94,2.94,0,0,0,111,31a4.18,4.18,0,0,0-.38,1.81,3.5,3.5,0,0,0,.46,1.8,3.32,3.32,0,0,0,1.27,1.25,3.73,3.73,0,0,0,1.85.46,3.53,3.53,0,0,0,1.17-.21,3.8,3.8,0,0,0,1-.49,1,1,0,0,1,.59-.21.8.8,0,0,1,.56.19.86.86,0,0,1,.33.61.63.63,0,0,1-.29.57,5.15,5.15,0,0,1-1.55.81A5.8,5.8,0,0,1,114.24,37.92Z"/><path class="cls-2" d="M23.7,39.74a1.6,1.6,0,0,1,1.75,1.6c0,1.39-2.13,2.51-4.24,3.08-1.68,4.23-4.5,13.89-4.5,15.58s.66,2.63,2.05,2.69c1.71,0,3.52-2.81,5.09-6.19.89-1.86,4.36-11.46,4.65-12.82a.63.63,0,1,1,1.22.35c-2.34,7-4.36,12.89-4.36,15.82,0,1.66.48,2.78,1.84,2.78,3.11,0,4.91-5.68,6.69-11.34,1.9-5.92,3.73-11.82,7.52-11.82a.64.64,0,0,1,.66.62.62.62,0,0,1-.63.63c-2.87,0-4.59,5.42-6.36,11-1.93,6.08-3.85,12.24-7.88,12.24-2.11,0-3.08-1.75-3.08-4.06,0-.39,0-.8.06-1.22-1.57,3-3.44,5.31-5.42,5.31-2.25-.06-3.29-1.52-3.29-3.94,0-1.9,2.28-9.84,4.29-15.32-.59.12-1.18.21-1.8.3-3.73.59-8.8,1.3-8.8,4.86A2.45,2.45,0,0,0,11.5,52.5a.59.59,0,0,1,.62.6.64.64,0,0,1-.65.65,3.65,3.65,0,0,1-3.55-4c0-4.44,5.57-5.36,9.83-6,.89-.15,1.75-.24,2.52-.39C20.92,41.66,22.19,39.74,23.7,39.74Zm.42,1.6a.41.41,0,0,0-.42-.42c-.65,0-1.42,1-1.89,2C23.05,42.67,24.12,41.81,24.12,41.34Z"/><path class="cls-2" d="M47.16,56.32a.71.71,0,0,1-.06.24c-1.92,4.27-4.17,6.22-7.16,6.22a3.66,3.66,0,0,1-3.88-4.06c.17-3.79,3.25-9.95,6.75-9.95,1.48,0,2.52.77,2.52,2.19,0,3.14-4.42,5-7.71,5.84a9.06,9.06,0,0,0-.32,2A2.48,2.48,0,0,0,40,61.54c2.43.06,4.33-1.66,6-5.48a.67.67,0,0,1,.83-.33A.7.7,0,0,1,47.16,56.32ZM44.08,51c0-.8-.62-.94-1.27-.94-2.05,0-3.76,3.08-4.71,5.36C40.56,54.61,44.08,53.15,44.08,51Z"/><path class="cls-2" d="M52.61,56.29a.88.88,0,0,1-.06.27c-1.42,3.2-3,6.22-5.45,6.22A2.15,2.15,0,0,1,45,60.29c.09-2.31,2.19-7.73,3.5-11.1a.61.61,0,1,1,1.15.38c-2.87,8.09-3.4,9.45-3.4,10.72,0,.86.26,1.25.88,1.25,1.84,0,3.2-3,4.3-5.48a.68.68,0,0,1,.59-.39.71.71,0,0,1,.24.06A.62.62,0,0,1,52.61,56.29Zm-3.37-10a1,1,0,0,1,1-1,1,1,0,1,1,0,2A1,1,0,0,1,49.24,46.25Z"/><path class="cls-2" d="M64.43,56.32a.93.93,0,0,1-.06.24C62.36,61,61,62.78,59,62.78c-1.45,0-2.13-1-2.13-2.49,0-2.72,2.31-6.51,2.31-8.79A1.38,1.38,0,0,0,57.59,50a3.64,3.64,0,0,0-2.34,1.62c-1.87,2.37-2.13,3.53-4.77,10.76a.64.64,0,0,1-.8.41.63.63,0,0,1-.39-.8c2.82-7.82,5.37-14.87,6.34-17.74a.64.64,0,0,1,1.19.44c-.27.77-.92,2.64-1.93,5.45a4,4,0,0,1,2.7-1.39,2.47,2.47,0,0,1,2.78,2.79c0,2.25-2.31,6.66-2.31,8.79,0,.86.27,1.25.89,1.25,1.42,0,2.58-1.66,4.27-5.48a.62.62,0,0,1,.56-.39.76.76,0,0,1,.26.06A.65.65,0,0,1,64.43,56.32Z"/><path class="cls-2" d="M76.25,56.29a.88.88,0,0,1-.06.27c-2,4.47-3.41,6.22-5.42,6.22-1.42,0-2.13-1-2.13-2.49,0-2.78,2.31-6.22,2.31-8.79A1.38,1.38,0,0,0,69.41,50c-1.81,0-4.06,4-5,6.51l-2.07,5.87a.65.65,0,0,1-.8.41.61.61,0,0,1-.39-.8c1.54-4.26,3.41-9.62,4.56-12.79a.61.61,0,0,1,.6-.42.62.62,0,0,1,.59.83l-.24.59a4,4,0,0,1,2.76-1.45,2.46,2.46,0,0,1,2.78,2.79c0,2.63-2.31,6.51-2.31,8.79,0,.86.27,1.25.89,1.25,1.39,0,2.46-1.57,4.26-5.48a.65.65,0,0,1,.57-.39.82.82,0,0,1,.26.06A.64.64,0,0,1,76.25,56.29Z"/><path class="cls-2" d="M88.18,56.29a.88.88,0,0,1-.06.27l0,.09c-1.12,2.49-2.72,6.13-5.38,6.13-1.43,0-2.14-1-2.14-2.49-1.18,1.66-2.43,2.49-3.7,2.49-1.66,0-2.43-1.42-2.43-3.2,0-3.88,3-10.81,6.55-10.81a2.76,2.76,0,0,1,2.69,1.57c.18-.5.36-1,.51-1.33a.62.62,0,0,1,1.15.44l-1.48,4c-1.07,3-2,5.57-2,6.87,0,.89.26,1.25.89,1.25,1.83,0,3.25-3.2,4.23-5.39l0-.09a.63.63,0,0,1,.56-.39.88.88,0,0,1,.27.06A.63.63,0,0,1,88.18,56.29Zm-6-2.22.71-1.89C82.82,50.81,82.05,50,81,50c-2.73,0-5.25,6.42-5.3,9.35,0,1.31.26,2.17,1.15,2.17C79.24,61.54,81,57.09,82.17,54.07Z"/><path class="cls-2" d="M97.57,56.32a.71.71,0,0,1-.06.24c-1.8,4-3.93,6.22-7.37,6.22-2.16,0-3.58-1.63-3.58-4.06,0-4.62,3.7-9.95,6.72-9.95,1.69,0,2.52,1.16,2.52,2.79,0,1.33-.65,2.69-1.34,2.69a.56.56,0,0,1-.62-.59c0-.42.71-.92.71-2.1S94.17,50,93.28,50C91,50,87.8,55.2,87.8,58.75c0,1.66,1,2.79,2.37,2.79,2.87,0,4.71-2.08,6.19-5.48a.67.67,0,0,1,.83-.33A.68.68,0,0,1,97.57,56.32Z"/><path class="cls-2" d="M109.39,56.32a.93.93,0,0,1-.06.24c-2,4.47-3.4,6.22-5.42,6.22-1.45,0-2.13-1-2.13-2.49,0-2.72,2.31-6.51,2.31-8.79A1.37,1.37,0,0,0,102.55,50a3.64,3.64,0,0,0-2.34,1.62c-1.87,2.37-2.13,3.53-4.77,10.76a.64.64,0,0,1-.8.41.63.63,0,0,1-.38-.8c2.81-7.82,5.36-14.87,6.33-17.74a.64.64,0,0,1,1.19.44c-.27.77-.92,2.64-1.93,5.45a4,4,0,0,1,2.7-1.39,2.47,2.47,0,0,1,2.78,2.79c0,2.25-2.31,6.66-2.31,8.79,0,.86.27,1.25.89,1.25,1.42,0,2.58-1.66,4.27-5.48a.63.63,0,0,1,.56-.39.88.88,0,0,1,.27.06A.66.66,0,0,1,109.39,56.32Z"/><path class="cls-2" d="M115.55,56.29a.88.88,0,0,1-.06.27c-1.71,3.7-3.37,6.22-6.1,6.22a2.2,2.2,0,0,1-2.19-2.49,23.25,23.25,0,0,1,1.69-6.1L110.4,50h-1.87a.61.61,0,0,1-.62-.63.63.63,0,0,1,.62-.62h2.28c.06-.12,1.52-4.29,1.54-4.41a.61.61,0,0,1,.6-.42.62.62,0,0,1,.59.83c.09-.17-1.19,3.44-1.39,4h2a.62.62,0,0,1,.62.62.61.61,0,0,1-.62.63H111.7c-.17.56-.68,1.92-1.66,4.68-1.21,3.43-1.59,4.79-1.59,5.65s.35,1.25.94,1.25c2.14,0,3.56-2.46,5-5.51a.7.7,0,0,1,.59-.36.88.88,0,0,1,.27.06A.66.66,0,0,1,115.55,56.29Z"/><path class="cls-2" d="M124.94,56.32a.71.71,0,0,1-.06.24c-1.92,4.27-4.17,6.22-7.17,6.22a3.67,3.67,0,0,1-3.88-4.06c.18-3.79,3.26-9.95,6.76-9.95,1.48,0,2.52.77,2.52,2.19,0,3.14-4.42,5-7.71,5.84a9.06,9.06,0,0,0-.32,2,2.48,2.48,0,0,0,2.66,2.79c2.43.06,4.33-1.66,6-5.48a.66.66,0,0,1,.83-.33A.7.7,0,0,1,124.94,56.32ZM121.86,51c0-.8-.62-.94-1.27-.94-2,0-3.76,3.08-4.71,5.36C118.34,54.61,121.86,53.15,121.86,51Z"/><path class="cls-2" d="M136.76,56.29a.88.88,0,0,1-.06.27c-2,4.47-3.41,6.22-5.42,6.22-1.42,0-2.13-1-2.13-2.49,0-2.78,2.31-6.22,2.31-8.79A1.38,1.38,0,0,0,129.92,50c-1.81,0-4.06,4-5,6.51l-2.07,5.87a.64.64,0,0,1-.8.41.61.61,0,0,1-.38-.8c1.54-4.26,3.4-9.62,4.56-12.79a.59.59,0,0,1,.59-.42.62.62,0,0,1,.59.83l-.24.59a4,4,0,0,1,2.76-1.45,2.46,2.46,0,0,1,2.78,2.79c0,2.63-2.31,6.51-2.31,8.79,0,.86.27,1.25.89,1.25,1.39,0,2.46-1.57,4.27-5.48a.62.62,0,0,1,.56-.39.76.76,0,0,1,.26.06A.64.64,0,0,1,136.76,56.29Z"/><path class="cls-3" d="M102.32,12.23a.61.61,0,0,1,1.21,0v1.29a.61.61,0,1,1-1.21,0V12.23Zm3.42,2.22a.6.6,0,0,1,0,1.2h-1.29a.6.6,0,1,1,0-1.2Zm-4.34,0a.6.6,0,1,1,0,1.2h-1.29a.6.6,0,0,1,0-1.2Zm.92,2.12a.61.61,0,0,1,1.21,0v1.29a.61.61,0,0,1-1.21,0Z"/><path class="cls-3" d="M89,21a1.1,1.1,0,1,0-1.1-1.1A1.1,1.1,0,0,0,89,21Z"/><path class="cls-3" d="M42.27,29.25a.61.61,0,0,1,1.21,0v1.29a.61.61,0,0,1-1.21,0V29.25Zm3.42,2.21a.61.61,0,0,1,0,1.21H44.4a.61.61,0,0,1,0-1.21Zm-4.34,0a.61.61,0,0,1,0,1.21H40.06a.61.61,0,0,1,0-1.21Zm.92,2.13a.61.61,0,1,1,1.21,0v1.29a.61.61,0,0,1-1.21,0Z"/><path class="cls-3" d="M13.5,52.13A1.1,1.1,0,1,0,12.4,51,1.11,1.11,0,0,0,13.5,52.13Z"/><path class="cls-3" d="M29,75.44a1.1,1.1,0,1,0-1.1-1.1A1.11,1.11,0,0,0,29,75.44Z"/><path class="cls-3" d="M82.38,76.28a1.1,1.1,0,1,0-1.1-1.1A1.1,1.1,0,0,0,82.38,76.28Z"/><path class="cls-3" d="M130.47,45.83a1.1,1.1,0,1,0-1.1-1.1A1.1,1.1,0,0,0,130.47,45.83Z"/><path class="cls-3" d="M114,69.61a.61.61,0,1,1,1.21,0V70.9a.61.61,0,0,1-1.21,0V69.61Zm3.42,2.21a.6.6,0,1,1,0,1.2h-1.29a.6.6,0,1,1,0-1.2Zm-4.34,0a.6.6,0,1,1,0,1.2h-1.29a.6.6,0,1,1,0-1.2ZM114,74a.61.61,0,1,1,1.21,0v1.29a.61.61,0,0,1-1.21,0Z"/><path class="cls-3" d="M49.36,70.24a.6.6,0,1,1,1.2,0v1.29a.6.6,0,0,1-1.2,0V70.24Zm3.41,2.21a.6.6,0,1,1,0,1.2H51.48a.6.6,0,0,1,0-1.2Zm-4.34,0a.6.6,0,1,1,0,1.2H47.14a.6.6,0,0,1,0-1.2Zm.93,2.13a.6.6,0,1,1,1.2,0v1.29a.6.6,0,0,1-1.2,0Z"/><path class="cls-3" d="M58.44,15.39a1.11,1.11,0,1,0-1.1-1.11A1.11,1.11,0,0,0,58.44,15.39Z"/></g></g></svg>