<svg xmlns="http://www.w3.org/2000/svg" viewBox="0 0 78.24 87.35"><defs><style>.cls-1{fill:#2f3029;}.cls-2,.cls-6{fill:#f5eed8;}.cls-3,.cls-5{fill:#b53b3d;}.cls-3,.cls-4,.cls-6{fill-rule:evenodd;}.cls-4{fill:#7f3635;}</style></defs><g id="Ebene_2" data-name="Ebene 2"><g id="OBJECTS"><rect class="cls-1" width="77.27" height="87.35" rx="6.72"/><path class="cls-2" d="M59.62,21a1.07,1.07,0,0,1-.8-.34,1.11,1.11,0,0,1-.34-.82V5.92l-1.67.71a2.05,2.05,0,0,1-.73.16,1.16,1.16,0,0,1-.83-.32,1.09,1.09,0,0,1-.33-.82A1.21,1.21,0,0,1,55.1,5a1,1,0,0,1,.57-.44l3.56-1.27a.88.88,0,0,1,.23-.07.71.71,0,0,1,.2,0,1.07,1.07,0,0,1,.83.33,1.17,1.17,0,0,1,.31.85V19.83a1.11,1.11,0,0,1-.34.82A1.14,1.14,0,0,1,59.62,21Z"/><path class="cls-2" d="M72.42,21a5.76,5.76,0,0,1-3-.76,5.68,5.68,0,0,1-2.07-2.09,5.81,5.81,0,0,1-.77-3,1.15,1.15,0,0,1,.32-.83,1.11,1.11,0,0,1,.82-.33,1.18,1.18,0,0,1,.85.33,1.12,1.12,0,0,1,.34.83A3.47,3.47,0,0,0,69.42,17a3.24,3.24,0,0,0,1.24,1.25,3.38,3.38,0,0,0,1.76.46,3.43,3.43,0,0,0,1.79-.46A3.33,3.33,0,0,0,75.46,17a3.57,3.57,0,0,0,.45-1.78,3.53,3.53,0,0,0-.45-1.79,3.31,3.31,0,0,0-1.25-1.24,3.43,3.43,0,0,0-1.79-.46h-3.8a1.08,1.08,0,0,1-.82-.33,1.12,1.12,0,0,1-.32-.83V4.37a1.16,1.16,0,0,1,.32-.84,1.05,1.05,0,0,1,.82-.34h7.61a1.07,1.07,0,0,1,.82.35,1.14,1.14,0,0,1,.35.83,1.11,1.11,0,0,1-.33.8,1.12,1.12,0,0,1-.84.34H69.78V9.36h2.64a5.8,5.8,0,0,1,3,.77,5.73,5.73,0,0,1,2.08,2.07,6.18,6.18,0,0,1,0,5.94,5.71,5.71,0,0,1-2.08,2.09A5.8,5.8,0,0,1,72.42,21Z"/><path class="cls-3" d="M40.14,29.36S47.6,23.8,52.69,23.8s4.25,9.25,3.1,12.39-14.54-.8-15.33-1.67S40.14,29.36,40.14,29.36Z"/><path class="cls-3" d="M37.13,29.36S29.68,23.8,24.58,23.8s-4.25,9.25-3.09,12.39,14.54-.8,15.33-1.67S37.13,29.36,37.13,29.36Z"/><path class="cls-4" d="M38.64,36.83h0a4.28,4.28,0,0,0,4.26-4.26V31a4.27,4.27,0,0,0-4.26-4.26h0A4.27,4.27,0,0,0,34.37,31v1.55A4.28,4.28,0,0,0,38.64,36.83Z"/><rect class="cls-2" x="15.64" y="31.8" width="46" height="44.28" rx="5.15"/><rect class="cls-5" x="34.37" y="31.79" width="8.53" height="44.28"/><path class="cls-6" d="M16.6,17a.61.61,0,0,1,1.21,0v1.3a.61.61,0,0,1-1.21,0V17ZM20,19.2a.6.6,0,0,1,0,1.2H18.73a.6.6,0,1,1,0-1.2Zm-4.34,0a.6.6,0,1,1,0,1.2H14.39a.6.6,0,1,1,0-1.2Zm.92,2.12a.61.61,0,0,1,1.21,0v1.29a.61.61,0,1,1-1.21,0Z"/><path class="cls-6" d="M68.68,41.76a.61.61,0,0,1,1.21,0v1.29a.61.61,0,1,1-1.21,0V41.76ZM72.1,44a.6.6,0,0,1,0,1.2H70.81a.6.6,0,1,1,0-1.2Zm-4.34,0a.6.6,0,1,1,0,1.2H66.47a.6.6,0,0,1,0-1.2Zm.92,2.12a.61.61,0,0,1,1.21,0v1.29a.61.61,0,1,1-1.21,0Z"/><path class="cls-6" d="M7.37,56.88a.6.6,0,0,1,1.2,0v1.29a.6.6,0,1,1-1.2,0V56.88Zm3.41,2.21a.61.61,0,0,1,0,1.21H9.49a.61.61,0,0,1,0-1.21Zm-4.34,0a.61.61,0,1,1,0,1.21H5.15a.61.61,0,0,1,0-1.21Zm.93,2.13a.6.6,0,0,1,1.2,0v1.29a.6.6,0,0,1-1.2,0Z"/><path class="cls-6" d="M32.35,11.82a1.11,1.11,0,1,0-1.1-1.1A1.11,1.11,0,0,0,32.35,11.82Z"/><path class="cls-6" d="M66.37,30.72a1.11,1.11,0,1,0-1.1-1.11A1.11,1.11,0,0,0,66.37,30.72Z"/><path class="cls-6" d="M10.93,43.32a1.11,1.11,0,1,0-1.1-1.11A1.11,1.11,0,0,0,10.93,43.32Z"/><path class="cls-6" d="M68.05,68.94A1.11,1.11,0,1,0,67,67.83,1.11,1.11,0,0,0,68.05,68.94Z"/></g></g></svg>