<svg xmlns="http://www.w3.org/2000/svg" viewBox="0 0 77.27 87.36"><defs><style>.cls-1{fill:#2f3029;}.cls-2,.cls-3{fill:#f5eed8;}.cls-3,.cls-4{fill-rule:evenodd;}.cls-4{fill:#b53b3d;}</style></defs><g id="Ebene_2" data-name="Ebene 2"><g id="OBJECTS"><rect class="cls-1" width="77.27" height="87.36" rx="6.72"/><path class="cls-2" d="M57.23,80.07a1.1,1.1,0,0,1-.83-.34,1.17,1.17,0,0,1-.32-.82,1.12,1.12,0,0,1,.31-.82l6.46-7.55A8.2,8.2,0,0,0,63.91,69a2.88,2.88,0,0,0,.38-1.34A4,4,0,0,0,63.94,66a2.62,2.62,0,0,0-1-1.13,2.9,2.9,0,0,0-1.53-.39,2.83,2.83,0,0,0-1.56.44,3.25,3.25,0,0,0-1.09,1.18,3.48,3.48,0,0,0-.4,1.63,1.13,1.13,0,0,1-.33.8,1.11,1.11,0,0,1-.83.34,1.13,1.13,0,0,1-.81-.34,1.1,1.1,0,0,1-.34-.8,5.39,5.39,0,0,1,.7-2.76A5.16,5.16,0,0,1,58.7,63a5.37,5.37,0,0,1,2.74-.7,5.28,5.28,0,0,1,2.69.66,4.58,4.58,0,0,1,1.76,1.86,6.14,6.14,0,0,1,.62,2.87,4,4,0,0,1-.3,1.48,7.94,7.94,0,0,1-.78,1.43,14.13,14.13,0,0,1-.94,1.23l-5.21,5.91h6.37a1.18,1.18,0,0,1,1.18,1.16,1.11,1.11,0,0,1-.34.82,1.14,1.14,0,0,1-.84.34Z"/><path class="cls-2" d="M75.52,80.07a1.08,1.08,0,0,1-.8-.34,1.11,1.11,0,0,1-.34-.82V65l-1.66.7a1.86,1.86,0,0,1-.73.16,1.12,1.12,0,0,1-.83-.32,1.08,1.08,0,0,1-.33-.82,1.2,1.2,0,0,1,.18-.65,1,1,0,0,1,.57-.44l3.55-1.27.23-.07.2,0a1.07,1.07,0,0,1,.83.33,1.17,1.17,0,0,1,.31.85V78.91a1.11,1.11,0,0,1-.34.82A1.14,1.14,0,0,1,75.52,80.07Z"/><path class="cls-3" d="M35.09,19.39A3.57,3.57,0,0,1,30,24.44s-6.81-6.85-11.23-6.33a3.3,3.3,0,0,0-1.89.82,3.15,3.15,0,0,0-.85,1.32,5.73,5.73,0,0,0-.19,2.49c.36,3,2.33,7,6.89,12,12.35,13.56,25.4,25.86,25.44,25.9a3.57,3.57,0,0,1-4.89,5.19S30,53.24,17.5,39.52c-5.69-6.24-8.2-11.65-8.7-15.94A12.58,12.58,0,0,1,9.32,18a10.17,10.17,0,0,1,2.8-4.31A10.47,10.47,0,0,1,18,11C25.87,10.09,35.06,19.37,35.09,19.39Z"/><path class="cls-4" d="M35.09,19.39a3.69,3.69,0,0,1,.52.66,7.52,7.52,0,0,0-4.49,5.13A3.53,3.53,0,0,1,30,24.44S28.9,23.3,27.26,22a12.17,12.17,0,0,1,4.66-5.36,38.16,38.16,0,0,1,3.17,2.77Zm-10.85.45a7.6,7.6,0,0,1,3.29-6.21,22.57,22.57,0,0,0-4.77-2.11,11.89,11.89,0,0,0-2.66,4.64,11.84,11.84,0,0,0-3.33-4.93,10.38,10.38,0,0,0-4.65,2.43l-.09.08.06,0A6.9,6.9,0,0,1,16,19.3a12,12,0,0,0-6.79-1,12.76,12.76,0,0,0-.45,4.95c1.35-.45,4.33-.9,7.74,2a11.18,11.18,0,0,1-.62-2.51,5.73,5.73,0,0,1,.19-2.49,3.15,3.15,0,0,1,.85-1.32,3.3,3.3,0,0,1,1.89-.82c1.64-.19,3.61.62,5.43,1.73Zm-7.13,6.88a28.19,28.19,0,0,0,3.26,5.16l-.27-.05c-3.87-.92-6.28.15-7.61,1.2a29.59,29.59,0,0,1-2.24-4.22,12.16,12.16,0,0,1,6.86-2.09Zm5.66,8h0c1.23,1.35,2.47,2.69,3.7,4l-.13,0C22.8,39.28,21,40.87,20,42.26c-.84-.9-1.68-1.82-2.52-2.74l-.73-.81a12.73,12.73,0,0,1,6-4Zm7.64,8.17q1.93,2,3.78,3.9c-3.63.64-5.38,2.42-6.22,3.84l-3.36-3.48a12.45,12.45,0,0,1,5.8-4.26Zm7.39,7.56a12,12,0,0,0-5.37,4.7l3.5,3.5c.53-1.33,1.94-3.53,5.6-4.49-1.14-1.13-2.4-2.37-3.73-3.71ZM45.44,58c1.74,1.68,2.76,2.64,2.77,2.65A3.47,3.47,0,0,1,49,61.69a7.54,7.54,0,0,0-5.18,4.5,4.21,4.21,0,0,1-.48-.38s-1.17-1.11-3.12-3A12,12,0,0,1,45.44,58Z"/><path class="cls-3" d="M30.05,19.39a3.57,3.57,0,0,0,5.05,5.05s6.81-6.85,11.23-6.33a3.32,3.32,0,0,1,1.89.82,3.15,3.15,0,0,1,.85,1.32,5.75,5.75,0,0,1,.18,2.49c-.35,3-2.32,7-6.89,12C30,48.28,17,60.58,16.93,60.62a3.56,3.56,0,0,0,4.88,5.19S35.15,53.24,47.64,39.52c5.69-6.24,8.19-11.65,8.7-15.94A12.58,12.58,0,0,0,55.82,18,10.17,10.17,0,0,0,53,13.66,10.5,10.5,0,0,0,47.16,11C39.27,10.09,30.07,19.37,30.05,19.39Z"/><path class="cls-4" d="M30.05,19.39a3.53,3.53,0,0,0-.52.65A7.58,7.58,0,0,1,34,25.18a3.53,3.53,0,0,0,1.08-.74S36.24,23.3,37.87,22a12.09,12.09,0,0,0-4.65-5.36,38.16,38.16,0,0,0-3.17,2.77Zm10.84.45a7.58,7.58,0,0,0-3.28-6.21,22.35,22.35,0,0,1,4.77-2.11A11.89,11.89,0,0,1,45,16.16a11.83,11.83,0,0,1,3.32-4.93A10.36,10.36,0,0,1,53,13.66l.08.07-.05,0a6.9,6.9,0,0,0-3.91,5.54,11.91,11.91,0,0,1,6.78-1,12.76,12.76,0,0,1,.46,4.95c-1.35-.45-4.33-.9-7.74,2a11.68,11.68,0,0,0,.61-2.51,5.75,5.75,0,0,0-.18-2.49,3.15,3.15,0,0,0-.85-1.32,3.32,3.32,0,0,0-1.89-.82c-1.64-.19-3.61.62-5.44,1.73ZM48,26.71a28.23,28.23,0,0,1-3.26,5.17l.27-.05c3.87-.92,6.27.15,7.61,1.2a29.59,29.59,0,0,0,2.24-4.22A12.27,12.27,0,0,0,48,26.71Zm-5.66,8h0c-1.22,1.35-2.46,2.69-3.69,4l.12,0c3.55.54,5.38,2.13,6.33,3.52.84-.9,1.68-1.82,2.52-2.74q.38-.41.72-.81a12.7,12.7,0,0,0-6-4Zm-7.64,8.17q-1.93,2-3.78,3.9c3.63.64,5.38,2.42,6.22,3.84,1.09-1.13,2.22-2.29,3.35-3.48a12.36,12.36,0,0,0-5.79-4.26Zm-7.39,7.56a12,12,0,0,1,5.37,4.7l-3.5,3.5a7.75,7.75,0,0,0-5.6-4.49l3.73-3.71ZM19.69,58c-1.73,1.68-2.75,2.64-2.76,2.65a3.77,3.77,0,0,0-.78,1.06,7.52,7.52,0,0,1,5.18,4.51,3.48,3.48,0,0,0,.48-.38s1.18-1.11,3.13-3A12,12,0,0,0,19.69,58Z"/><path class="cls-3" d="M52.3,48.24a.6.6,0,0,1,1.2,0v1.29a.6.6,0,0,1-1.2,0V48.24Zm3.41,2.21a.61.61,0,1,1,0,1.21H54.42a.61.61,0,0,1,0-1.21Zm-4.33,0a.61.61,0,0,1,0,1.21h-1.3a.61.61,0,0,1,0-1.21Zm.92,2.13a.6.6,0,0,1,1.2,0v1.29a.6.6,0,0,1-1.2,0Z"/><path class="cls-3" d="M64.06,33.86a1.1,1.1,0,1,0-1.1-1.1A1.1,1.1,0,0,0,64.06,33.86Z"/><path class="cls-3" d="M31.77,9a1.1,1.1,0,1,0-1.1-1.1A1.11,1.11,0,0,0,31.77,9Z"/><path class="cls-3" d="M8.68,50.4a1.11,1.11,0,1,0-1.11-1.1A1.11,1.11,0,0,0,8.68,50.4Z"/><path class="cls-3" d="M32.41,75.81A1.11,1.11,0,1,0,31.3,74.7,1.11,1.11,0,0,0,32.41,75.81Z"/><path class="cls-3" d="M21.86,72.39a.61.61,0,0,1,1.21,0v1.29a.61.61,0,0,1-1.21,0V72.39Zm3.42,2.21a.61.61,0,0,1,0,1.21H24a.61.61,0,0,1,0-1.21Zm-4.34,0a.61.61,0,0,1,0,1.21H19.65a.61.61,0,0,1,0-1.21Zm.92,2.13a.61.61,0,0,1,1.21,0V78a.61.61,0,0,1-1.21,0Z"/><path class="cls-3" d="M60.92,6.88a.61.61,0,1,1,1.21,0V8.17a.61.61,0,0,1-1.21,0V6.88Zm3.42,2.21a.6.6,0,1,1,0,1.2H63.05a.6.6,0,1,1,0-1.2ZM60,9.09a.6.6,0,1,1,0,1.2H58.71a.6.6,0,0,1,0-1.2Zm.92,2.12a.61.61,0,0,1,1.21,0V12.5a.61.61,0,1,1-1.21,0Z"/><path class="cls-3" d="M9.47,38a.61.61,0,0,1,1.21,0v1.29a.61.61,0,1,1-1.21,0V38Zm3.42,2.22a.6.6,0,0,1,.6.6.6.6,0,0,1-.6.6H11.6a.6.6,0,0,1-.6-.6.6.6,0,0,1,.6-.6Zm-4.34,0a.6.6,0,0,1,.61.6.6.6,0,0,1-.61.6H7.26a.6.6,0,0,1-.6-.6.6.6,0,0,1,.6-.6Zm.92,2.12a.61.61,0,0,1,1.21,0v1.29a.61.61,0,0,1-1.21,0Z"/><path class="cls-3" d="M31.77,35.91a1.11,1.11,0,1,0-1.1-1.1A1.11,1.11,0,0,0,31.77,35.91Z"/></g></g></svg>